<?xml version="1.0" encoding="UTF-8"?>
<svg version="1.1" xmlns="http://www.w3.org/2000/svg" width="391" height="386">
<path d="M0 0 C129.03 0 258.06 0 391 0 C391 127.38 391 254.76 391 386 C261.97 386 132.94 386 0 386 C0 258.62 0 131.24 0 0 Z " fill="#212121" transform="translate(0,0)"/>
<path d="M0 0 C3.86225539 1.67801873 6.98678695 4.20339947 10.25 6.8125 C10.8584375 7.29460937 11.466875 7.77671875 12.09375 8.2734375 C17.44004354 12.52221956 22.73431258 16.83508883 28.02514648 21.15258789 C32.41817319 24.73238642 36.84747469 28.26050574 41.3125 31.75 C46.27149653 35.62693327 51.17297445 39.56423009 56.03515625 43.5625 C65.18395857 51.08404499 74.3751997 58.54601604 83.71020508 65.83544922 C88.18397339 69.33731903 92.59841843 72.90795926 97 76.5 C103.12054186 81.49423824 109.29584042 86.40953303 115.5234375 91.26953125 C116.32207686 91.92459278 116.32207686 91.92459278 117.13685036 92.59288788 C119.04416602 94.09422112 119.04416602 94.09422112 121.48709679 95.42963409 C125.86146932 98.22188064 128.56462306 100.33523714 129.90883255 105.47512817 C130.3630554 109.87912461 130.23833935 114.27799466 130.13525391 118.69726562 C130.13243037 120.39300366 130.13402199 122.08875391 130.13967896 123.78448486 C130.14254053 128.37172215 130.08388398 132.95632814 130.01393938 137.5429554 C129.95129231 142.34209866 129.94554173 147.14130683 129.9336853 151.9407959 C129.90264253 161.02176341 129.82063569 170.10152254 129.72019041 179.18195868 C129.58735895 191.45746706 129.53350655 203.73330749 129.47516823 216.00935364 C129.38122564 235.34047367 129.18198599 254.6690441 129 274 C97.65 274 66.3 274 34 274 C34 243.97 34 213.94 34 183 C12.22 183 -9.56 183 -32 183 C-32 213.03 -32 243.06 -32 274 C-63.35 274 -94.7 274 -127 274 C-127.64484855 231.3907366 -127.64484855 231.3907366 -127.78125 213.49414062 C-127.87608457 201.15068849 -127.98737923 188.80898754 -128.20703125 176.46704102 C-128.36695275 167.47695316 -128.4698326 158.4882895 -128.50541592 149.49681872 C-128.52620664 144.7388143 -128.57472829 139.98488241 -128.69168091 135.22818947 C-129.43095216 103.96385108 -129.43095216 103.96385108 -123.57543945 96.90097046 C-120.37140899 93.93810445 -116.97326986 91.87317001 -113.03388977 90.03024864 C-109.68732741 88.33507746 -106.93412648 85.94937886 -104.0625 83.5625 C-102.92042868 82.66483022 -101.77616255 81.76993987 -100.62890625 80.87890625 C-95.79481848 77.06954368 -91.06958245 73.12816582 -86.32983398 69.20263672 C-81.24112617 64.99738913 -76.08650766 60.88862044 -70.88232422 56.82763672 C-66.52559655 53.42484539 -62.23482388 49.94879057 -57.96484375 46.4375 C-48.81968641 38.91895167 -39.63263629 31.45915885 -30.30078125 24.17333984 C-25.02604307 20.04495812 -19.83446466 15.81743879 -14.64453125 11.58325195 C-9.81780961 7.65021309 -4.94810996 3.77980622 0 0 Z " fill="#F5F5F5" transform="translate(200,75)"/>
<path d="M0 0 C3.11895029 1.42600655 5.59657812 3.14615731 8.25 5.3125 C9.12914062 6.02664062 10.00828125 6.74078125 10.9140625 7.4765625 C11.93242187 8.30929688 12.95078125 9.14203125 14 10 C15.21573215 10.98748868 16.43190242 11.97443815 17.6484375 12.9609375 C21.06921196 15.73572697 24.48667483 18.51456246 27.90332031 21.29443359 C31.93188844 24.57151521 35.96283262 27.84567444 39.99414062 31.11938477 C43.35567235 33.84960243 46.7150438 36.58240038 50.0703125 39.3203125 C56.39886347 44.48017636 62.7460689 49.60650853 69.1875 54.625 C74.36000268 58.65691828 79.39605354 62.8234333 84.38305664 67.08203125 C88.37955339 70.49133014 92.44740629 73.79421653 96.5625 77.05859375 C100.03743206 79.82628803 103.46715285 82.64808384 106.90234375 85.46484375 C110.48906091 88.40348632 114.08813563 91.32687196 117.6875 94.25 C118.36635254 94.80131592 119.04520508 95.35263184 119.74462891 95.9206543 C121.13619181 97.0506661 122.52779366 98.18062995 123.91943359 99.31054688 C126.6182348 101.50201653 129.31641403 103.69425083 132.0144043 105.88671875 C133.33205634 106.95730091 134.64992546 108.02761595 135.96801758 109.09765625 C139.48085998 111.94991599 142.98930482 114.80738929 146.4921875 117.671875 C147.22566406 118.27064453 147.95914062 118.86941406 148.71484375 119.48632812 C150.12755445 120.63974383 151.53906408 121.79463259 152.94921875 122.95117188 C156.29301829 125.74506047 156.29301829 125.74506047 160 128 C160 142.85 160 157.7 160 173 C151.00700525 166.25525394 151.00700525 166.25525394 148.0625 163.80859375 C147.4037085 163.26323975 146.74491699 162.71788574 146.06616211 162.15600586 C145.38432861 161.58889893 144.70249512 161.02179199 144 160.4375 C142.50166325 159.19748013 141.00295662 157.95790708 139.50390625 156.71875 C138.75254395 156.09742188 138.00118164 155.47609375 137.22705078 154.8359375 C133.81081342 152.01965763 130.37585752 149.22670174 126.9375 146.4375 C126.28201172 145.90568115 125.62652344 145.3738623 124.95117188 144.82592773 C123.62886914 143.7534258 122.3064411 142.68107833 120.98388672 141.60888672 C117.65393553 138.90837253 114.3271353 136.20398205 111 133.5 C109.6666816 132.41664829 108.33334827 131.33331495 107 130.25 C79 107.5 79 107.5 51 84.75 C50.33959717 84.21342773 49.67919434 83.67685547 48.9987793 83.12402344 C47.66949505 82.04396984 46.34023063 80.96389183 45.01098633 79.88378906 C41.61586671 77.12507227 38.22037148 74.36681991 34.82421875 71.609375 C33.4452843 70.48961806 32.06637774 69.36982677 30.6875 68.25 C30.01895996 67.70706299 29.35041992 67.16412598 28.66162109 66.60473633 C24.8088946 63.47433638 20.96367846 60.33510836 17.125 57.1875 C12.1164109 53.08334505 7.06598485 49.03300746 2 45 C-1.24460895 46.47079084 -3.80554495 48.31424176 -6.5625 50.5625 C-7.89087891 51.64144531 -7.89087891 51.64144531 -9.24609375 52.7421875 C-10.60927734 53.85980469 -10.60927734 53.85980469 -12 55 C-12.83660156 55.68320313 -13.67320312 56.36640625 -14.53515625 57.0703125 C-16.32534235 58.53378289 -18.11432867 59.99872168 -19.90234375 61.46484375 C-23.48906091 64.40348632 -27.08813563 67.32687196 -30.6875 70.25 C-31.36635254 70.80131592 -32.04520508 71.35263184 -32.74462891 71.9206543 C-34.13619181 73.0506661 -35.52779366 74.18062995 -36.91943359 75.31054688 C-40.28025428 78.03958691 -43.6400889 80.76984025 -47 83.5 C-48.33332835 84.58333946 -49.66666169 85.66667279 -51 86.75 C-51.66 87.28625 -52.32 87.8225 -53 88.375 C-76.33333333 107.33333333 -99.66666667 126.29166667 -123 145.25 C-123.6607251 145.78689453 -124.3214502 146.32378906 -125.00219727 146.87695312 C-126.32798712 147.95404599 -127.65399427 149.03087144 -128.98022461 150.10742188 C-132.4308554 152.90901656 -135.87694499 155.71595002 -139.31640625 158.53125 C-140.02732422 159.11197266 -140.73824219 159.69269531 -141.47070312 160.29101562 C-142.81848029 161.39214076 -144.16493922 162.49488237 -145.50976562 163.59960938 C-146.12658203 164.10298828 -146.74339844 164.60636719 -147.37890625 165.125 C-147.9107251 165.56070313 -148.44254395 165.99640625 -148.99047852 166.4453125 C-151.92983702 168.71937822 -154.96591169 170.85471368 -158 173 C-158.34854032 166.79330124 -158.60115603 160.59238884 -158.76904297 154.37817383 C-158.83906051 152.26974228 -158.93432291 150.16198124 -159.05615234 148.0559082 C-160.01231148 131.09010972 -160.01231148 131.09010972 -156.71765137 126.03082275 C-153.5135929 122.64424533 -149.76705009 120.28083786 -145.72515869 118.00674438 C-143.4060532 116.65339269 -141.431723 115.00577557 -139.40625 113.25 C-138.75624023 112.71028564 -138.10623047 112.17057129 -137.43652344 111.61450195 C-136.7974707 111.08171631 -136.15841797 110.54893066 -135.5 110 C-130.30692216 105.69427959 -125.07553858 101.45325584 -119.75 97.3125 C-114.68558183 93.37350809 -109.7663077 89.29721032 -104.89355469 85.12426758 C-101.00695517 81.81147705 -97.03227182 78.63330454 -93 75.5 C-87.75802578 71.42605858 -82.65567235 67.21979362 -77.60668945 62.90966797 C-73.72328147 59.59827149 -69.77668046 56.38449634 -65.77734375 53.21484375 C-62.24636784 50.3990022 -58.74975881 47.54197784 -55.25 44.6875 C-50.1463259 40.52735221 -45.00757948 36.42032482 -39.8125 32.375 C-34.64069141 28.34385927 -29.60583517 24.17751915 -24.61914062 19.92016602 C-19.83092859 15.83623241 -14.93441196 11.90475938 -10 8 C-8.12424508 6.50094414 -6.24923039 5.00096151 -4.375 3.5 C-2.91666667 2.33333333 -1.45833333 1.16666667 0 0 Z " fill="#F3F3F3" transform="translate(200,16)"/>
<path d="M0 0 C0.33 0 0.66 0 1 0 C1 56.76 1 113.52 1 172 C-24.08 172.33 -49.16 172.66 -75 173 C-72.03 176.465 -72.03 176.465 -69 180 C-67.64632042 185.41471832 -67.27285734 189.86134512 -69.0625 195.125 C-71.78981268 199.1719801 -75.25036766 203.11009961 -80.015625 204.65234375 C-86.08044642 205.71488136 -90.6166641 204.99074217 -96 202 C-100.2022057 197.7977943 -102.94361322 193.91183266 -103.03125 187.83203125 C-102.67528909 182.51931461 -101.35947259 179.24874475 -98 175 C-97.47209114 173.94090424 -97.47209114 173.94090424 -96.93351746 172.8604126 C-93.79944265 169.84483484 -90.05195753 170.47856509 -85.9387207 170.54589844 C-84.52569184 170.54517523 -84.52569184 170.54517523 -83.08411694 170.54443741 C-80.03095571 170.54742606 -76.97876801 170.5778995 -73.92578125 170.609375 C-72.04244456 170.6152552 -70.15910136 170.61933649 -68.27575684 170.62158203 C-61.28790495 170.64256444 -54.30019294 170.69840925 -47.3125 170.75 C-23.8928125 170.87375 -23.8928125 170.87375 0 171 C0 114.57 0 58.14 0 0 Z " fill="#5D5C5C" transform="translate(329,178)"/>
<path d="M0 0 C0.33 0 0.66 0 1 0 C1 56.43 1 112.86 1 171 C32.35 171 63.7 171 96 171 C96 171.33 96 171.66 96 172 C64.32 172 32.64 172 0 172 C-0.33 145.93 -0.66 119.86 -1 93 C-3.475 93.99 -3.475 93.99 -6 95 C-9.22382117 95.37592261 -11.9363505 95.08406059 -15 94 C-19.87192479 89.9569471 -23.66761268 84.99148587 -24.375 78.625 C-23.84545565 73.50607124 -21.70225821 70.70225821 -18.125 67.125 C-15.32128484 65.64068021 -13.12299996 65.78706818 -10 66 C-10 64.68 -10 63.36 -10 62 C-7.525 61.505 -7.525 61.505 -5 61 C-3.68 62.65 -2.36 64.3 -1 66 C-0.67 44.22 -0.34 22.44 0 0 Z " fill="#6A6A6A" transform="translate(72,178)"/>
<path d="M0 0 C5.05617112 2.38498638 8.52824776 6.01726137 11 11 C12.48092923 15.78718982 12.47409309 19.70877276 10.4375 24.3125 C7.74978479 28.99733692 4.0779766 31.30734113 -1 33 C-6.74002565 33.54151185 -9.55798269 32.66949256 -14 29 C-17.97076402 24.89760844 -20.77947142 21.38170866 -21.3125 15.625 C-20.83971386 10.14068082 -19.08770267 6.72887098 -14.9375 3.1875 C-9.97436132 -0.50845433 -6.08850815 -0.65669579 0 0 Z " fill="#505050" transform="translate(370,22)"/>
<path d="M0 0 C4.62376441 1.9418069 8.07051492 5.42061826 10.33984375 9.91015625 C12.12253111 15.55357482 11.84831503 21.05594473 9.5 26.4375 C5.36146625 30.6794971 1.30075904 32.67708645 -4.5625 33.5 C-9.7119888 32.75098345 -13.32683948 31.14319789 -16.515625 27.05859375 C-19.95299914 21.69510478 -21.55129153 17.50524001 -21 11 C-16.22184677 1.97459946 -9.8755228 -1.28811167 0 0 Z " fill="#515151" transform="translate(314,61)"/>
<path d="M0 0 C2.67038537 0.95859988 3.67080472 1.69069425 5.4375 3.875 C6.02172852 6.00952148 6.02172852 6.00952148 6.31640625 8.49609375 C6.43201904 9.42164063 6.54763184 10.3471875 6.66674805 11.30078125 C6.77672119 12.29464844 6.88669434 13.28851563 7 14.3125 C7.12221924 15.33859375 7.24443848 16.3646875 7.37036133 17.421875 C7.74003387 20.57149473 8.08986547 23.72288114 8.4375 26.875 C8.64835677 28.68881147 8.85928959 30.5026141 9.0703125 32.31640625 C12.12847883 59.54445325 12.12847883 59.54445325 9.07421875 63.75390625 C6.72683488 65.36178016 5.21840429 65.29213564 2.4375 64.875 C-2.2835045 61.02925014 -2.32517587 54.93614762 -2.98095703 49.24072266 C-3.40630055 45.06012073 -3.7677964 40.87437922 -4.125 36.6875 C-4.31328171 34.52697342 -4.50329912 32.36662275 -4.69578552 30.20646667 C-4.86910499 28.25489321 -5.03736548 26.30287238 -5.20532227 24.35083008 C-5.53339032 21.15827714 -6.01768496 18.03627943 -6.5625 14.875 C-6.72049202 12.81592364 -6.82528381 10.75203027 -6.875 8.6875 C-6.91238281 7.66269531 -6.94976562 6.63789063 -6.98828125 5.58203125 C-6.5625 2.875 -6.5625 2.875 -4.703125 1.00390625 C-2.5625 -0.125 -2.5625 -0.125 0 0 Z " fill="#545454" transform="translate(348.5625,263.125)"/>
<path d="M0 0 C4.47063851 2.07477146 8.5228137 4.62849476 11 9 C12.35576637 13.0672991 12.78580432 16.73252851 11.3515625 20.87109375 C9.00359233 25.5369319 5.95814899 28.30035055 1 30 C-3.2326989 30.79414273 -6.35216903 30.32391549 -10.25 28.375 C-14.07541879 25.07122922 -16.59739515 22.52474632 -17.41796875 17.37890625 C-17.64522314 12.85224447 -17.70582174 9.16243258 -14.8125 5.5 C-9.87445642 1.11062793 -6.79199277 -0.92094817 0 0 Z " fill="#525252" transform="translate(41,260)"/>
<path d="M0 0 C3.96 0 7.92 0 12 0 C16.82359524 36.57893054 16.82359524 36.57893054 13.62890625 40.8203125 C12 42 12 42 9.5625 42.5 C7 42 7 42 4.90527344 39.86230469 C2.73969585 36.60894338 2.32463815 34.56800486 1.953125 30.703125 C1.83066406 29.4965625 1.70820312 28.29 1.58203125 27.046875 C1.47246094 25.79390625 1.36289063 24.5409375 1.25 23.25 C1.12496094 22.0125 0.99992188 20.775 0.87109375 19.5 C0.2390552 12.97125018 -0.14194433 6.55782795 0 0 Z " fill="#515151" transform="translate(4,0)"/>
<path d="M0 0 C3 1.375 3 1.375 5 3 C5 3.66 5 4.32 5 5 C1.86891153 5.5963978 -0.8694812 6.00799095 -4.0625 5.8125 C-7.09584882 5.81473185 -7.09584882 5.81473185 -9.875 7.4375 C-12.56699872 10.68373375 -12.65755378 12.62658653 -12.43359375 16.74609375 C-11.5959759 21.10019735 -9.05150777 23.94849223 -6 27 C-2.20347063 27.72134058 1.52854785 27.85660602 4.92578125 25.87890625 C6.75854096 24.3804467 6.75854096 24.3804467 9 22 C8.505 19.525 8.505 19.525 8 17 C4.20442119 17 2.37097383 17.50178941 -1 19 C-1.33 17.68 -1.66 16.36 -2 15 C-0.57277341 13.8001722 0.86715776 12.6154424 2.3125 11.4375 C3.11300781 10.77621094 3.91351563 10.11492188 4.73828125 9.43359375 C5.48464844 8.96050781 6.23101562 8.48742188 7 8 C11.23642862 9.41214287 12.53933308 11.9738972 14.8828125 15.65234375 C16 18 16 18 15.6875 21.25 C12.4372514 26.54670143 7.94785996 31.01738001 2 33 C-3.35854948 33.34571287 -6.69298163 33.51362025 -11 30 C-16.69640523 24.12297704 -18.42408915 19.99614105 -18.34765625 11.73046875 C-17.67965665 6.48404491 -14.68854376 4.36908953 -10.6875 1.125 C-7.03513482 -0.40389705 -3.90434541 -0.59824647 0 0 Z " fill="#505050" transform="translate(340,41)"/>
<path d="M0 0 C3.92891002 3.55546907 7.71196155 7.40765394 8.3125 12.8125 C7.92382474 16.77698767 6.78841168 18.21158832 4 21 C0.73360176 23.28647877 -2.07471029 23.54954056 -6 23 C-10.55194161 19.96537226 -13.07655326 17.23604945 -15 12 C-15.55487841 8.11585111 -15.36937347 6.58044402 -13.25 3.25 C-8.91177196 -1.08822804 -6.04622724 -1.8446117 0 0 Z " fill="#212121" transform="translate(369,27)"/>
<path d="M0 0 C4.53924036 2.91196551 7.25726194 5.87429983 9 11 C9.08114216 15.62510287 8.47488624 17.43013651 5.5 21 C2.79358414 22.96296668 0.76214531 23.3373588 -2.5625 23.1875 C-5.94865522 22.60033841 -7.71422828 21.74951307 -9.9375 19.125 C-10.618125 18.09375 -11.29875 17.0625 -12 16 C-12.66 15.01 -13.32 14.02 -14 13 C-14.46797583 8.78821757 -14.46565795 6.71400886 -12.125 3.125 C-8.52946449 -0.47053551 -4.92484383 -0.80705076 0 0 Z " fill="#212121" transform="translate(312,66)"/>
<path d="M0 0 C1.875 1.125 1.875 1.125 3 3 C3.33203125 5.87890625 3.33203125 5.87890625 3 9 C1.26953125 11.01953125 1.26953125 11.01953125 -1.1875 12.8125 C-2.08984375 13.47894531 -2.9921875 14.14539063 -3.921875 14.83203125 C-4.93765625 15.54746094 -5.9534375 16.26289063 -7 17 C-8.15154089 17.83655281 -9.30256807 18.67381316 -10.453125 19.51171875 C-11.61314038 20.34316272 -12.77458032 21.17262308 -13.9375 22 C-14.49268311 22.39807861 -15.04786621 22.79615723 -15.61987305 23.20629883 C-19.6479573 26 -19.6479573 26 -23 26 C-24.55658115 21.33025656 -25.71705355 17.78932945 -24 13 C-19.73311771 8.49533932 -14.22236602 5.27817603 -9 2 C-5.53076119 -0.31282587 -4.07794425 -0.42478586 0 0 Z " fill="#545454" transform="translate(385,296)"/>
<path d="M0 0 C3.125 0.25 3.125 0.25 5 1.375 C6.6547892 4.13298199 6.46180774 6.08400727 6.125 9.25 C4.39453125 11.26953125 4.39453125 11.26953125 1.9375 13.0625 C1.03515625 13.72894531 0.1328125 14.39539063 -0.796875 15.08203125 C-1.81265625 15.79746094 -2.8284375 16.51289063 -3.875 17.25 C-5.02654089 18.08655281 -6.17756807 18.92381316 -7.328125 19.76171875 C-8.48814038 20.59316272 -9.64958032 21.42262308 -10.8125 22.25 C-11.36768311 22.64807861 -11.92286621 23.04615723 -12.49487305 23.45629883 C-16.5229573 26.25 -16.5229573 26.25 -19.875 26.25 C-20.94060766 21.98756935 -22.00328185 17.56378073 -20.875 13.25 C-18.43293333 10.53315365 -15.52572476 8.73060602 -12.4375 6.8125 C-11.63505859 6.28462891 -10.83261719 5.75675781 -10.00585938 5.21289062 C-8.52863327 4.24178587 -7.04368853 3.28225533 -5.54907227 2.33813477 C-2.25335738 0.19594412 -2.25335738 0.19594412 0 0 Z " fill="#515151" transform="translate(41.875,9.75)"/>
<path d="M0 0 C2.625 2 2.625 2 4 5 C4.19797203 8.89117436 4.10771991 12.52191781 1.71484375 15.71484375 C-1.47808219 18.10771991 -5.10882564 18.19797203 -9 18 C-12 16.625 -12 16.625 -14 14 C-14.96331225 10.93906109 -15.30781064 8.19781051 -15 5 C-11.06295758 -1.516484 -6.97466577 -1.75603287 0 0 Z " fill="#7D7A7B" transform="translate(249,357)"/>
<path d="M0 0 C4.99178283 1.66392761 9.57640008 3.45950759 14.3125 5.6875 C15.04017578 6.00138672 15.76785156 6.31527344 16.51757812 6.63867188 C18.57427985 7.61814493 20.27554593 8.50926004 22 10 C23.64424443 15.75177641 23.64424443 15.75177641 22 18.9375 C18.90775589 20.58025469 16.46518552 20.25944466 13 20 C9.47265625 18.46875 9.47265625 18.46875 6.0625 16.5 C4.34740234 15.52546875 4.34740234 15.52546875 2.59765625 14.53125 C1.31181641 13.77328125 1.31181641 13.77328125 0 13 C0 8.71 0 4.42 0 0 Z " fill="#535353" transform="translate(0,292)"/>
<path d="M0 0 C7.24705839 -1.41790273 12.75989964 2.63455261 19 6 C19 10.29 19 14.58 19 19 C14.10151066 18.02030213 10.62518309 16.60895669 6.25 14.375 C5.56550781 14.05660156 4.88101562 13.73820312 4.17578125 13.41015625 C2.21995587 12.40706957 0.62029552 11.48731954 -1 10 C-2.078125 6.4140625 -2.078125 6.4140625 -2 3 C-1.34 2.01 -0.68 1.02 0 0 Z " fill="#545454" transform="translate(372,277)"/>
<path d="M0 0 C2.49690179 0.28670062 3.72679223 0.73235371 5.53515625 2.50390625 C7.37881659 4.98883975 9.20725809 7.47772991 11 10 C11.44923828 10.63083496 11.89847656 11.26166992 12.36132812 11.91162109 C13.85463714 14.01786287 15.3359813 16.13195772 16.8125 18.25 C17.29275635 18.93521729 17.7730127 19.62043457 18.26782227 20.32641602 C22.85138919 26.99083617 22.85138919 26.99083617 24 31 C23.67 31.66 23.34 32.32 23 33 C20.83203125 33.45703125 20.83203125 33.45703125 18 33 C15.8412651 30.82843934 14.30789518 28.27370514 12.6875 25.6875 C11.72823264 24.21505642 10.76728445 22.74370655 9.8046875 21.2734375 C9.33385742 20.54608398 8.86302734 19.81873047 8.37792969 19.06933594 C5.89832894 15.34554148 3.12675482 11.84867597 0.36328125 8.33203125 C-1.21269364 5.6361659 -1.36620328 4.07292317 -1 1 C-0.67 0.67 -0.34 0.34 0 0 Z " fill="#525252" transform="translate(7,266)"/>
<path d="M0 0 C4.41644598 -0.11608127 8.83250017 -0.1872132 13.25 -0.25 C15.13138672 -0.30027344 15.13138672 -0.30027344 17.05078125 -0.3515625 C18.25605469 -0.36445312 19.46132813 -0.37734375 20.703125 -0.390625 C21.81333008 -0.41157227 22.92353516 -0.43251953 24.06738281 -0.45410156 C27.66602323 0.10313047 28.81440661 1.14292125 31 4 C31.49089348 6.87523324 31.41359492 8.29445572 29.9375 10.8125 C26.99271532 12.61736803 24.31250893 12.53427563 21 12 C17.39444445 10.64932098 14.03040742 8.91394775 10.625 7.125 C9.25408203 6.43470703 9.25408203 6.43470703 7.85546875 5.73046875 C1.14532343 2.29064685 1.14532343 2.29064685 0 0 Z " fill="#505050" transform="translate(31,0)"/>
<path d="M0 0 C2.75 2.5 2.75 2.5 5 5 C5.33 5.33 5.66 5.66 6 6 C6.4375 8.75 6.4375 8.75 6 12 C3.87155784 14.4399215 2.79124279 15.6562945 0 17 C-3.625 17.1875 -3.625 17.1875 -7 16 C-9.74791918 12.97024296 -10.85428802 10.91069988 -11.5 6.875 C-10.88465608 3.33677249 -9.77551121 2.20408243 -7 0 C-4.19664415 -1.40167793 -2.9650644 -0.96536981 0 0 Z " fill="#242424" transform="translate(41,267)"/>
<path d="M0 0 C5.40540541 1.40540541 5.40540541 1.40540541 7 3 C7.0883967 5.3756852 7.11530305 7.72208674 7.09765625 10.09765625 C7.0962413 10.80651474 7.09482635 11.51537323 7.09336853 12.24571228 C7.08775443 14.51801712 7.07519963 16.79022475 7.0625 19.0625 C7.05748681 20.59960796 7.05292359 22.13671745 7.04882812 23.67382812 C7.03778042 27.44925642 7.02050641 31.22461171 7 35 C5.515 35.495 5.515 35.495 4 36 C2.99569004 31.96329975 1.99903 27.92480919 1.00927734 23.88452148 C0.67183363 22.5116141 0.33234027 21.13920874 -0.00927734 19.76733398 C-0.50123021 17.79019979 -0.9856738 15.81135049 -1.46875 13.83203125 C-1.76201172 12.64327393 -2.05527344 11.4545166 -2.35742188 10.22973633 C-2.93552177 7.32408149 -3.37841995 4.93699551 -3 2 C-2.01 1.34 -1.02 0.68 0 0 Z " fill="#4F4F4F" transform="translate(384,5)"/>
<path d="M0 0 C2.54303992 2.15180301 3.77442207 3.68498318 4.34375 7.00390625 C4.47285057 9.92480669 4.31802765 12.36394471 3 15 C-0.25187205 16.62593602 -3.49646043 16.65691367 -7 16 C-9.43119623 14.12984906 -10.64069173 12.71861655 -12 10 C-12.375 6.625 -12.375 6.625 -12 3 C-8.33835517 -1.43835736 -5.37496501 -1.66135282 0 0 Z " fill="#232323" transform="translate(67,250)"/>
<path d="M0 0 C3.5 0.25 3.5 0.25 5.5 2.25 C5.75 5.75 5.75 5.75 5.5 9.25 C3.5 11.25 3.5 11.25 0 11.5 C-3.5 11.25 -3.5 11.25 -5.5 9.25 C-5.75 5.75 -5.75 5.75 -5.5 2.25 C-3.5 0.25 -3.5 0.25 0 0 Z " fill="#545454" transform="translate(363.5,270.75)"/>
<path d="M0 0 C6 0 6 0 7.875 1.125 C9.63776855 4.06294758 9.66083438 5.62974464 9 9 C6.93140386 11.37565338 4.65531769 13.30588328 2 15 C1.34 15 0.68 15 0 15 C0 10.05 0 5.1 0 0 Z " fill="#525252" transform="translate(0,310)"/>
<path d="M0 0 C3.875 0.875 3.875 0.875 5 2 C5.07226502 3.85287502 5.0838122 5.70833878 5.0625 7.5625 C5.05347656 8.57441406 5.04445313 9.58632813 5.03515625 10.62890625 C5.02355469 11.41136719 5.01195312 12.19382812 5 13 C2.05805179 10.26094477 -0.33889284 7.69134924 -2 4 C-1.1875 1.6875 -1.1875 1.6875 0 0 Z " fill="#525252" transform="translate(386,252)"/>
<path d="M0 0 C0.04254356 1.99954746 0.04080783 4.00041636 0 6 C-1 7 -1 7 -3.5625 7.0625 C-4.7690625 7.0315625 -4.7690625 7.0315625 -6 7 C-6.33 5.35 -6.66 3.7 -7 2 C-4.35261084 0.5393715 -3.10551666 0 0 0 Z " fill="#505050" transform="translate(72,275)"/>
<path d="M0 0 C1.98 0.99 1.98 0.99 4 2 C4 5.63 4 9.26 4 13 C1.27835324 10.27835324 0.89427524 7.70485455 0 4 C0 2.68 0 1.36 0 0 Z " fill="#212121" transform="translate(387,12)"/>
</svg>
