<svg version="1.1" id="Layer_1" xmlns="http://www.w3.org/2000/svg" xmlns:xlink="http://www.w3.org/1999/xlink" x="0px" y="0px"
	 width="100%" viewBox="0 0 870 457" enable-background="new 0 0 870 457" xml:space="preserve">
<path fill="#FFFFFF" opacity="1.000000" stroke="none" 
	d="
M871.000000,199.000000 
	C871.000000,201.041672 871.000000,203.083328 870.658081,205.516083 
	C869.521729,204.898666 868.870117,203.719803 867.907166,202.912033 
	C864.294434,199.881378 860.999878,195.619354 856.810120,194.318939 
	C849.675537,192.104492 841.444397,197.208054 838.943848,203.710022 
	C836.096680,211.113052 839.507996,219.542068 847.563477,225.008316 
	C852.821533,228.576279 859.861206,227.347305 865.628540,221.888885 
	C867.386597,220.225021 869.207764,218.627777 871.000000,217.000000 
	C871.000000,297.270996 871.000000,377.541962 871.000000,458.000000 
	C763.645874,458.000000 656.291565,458.000000 548.501343,457.648682 
	C549.162231,456.135529 550.106812,454.758575 551.385681,453.854187 
	C554.606445,451.576477 554.972595,448.641510 552.994446,445.688812 
	C550.854431,442.494476 547.718445,441.930267 544.396301,444.157104 
	C539.346924,447.541748 534.278931,450.904877 529.353271,454.463135 
	C528.278198,455.239746 527.769531,456.800446 527.000000,458.000000 
	C526.250000,458.000000 525.500000,458.000000 524.376648,457.550171 
	C523.668701,452.513763 523.500427,447.907684 522.965759,443.344543 
	C521.745422,432.928467 520.345642,422.533386 519.433228,412.027161 
	C520.231384,410.118347 520.947571,408.312592 520.950195,406.505829 
	C521.015930,360.918091 521.006592,315.330231 521.374756,269.785004 
	C523.693665,271.283478 525.082275,271.054535 526.352844,268.767365 
	C529.150879,263.730286 527.310059,259.146729 521.000793,255.520493 
	C520.999268,252.064682 520.720154,249.042252 521.065186,246.092804 
	C521.564636,241.823013 519.979065,239.097946 516.542114,236.525208 
	C509.509613,231.261093 502.863953,225.480225 496.284760,219.669189 
	C501.441498,220.721436 506.404846,222.716446 511.352173,218.806671 
	C511.787842,218.887314 511.963440,218.912003 512.310059,219.215149 
	C520.351257,225.685745 528.221497,231.877884 536.093445,238.488190 
	C534.515198,251.340698 544.510681,246.709702 550.826721,248.149551 
	C550.826721,244.688980 550.826721,240.914505 550.921997,236.671036 
	C551.019043,230.916641 550.523193,225.573029 551.132935,220.358719 
	C552.190002,211.320251 550.406494,203.871414 541.998840,198.779282 
	C542.552917,197.787354 543.014099,197.119278 543.541382,196.508209 
	C548.087280,191.239624 549.262573,185.362122 545.985352,179.142334 
	C542.648987,172.810440 537.951782,168.502350 529.945496,168.898987 
	C523.291687,169.228607 519.732849,173.583801 515.753113,177.985016 
	C515.509949,177.966217 515.023438,177.930664 514.860779,177.641602 
	C492.121246,158.980911 469.569427,140.578384 446.959412,122.247635 
	C429.394653,108.007217 411.757324,93.856354 393.942322,79.390381 
	C392.768341,79.297981 391.804260,79.480881 390.522888,79.798523 
	C339.103424,121.379753 287.984009,162.805054 236.977875,204.369354 
	C235.355453,205.691437 234.080368,208.423203 234.031403,210.530060 
	C233.752792,222.519150 233.886383,234.518082 233.913849,246.513596 
	C233.916214,247.550095 234.166031,248.586029 234.388199,250.292877 
	C287.418030,207.276245 339.880829,164.719559 392.501099,122.035156 
	C401.012054,128.948425 409.166840,135.535385 417.281860,142.171036 
	C440.857727,161.449112 464.417633,180.746704 487.985229,200.480225 
	C486.621368,206.809036 490.291840,211.433746 491.608368,216.418121 
	C490.549164,215.817719 489.785583,215.372864 488.852600,214.645401 
	C485.884094,212.199951 483.084930,210.037079 480.104187,207.583725 
	C450.889130,183.931763 421.855652,160.570297 392.675018,137.090424 
	C390.932678,138.396652 389.452606,139.442322 388.041229,140.573700 
	C351.031708,170.240677 314.381134,200.373795 276.796326,229.292816 
	C266.453217,237.251144 261.664764,245.431961 263.599365,257.873108 
	C253.188995,252.838364 249.329773,261.217529 243.876724,267.542236 
	C243.876724,264.378693 244.077972,262.051758 243.789673,259.787109 
	C243.650848,258.696625 242.416000,256.762268 241.971497,256.842346 
	C235.849823,257.945038 229.774002,259.309082 223.712723,260.719879 
	C223.415070,260.789154 223.354462,261.876862 223.176437,262.515564 
	C231.099228,263.617645 231.099457,263.617645 231.099854,271.901031 
	C231.100174,278.557373 230.999634,285.215698 231.131943,291.869415 
	C231.234894,297.045563 231.536591,302.151581 224.520767,303.090759 
	C224.296936,303.120667 224.177582,303.931152 224.011139,304.373474 
	C228.852356,306.489990 248.554062,305.977203 250.850510,303.714081 
	C243.891541,300.140259 243.891174,300.140259 243.889862,291.427277 
	C243.889236,287.267059 243.868759,283.106750 243.895111,278.946686 
	C243.948715,270.480225 251.102844,265.807556 258.954071,269.061401 
	C260.588043,269.738586 262.286835,270.259308 263.919617,271.328979 
	C263.942108,302.204376 264.000732,332.602905 263.985992,363.456909 
	C263.839813,367.589386 263.766998,371.266449 263.329285,374.947449 
	C261.877747,374.590027 260.769928,374.281891 259.707947,373.858673 
	C253.437271,371.359711 247.124146,372.805817 242.745117,377.774017 
	C239.433441,381.531250 238.896637,389.070831 241.580719,394.128174 
	C245.934494,402.331665 253.174561,403.952179 263.735413,399.524902 
	C263.811279,403.886597 263.811279,407.793335 263.811279,411.580505 
	C296.233368,411.580505 327.759888,411.580505 359.772217,411.580505 
	C359.772217,380.972656 359.772217,350.749603 359.772217,320.373108 
	C381.788422,320.373108 403.313049,320.373108 425.276642,320.373108 
	C425.276642,350.980103 425.276642,381.215424 425.276642,412.120453 
	C453.470398,412.120453 481.226440,412.120453 508.931213,412.517273 
	C508.658295,415.348633 508.063049,417.816528 508.277435,420.212036 
	C509.405640,432.818085 510.738281,445.405884 512.000000,458.000000 
	C404.312439,458.000000 296.624878,458.000000 188.510437,457.616882 
	C189.631927,451.924225 188.505066,449.334656 183.516479,446.790283 
	C181.903442,445.967560 180.287231,445.148468 178.647034,444.382141 
	C174.452301,442.422333 170.283798,440.398041 166.026871,438.582275 
	C162.735245,437.178253 159.719437,437.788696 157.748184,440.945892 
	C155.665085,444.282196 157.596390,446.841492 160.188629,448.554047 
	C163.351425,450.643616 166.938828,452.078430 170.237946,453.978180 
	C172.260086,455.142578 174.085968,456.647827 176.000000,458.000000 
	C165.645767,458.000000 155.291550,458.000000 144.468872,457.561157 
	C143.003281,448.261322 142.109192,439.386963 140.963730,430.545166 
	C140.423553,426.375305 137.315857,424.111115 133.661453,425.103271 
	C129.755661,426.163635 128.768661,429.255096 129.165466,432.906738 
	C130.074799,441.275024 131.050964,449.636047 132.000000,458.000000 
	C88.397957,458.000000 44.795914,458.000000 1.000000,458.000000 
	C1.000000,403.312592 1.000000,348.624969 1.353733,293.504944 
	C2.553781,293.571625 3.399509,294.071716 4.246519,294.569580 
	C6.449347,295.864380 8.843595,298.470917 11.158395,295.684082 
	C12.242322,294.379150 11.960959,291.574371 11.649632,289.549042 
	C10.897979,284.659271 9.764569,279.828156 8.785086,274.973389 
	C9.162079,274.847534 9.539073,274.721649 9.916066,274.595795 
	C13.489513,279.393188 17.062960,284.190613 20.654879,289.012787 
	C23.730171,287.386261 24.792994,285.855347 22.647079,282.975525 
	C18.701658,277.680756 14.724079,272.367920 11.322330,266.723633 
	C8.690954,262.357574 6.046318,259.831696 1.000000,263.000000 
	C1.000000,180.979111 1.000000,98.958206 1.397494,16.468191 
	C10.445284,14.801941 17.519932,8.253775 18.000000,1.000000 
	C302.212799,1.000000 586.425598,1.000000 871.000000,1.000000 
	C871.000000,60.353737 871.000000,119.708214 870.635986,179.570038 
	C864.538452,184.938370 864.913086,194.675827 871.000000,199.000000 
M645.675110,364.093689 
	C646.472839,364.902893 647.257507,365.725494 648.070374,366.519226 
	C654.517822,372.815338 662.519714,372.333160 668.013977,365.554688 
	C669.278931,363.994019 671.540771,363.270111 672.943848,361.783630 
	C674.105774,360.552490 675.794495,358.038025 675.338257,357.337891 
	C671.178284,350.954010 666.693115,344.770691 662.036682,338.734222 
	C661.375183,337.876678 659.286865,338.119720 657.858948,337.853333 
	C657.242798,342.679901 652.787231,342.135864 649.786438,343.642456 
	C645.382019,345.853821 642.807617,349.426941 643.092346,354.376892 
	C643.278503,357.612549 644.336792,360.798096 644.388062,363.703644 
	C640.103149,359.687469 635.452637,357.161560 629.232727,358.919586 
	C622.717712,360.761047 617.435852,367.616180 618.341675,373.577881 
	C619.645996,382.161682 626.115845,388.330109 633.456909,387.988800 
	C640.464966,387.662994 647.973755,380.720978 647.809814,373.905273 
	C647.729858,370.581360 645.985901,367.297485 645.675110,364.093689 
M255.597687,112.287590 
	C256.683289,113.312836 257.781677,114.324921 258.852356,115.365532 
	C264.296692,120.656960 270.463409,121.320312 276.243073,116.732414 
	C278.150482,115.218300 279.237000,112.669968 280.736511,110.541061 
	C283.646454,114.077507 283.252655,117.297043 279.508270,119.639801 
	C277.567657,120.853981 275.122803,121.276817 273.222137,122.535080 
	C271.953735,123.374779 271.242981,125.056854 270.282684,126.361946 
	C271.899994,126.936684 273.568298,128.083633 275.122009,127.945091 
	C277.185272,127.761116 279.234070,126.728020 281.157776,125.790359 
	C287.662628,122.619690 290.952423,113.875374 287.338440,108.140289 
	C282.934174,101.151062 278.072662,94.430046 273.035187,87.880470 
	C272.246307,86.854805 269.477020,87.352325 267.623474,87.145531 
	C267.417725,90.931801 264.152374,90.590157 261.808929,91.782295 
	C259.425415,92.994804 257.272064,94.948799 255.485474,96.987747 
	C251.309891,101.753143 253.417068,106.934433 254.292465,111.932991 
	C253.303909,111.343575 252.215088,110.874367 251.342285,110.146202 
	C242.366669,102.657860 229.144073,109.903908 228.434555,121.167114 
	C228.129288,126.013031 231.857361,132.830658 236.399979,135.174377 
	C241.760330,137.939987 247.500961,137.563309 251.300095,134.196640 
	C257.578186,128.633209 259.105988,123.925751 256.767242,117.619728 
	C256.084595,115.779091 255.581055,113.872032 255.597687,112.287590 
M595.691772,399.062378 
	C597.103455,400.182404 598.562988,401.247711 599.918457,402.432159 
	C605.017151,406.887634 611.578613,406.814545 616.415955,402.025024 
	C618.028259,400.428650 619.272766,398.460754 620.684570,396.662018 
	C623.662415,399.825867 623.413757,403.084290 619.686218,405.515625 
	C617.770569,406.765106 615.321838,407.196136 613.402771,408.441864 
	C612.093018,409.291992 611.282715,410.911530 610.249146,412.187134 
	C611.823425,412.784180 613.836243,414.311188 614.893921,413.812500 
	C618.854309,411.945282 623.041382,409.970306 626.118530,406.980774 
	C629.294434,403.895264 630.572266,399.199493 627.906982,395.036102 
	C623.264954,387.784821 618.267151,380.744385 613.050110,373.896271 
	C612.264343,372.864838 609.486755,373.350922 607.630493,373.135040 
	C607.416809,376.916809 604.310913,376.824188 601.761536,377.705505 
	C597.585388,379.149200 594.156189,381.884796 593.877502,386.464264 
	C593.625488,390.606689 594.581238,394.822601 594.391235,398.704865 
	C585.815002,391.292480 578.262756,391.389740 571.508484,398.999542 
	C567.456909,403.564362 567.631165,411.994202 571.887390,417.324646 
	C576.068420,422.560944 583.295959,424.389160 588.803406,421.603699 
	C597.631104,417.138916 599.576782,410.034424 595.691772,399.062378 
M216.691864,413.062408 
	C218.102463,414.181427 219.560791,415.245850 220.915024,416.429413 
	C225.631104,420.550934 230.821823,421.197571 235.875412,417.554565 
	C238.366425,415.758881 240.151947,412.984528 242.411453,410.481598 
	C244.711441,413.341888 244.889404,416.305725 241.801071,418.548553 
	C239.328506,420.344116 236.182037,421.189545 233.593506,422.858215 
	C232.511536,423.555664 232.099442,425.292267 231.382782,426.556458 
	C232.878998,427.215088 234.445114,428.527954 235.854843,428.377289 
	C237.909637,428.157684 239.933243,427.038605 241.827332,426.033752 
	C248.173065,422.667236 252.182526,414.922363 249.268112,409.972931 
	C244.747635,402.296021 239.417953,395.081726 234.154938,387.873108 
	C233.482376,386.951935 229.944183,386.690125 229.777954,387.054779 
	C228.194580,390.528320 224.829269,390.757568 221.985733,392.108948 
	C218.131119,393.940857 214.870590,396.809021 214.818878,401.449554 
	C214.776016,405.296875 215.577087,409.153564 215.393127,412.705597 
	C210.178513,407.780060 204.688797,405.315491 197.496658,409.128784 
	C191.283112,412.423218 189.351852,417.279663 189.953384,423.898895 
	C190.494461,429.852692 195.520340,435.495026 201.977890,436.843567 
	C207.469604,437.990417 213.594818,434.670135 216.707199,429.819550 
	C220.541153,423.844452 218.721725,418.491425 216.691864,413.062408 
M650.177734,268.694580 
	C654.822815,265.040161 659.467957,261.385742 664.433472,257.479187 
	C656.726624,257.479187 649.525757,257.479187 642.324890,257.479187 
	C642.152100,257.988373 641.979309,258.497589 641.806458,259.006775 
	C644.085266,259.912842 646.364014,260.818939 649.507507,262.068817 
	C644.009644,267.889893 640.214050,275.234161 631.877197,279.743591 
	C631.877197,276.992401 631.877197,275.369537 631.877197,273.746674 
	C631.877075,260.417084 631.724915,247.084854 631.957947,233.759338 
	C632.041138,229.001160 630.289856,227.836441 625.968323,228.944595 
	C622.274292,229.891846 618.461182,230.379333 614.777100,231.357986 
	C613.394287,231.725342 612.226990,232.903992 609.841431,234.428543 
	C619.086243,235.445755 619.086243,235.445755 619.086060,243.569443 
	C619.085693,260.064789 618.992554,276.561005 619.142029,293.054993 
	C619.186279,297.942413 618.822144,302.108276 612.819885,302.994720 
	C612.470886,303.046234 612.254761,303.996979 611.955872,304.569458 
	C617.861938,306.459625 636.462524,305.884857 639.202454,303.515869 
	C626.737671,301.084137 633.822388,291.526154 632.362061,284.618286 
	C634.997192,285.664459 637.425293,286.974518 638.923706,288.979370 
	C642.202026,293.365753 644.949097,298.145477 648.049316,302.671265 
	C648.826294,303.805542 650.083740,305.351898 651.180359,305.402313 
	C657.061279,305.672699 662.961121,305.529999 668.854431,305.529999 
	C669.122131,305.042389 669.389893,304.554779 669.657593,304.067169 
	C655.966125,298.713989 653.126831,284.658173 644.246338,275.252380 
	C646.374390,272.902405 648.036865,271.066589 650.177734,268.694580 
M183.500732,233.130936 
	C180.503601,233.130936 177.506470,233.130936 174.509338,233.130936 
	C162.486267,233.130936 161.247925,234.354080 161.008362,246.465729 
	C161.005051,246.632187 160.943192,246.821335 161.001328,246.961456 
	C161.535461,248.248779 162.090118,249.527573 162.638779,250.808884 
	C163.631546,249.961395 164.757584,249.227127 165.591919,248.245041 
	C168.027451,245.378235 169.833237,241.651413 172.815506,239.640076 
	C179.530624,235.111115 188.193176,238.046921 188.266708,244.507996 
	C188.458099,261.322388 188.340805,278.140594 188.300354,294.957153 
	C188.290512,299.046936 186.232162,301.388855 182.093002,302.039673 
	C181.041122,302.205048 180.123352,303.223328 179.143967,303.849731 
	C180.326141,304.418488 181.500183,305.459503 182.691803,305.480042 
	C191.014755,305.623474 199.341995,305.606140 207.665939,305.495148 
	C208.772186,305.480408 209.867493,304.646301 210.967880,304.191681 
	C209.976669,303.404388 209.084579,302.150299 207.976151,301.914886 
	C204.237717,301.120850 201.935379,299.316620 201.936325,295.243286 
	C201.940323,278.093140 201.943939,260.942963 201.915375,243.792877 
	C201.910049,240.592804 203.568130,238.944077 206.542313,238.252075 
	C213.523788,236.627731 218.997696,238.845627 222.792480,244.992493 
	C224.050522,247.030273 225.140213,249.171982 226.306885,251.266174 
	C226.790314,251.259415 227.273743,251.252655 227.757156,251.245880 
	C228.209595,249.734924 229.084549,248.207611 229.026825,246.716385 
	C228.905167,243.573273 228.338440,240.442612 227.872910,237.318970 
	C227.414383,234.242096 225.828156,232.991608 222.462921,233.047241 
	C209.811752,233.256409 197.155029,233.131012 183.500732,233.130936 
M575.885010,280.155182 
	C575.553650,274.215820 576.124878,268.471100 580.020813,263.623169 
	C584.048218,258.611664 590.546936,259.308685 593.431641,265.075134 
	C594.235413,266.682037 594.152893,268.855560 595.212219,270.181854 
	C596.708069,272.054657 598.676086,274.011292 600.842957,274.739136 
	C602.530457,275.306061 606.092834,274.599518 606.574463,273.486420 
	C607.393616,271.593353 607.081421,268.626617 606.124756,266.654114 
	C602.663147,259.516235 594.497803,255.507858 586.109070,256.284180 
	C569.180725,257.850861 559.153015,274.083252 564.586670,291.123657 
	C567.343689,299.770050 574.740906,305.544678 584.192993,306.429169 
	C593.572571,307.306854 602.357849,302.990295 606.160278,295.696075 
	C607.407349,293.303894 608.331543,291.098358 604.755249,289.926514 
	C599.032104,298.110260 594.127380,300.243805 587.294861,297.413635 
	C580.036255,294.406952 577.155029,288.277771 575.885010,280.155182 
M535.905212,301.458527 
	C534.149048,302.209625 532.392883,302.960754 529.738220,304.096161 
	C536.163818,306.426697 555.095276,305.927856 558.218933,303.354858 
	C548.676392,302.540985 550.773438,295.681152 550.726196,289.999542 
	C550.644470,280.174500 550.705505,270.348297 550.700073,260.522583 
	C550.698669,258.050598 550.572693,255.471878 547.061462,256.073700 
	C542.153503,256.914886 537.257263,257.893524 532.439209,259.135986 
	C531.362854,259.413544 530.631897,261.030273 529.102905,262.748535 
	C537.535583,261.976349 537.967102,262.375519 537.973572,269.707428 
	C537.980774,277.867767 538.079346,286.030304 537.907043,294.187012 
	C537.859802,296.424561 536.985107,298.644623 535.905212,301.458527 
M184.053757,171.227676 
	C182.988647,159.200165 181.936050,147.171524 180.834991,135.147308 
	C180.745743,134.172607 180.226471,133.243622 180.073868,132.267319 
	C179.175751,126.521660 177.029831,124.339943 172.870346,125.027626 
	C169.255066,125.625336 167.480133,128.992859 168.037613,134.034088 
	C169.381378,146.185760 170.649063,158.346024 172.038574,170.492386 
	C172.582016,175.242661 172.875504,180.119263 174.282761,184.626099 
	C174.866150,186.494446 178.055496,188.603439 180.085938,188.630386 
	C181.695999,188.651733 184.490356,185.821854 184.740479,183.983383 
	C185.264557,180.131180 184.458572,176.098007 184.053757,171.227676 
M642.838501,96.670113 
	C646.648621,102.271873 650.321289,107.976555 654.378418,113.393250 
	C655.246155,114.551720 657.508606,114.665482 659.128540,115.260513 
	C659.002563,113.594223 659.425903,111.592285 658.650330,110.322876 
	C656.039673,106.050079 653.002319,102.037926 650.128235,97.926071 
	C655.160645,99.751640 659.306763,102.593353 663.677490,105.032555 
	C665.655823,106.136665 668.080505,106.441139 670.302673,107.108383 
	C670.672302,104.658760 671.610535,102.133385 671.296326,99.774879 
	C670.584290,94.430428 669.255127,89.168190 668.176941,83.872520 
	C668.371887,83.761887 668.566833,83.651253 668.761780,83.540619 
	C672.712158,89.042473 676.662537,94.544327 680.874146,100.409988 
	C683.061157,98.340462 685.020386,97.256912 682.869019,94.315056 
	C678.078796,87.764931 673.613586,80.977074 668.820068,74.429482 
	C668.071960,73.407654 665.657959,72.287689 665.116577,72.691376 
	C663.755981,73.706062 662.294800,75.528854 662.213867,77.096832 
	C662.090698,79.482681 663.130066,81.920723 663.620789,84.347702 
	C664.703979,89.704727 665.752808,95.068680 667.012329,101.421730 
	C658.573486,96.268410 651.148682,91.734329 643.636963,87.147171 
	C642.051514,88.344048 640.527649,89.494446 638.866333,90.748596 
	C640.245972,92.793884 641.348633,94.428513 642.838501,96.670113 
M334.009247,69.510109 
	C330.348969,64.197479 326.798920,58.803532 322.970856,53.614689 
	C321.562103,51.705166 319.738373,49.361603 317.155182,52.812988 
	C316.048553,54.291534 314.532806,55.858543 312.869232,56.455757 
	C306.385376,58.783398 303.113800,62.568882 303.000427,68.612190 
	C302.891632,74.412155 307.752319,82.044212 312.626282,83.726257 
	C319.580536,86.126228 323.542328,84.891487 328.361420,79.114021 
	C329.428619,77.834572 330.883636,76.602760 332.414032,76.041840 
	C335.798767,74.801277 336.503326,72.999550 334.009247,69.510109 
M307.979370,87.489517 
	C306.576782,84.183197 305.559906,80.635941 303.680664,77.627342 
	C300.903198,73.180710 292.557831,71.221436 287.581268,73.320305 
	C282.015289,75.667755 277.094360,82.755417 278.229584,87.823051 
	C279.657074,94.195541 282.652588,99.481705 289.744324,101.451660 
	C296.462769,103.317932 301.038696,100.176849 304.827850,95.471985 
	C306.407684,93.510338 306.943176,90.707573 307.979370,87.489517 
M622.619751,129.073166 
	C631.252319,133.923935 637.294556,132.866623 644.199829,125.296860 
	C648.343750,120.754158 648.131042,113.079185 643.676880,106.427879 
	C639.684082,100.465515 632.316040,97.209824 626.458679,99.422508 
	C619.790161,101.941658 613.397400,106.395317 615.252869,115.771866 
	C616.150635,120.309074 619.718018,124.318047 622.619751,129.073166 
M574.927368,167.539963 
	C568.357849,163.062927 561.878174,158.442978 555.152222,154.214752 
	C553.576904,153.224442 550.518188,152.657944 549.313843,153.524719 
	C547.943970,154.510696 547.001221,157.524796 547.408752,159.305923 
	C549.571716,168.759293 552.217041,178.102295 554.695190,187.483551 
	C555.107117,187.709534 555.519043,187.935516 555.930908,188.161499 
	C556.864258,186.293991 559.011353,183.985779 558.520935,182.635269 
	C556.401428,176.798218 560.158447,174.778793 563.851624,171.917664 
	C567.805298,168.854721 570.497192,170.698303 573.501404,172.976364 
	C574.003601,173.357208 574.625671,173.579895 575.256104,173.908890 
	C576.513428,172.937439 577.652954,172.057037 579.207581,170.855927 
	C577.732056,169.718719 576.607300,168.851852 574.927368,167.539963 
M215.477081,157.210098 
	C216.251282,157.500336 217.024109,157.794281 217.799911,158.080170 
	C221.709015,159.520782 225.383194,160.009918 227.356659,155.203217 
	C229.344009,150.362656 225.464935,148.519058 222.430069,146.859558 
	C217.074432,143.931030 211.438141,141.508224 205.878845,138.962128 
	C201.640213,137.020889 197.780823,137.904816 196.488388,141.395279 
	C195.035568,145.318863 196.831604,148.037231 200.505356,149.793137 
	C205.297485,152.083588 210.018051,154.523773 215.477081,157.210098 
M548.765686,439.819733 
	C552.368652,441.448761 555.892395,443.297089 559.600281,444.635529 
	C562.419067,445.653015 565.112427,445.229034 566.917664,442.220734 
	C568.742798,439.179352 568.142700,436.453003 565.322937,434.950043 
	C558.071045,431.084564 550.722290,427.316284 543.099060,424.301147 
	C541.519043,423.676239 537.624268,425.960663 536.592712,427.873138 
	C535.839355,429.269928 537.430115,432.933044 539.052063,434.377747 
	C541.580200,436.629578 545.021057,437.856720 548.765686,439.819733 
M195.067917,164.547226 
	C186.120071,170.768738 184.866791,174.750565 189.628220,183.385300 
	C197.064484,178.119888 204.512939,172.975311 211.804688,167.617432 
	C214.622543,165.546890 214.905991,162.527649 213.024307,159.667709 
	C211.093918,156.733749 208.260635,156.104782 205.220917,157.932175 
	C201.968506,159.887436 198.855301,162.074265 195.067917,164.547226 
M594.885986,138.357773 
	C594.590210,134.763763 593.032410,130.619125 594.302490,127.708351 
	C596.085815,123.621231 600.364441,121.940979 605.352905,123.483757 
	C606.562866,123.857956 608.306946,122.505234 609.805420,121.946571 
	C608.779480,120.893646 607.942993,119.337433 606.697266,118.868446 
	C597.745605,115.498459 587.900024,122.935616 587.998962,132.839539 
	C588.126343,145.591537 600.445312,154.401535 611.148621,149.395203 
	C618.843689,145.795944 621.814941,136.918961 616.256042,130.229492 
	C615.611450,132.552414 615.296387,134.153214 614.722473,135.655060 
	C613.669861,138.409271 613.185669,141.943451 611.184753,143.664688 
	C605.668945,148.409485 600.371460,146.567215 594.885986,138.357773 
M830.525391,245.884613 
	C835.702148,242.369858 840.930054,238.925919 846.003235,235.267471 
	C846.805786,234.688721 846.910278,233.141922 847.337585,232.042725 
	C846.030518,232.050308 844.435425,231.573914 843.466919,232.150375 
	C839.531494,234.492813 835.788269,237.158279 831.736633,239.863266 
	C826.531433,232.554901 821.390808,225.337219 816.028076,217.807739 
	C814.453308,218.909515 813.210022,219.779388 811.718445,220.822952 
	C817.993774,229.455292 823.911926,237.596237 830.525391,245.884613 
M185.839386,437.671936 
	C187.405746,439.795471 188.701614,442.229614 190.644119,443.921265 
	C191.737381,444.873291 193.897476,444.600281 195.576965,444.879150 
	C195.536072,443.278900 196.110641,441.263153 195.355759,440.144897 
	C189.903793,432.068695 184.287231,424.096008 178.451889,416.293152 
	C177.389328,414.872345 175.085220,414.380005 173.354248,413.459076 
	C173.382721,415.659119 172.595032,418.362457 173.585785,419.969116 
	C177.220795,425.863831 181.446793,431.394135 185.839386,437.671936 
M226.463394,140.085373 
	C227.348404,141.282623 228.010788,142.814346 229.176331,143.590118 
	C230.547745,144.502930 232.355469,144.760239 233.973984,145.301804 
	C234.045410,143.465073 234.892700,141.104233 234.063110,139.876144 
	C228.412354,131.510834 222.491150,123.321854 216.418289,115.255859 
	C215.626343,114.204002 213.468552,114.180496 211.943390,113.680672 
	C211.778000,115.379105 210.845032,117.576889 211.572189,118.694672 
	C216.176956,125.773010 221.149155,132.612320 226.463394,140.085373 
M550.290894,402.363129 
	C556.448425,411.329163 562.515442,420.360321 568.864380,429.188721 
	C569.780701,430.462921 572.051941,430.762695 573.696167,431.513428 
	C573.747681,429.582031 574.590576,427.133606 573.721619,425.803619 
	C568.309326,417.519897 562.580750,409.438629 556.809998,401.395660 
	C554.727722,398.493500 552.333130,398.032806 550.290894,402.363129 
M675.468689,338.100769 
	C673.392029,335.667145 671.315430,333.233521 669.273621,330.840759 
	C665.579895,333.266052 665.361084,335.282898 667.623901,338.261017 
	C671.421204,343.258850 674.661072,348.678101 678.399658,353.724365 
	C679.187927,354.788422 681.115417,355.008453 682.518066,355.617401 
	C682.931152,353.977600 683.776794,352.295990 683.623657,350.710846 
	C683.495728,349.386780 682.233765,348.152130 681.411804,346.919403 
	C679.579590,344.171631 677.708496,341.449799 675.468689,338.100769 
M329.283997,46.041912 
	C325.624756,46.428905 325.195801,48.625713 326.866333,51.209286 
	C330.440948,56.737705 334.176453,62.174755 338.130615,67.435318 
	C339.009521,68.604568 341.064789,68.889565 342.578430,69.581696 
	C342.907745,67.787819 344.145294,65.380775 343.416473,64.301247 
	C339.214783,58.077454 334.548096,52.167572 329.283997,46.041912 
M578.520935,164.016342 
	C579.305664,165.073349 579.884277,166.595642 580.931702,167.059708 
	C582.032776,167.547562 583.683655,167.279404 584.884155,166.807343 
	C585.332703,166.630981 585.667786,164.612747 585.241455,164.000534 
	C579.636658,155.951172 573.886353,148.003143 568.211426,140.084106 
	C563.958496,142.216919 565.001587,144.646591 566.792908,147.223557 
	C570.551208,152.630234 574.277649,158.059006 578.520935,164.016342 
M155.476364,440.892426 
	C157.556732,436.288025 155.925659,432.078827 151.723053,432.168304 
	C149.554886,432.214447 146.006409,433.456085 145.598816,434.878754 
	C144.968384,437.079163 145.771118,440.493866 147.273407,442.315552 
	C149.596893,445.133118 152.621552,443.835175 155.476364,440.892426 
M194.966187,135.812347 
	C194.174408,131.784012 191.010193,131.434021 188.095032,132.202057 
	C186.492722,132.624207 184.581833,134.639206 184.171631,136.277039 
	C183.150452,140.354111 185.472153,143.517441 189.354187,143.529480 
	C193.681717,143.542923 195.376556,140.789154 194.966187,135.812347 
M524.031006,421.840210 
	C523.903809,425.077728 523.667603,428.782318 528.131531,428.807953 
	C530.353333,428.820740 533.994019,427.472870 534.471436,425.950012 
	C535.130249,423.848816 534.174988,419.803925 532.527100,418.744690 
	C529.871338,417.037598 526.055176,416.985138 524.031006,421.840210 
M325.801208,38.633354 
	C324.303925,38.503738 322.305054,37.740704 321.447906,38.419460 
	C320.558929,39.123417 320.399658,41.301804 320.684784,42.677044 
	C320.807465,43.268833 323.577911,44.087257 323.893982,43.721443 
	C324.941101,42.509521 325.418732,40.805500 325.801208,38.633354 
M662.718933,323.234222 
	C662.007019,325.104065 661.295105,326.973907 660.583191,328.843811 
	C662.181824,328.821228 664.396118,329.461945 665.266235,328.654388 
	C668.123596,326.002350 666.234619,324.271271 662.718933,323.234222 
M589.061096,158.355606 
	C590.388550,159.183655 591.680969,160.545670 593.056885,160.636185 
	C593.860962,160.689072 595.127869,158.818695 595.527954,157.597733 
	C595.709778,157.042953 594.060242,155.148987 593.644470,155.268188 
	C592.030884,155.730804 590.579102,156.758102 589.061096,158.355606 
z"/>
<path fill="#F0F0F0" opacity="1.000000" stroke="none" 
	d="
M512.460632,458.000000 
	C510.738281,445.405884 509.405640,432.818085 508.277435,420.212036 
	C508.063049,417.816528 508.658295,415.348633 509.384155,412.460327 
	C512.931763,412.047607 515.975281,412.088715 519.018738,412.129791 
	C520.345642,422.533386 521.745422,432.928467 522.965759,443.344543 
	C523.500427,447.907684 523.668701,452.513763 524.001648,457.550171 
	C520.307068,458.000000 516.614197,458.000000 512.460632,458.000000 
z"/>
<path fill="#F1F1F1" opacity="1.000000" stroke="none" 
	d="
M871.000000,216.541931 
	C869.207764,218.627777 867.386597,220.225021 865.628540,221.888885 
	C859.861206,227.347305 852.821533,228.576279 847.563477,225.008316 
	C839.507996,219.542068 836.096680,211.113052 838.943848,203.710022 
	C841.444397,197.208054 849.675537,192.104492 856.810120,194.318939 
	C860.999878,195.619354 864.294434,199.881378 867.907166,202.912033 
	C868.870117,203.719803 869.521729,204.898666 870.658081,205.953583 
	C871.000000,209.361282 871.000000,212.722580 871.000000,216.541931 
M864.633972,208.373886 
	C863.970398,207.041336 863.506958,205.551376 862.605896,204.405472 
	C859.783752,200.816299 856.556763,197.666733 851.423157,198.783585 
	C845.697388,200.029266 842.656433,203.988098 843.005310,209.329315 
	C843.369263,214.901291 849.477844,221.608276 854.536926,221.990524 
	C861.473572,222.514603 865.208801,217.878036 864.633972,208.373886 
z"/>
<path fill="#F0F0F0" opacity="1.000000" stroke="none" 
	d="
M132.460632,458.000000 
	C131.050964,449.636047 130.074799,441.275024 129.165466,432.906738 
	C128.768661,429.255096 129.755661,426.163635 133.661453,425.103271 
	C137.315857,424.111115 140.423553,426.375305 140.963730,430.545166 
	C142.109192,439.386963 143.003281,448.261322 144.000214,457.561157 
	C140.307098,458.000000 136.614182,458.000000 132.460632,458.000000 
z"/>
<path fill="#F0F0F0" opacity="1.000000" stroke="none" 
	d="
M176.460632,458.000000 
	C174.085968,456.647827 172.260086,455.142578 170.237946,453.978180 
	C166.938828,452.078430 163.351425,450.643616 160.188629,448.554047 
	C157.596390,446.841492 155.665085,444.282196 157.748184,440.945892 
	C159.719437,437.788696 162.735245,437.178253 166.026871,438.582275 
	C170.283798,440.398041 174.452301,442.422333 178.647034,444.382141 
	C180.287231,445.148468 181.903442,445.967560 183.516479,446.790283 
	C188.505066,449.334656 189.631927,451.924225 188.041779,457.616882 
	C184.307098,458.000000 180.614182,458.000000 176.460632,458.000000 
z"/>
<path fill="#F1F1F1" opacity="1.000000" stroke="none" 
	d="
M1.000000,263.416656 
	C6.046318,259.831696 8.690954,262.357574 11.322330,266.723633 
	C14.724079,272.367920 18.701658,277.680756 22.647079,282.975525 
	C24.792994,285.855347 23.730171,287.386261 20.654879,289.012787 
	C17.062960,284.190613 13.489513,279.393188 9.916066,274.595795 
	C9.539073,274.721649 9.162079,274.847534 8.785086,274.973389 
	C9.764569,279.828156 10.897979,284.659271 11.649632,289.549042 
	C11.960959,291.574371 12.242322,294.379150 11.158395,295.684082 
	C8.843595,298.470917 6.449347,295.864380 4.246519,294.569580 
	C3.399509,294.071716 2.553781,293.571625 1.353733,293.036285 
	C1.000000,291.611115 1.000000,290.222198 1.370177,288.418213 
	C3.324672,288.524200 4.908992,289.045288 6.998928,289.732666 
	C5.537265,282.518250 4.239659,275.923340 2.801979,269.359131 
	C2.679798,268.801270 1.622750,268.448212 1.000001,268.000000 
	C1.000000,266.611115 1.000000,265.222198 1.000000,263.416656 
z"/>
<path fill="#F0F0F0" opacity="1.000000" stroke="none" 
	d="
M527.468506,458.000000 
	C527.769531,456.800446 528.278198,455.239746 529.353271,454.463135 
	C534.278931,450.904877 539.346924,447.541748 544.396301,444.157104 
	C547.718445,441.930267 550.854431,442.494476 552.994446,445.688812 
	C554.972595,448.641510 554.606445,451.576477 551.385681,453.854187 
	C550.106812,454.758575 549.162231,456.135529 548.032715,457.648682 
	C541.312378,458.000000 534.624695,458.000000 527.468506,458.000000 
z"/>
<path fill="#F1F1F1" opacity="1.000000" stroke="none" 
	d="
M17.583334,1.000000 
	C17.519932,8.253775 10.445284,14.801941 1.397494,15.999534 
	C1.000000,14.611111 1.000000,13.222222 1.390157,11.417077 
	C8.237848,10.046559 11.779156,6.889967 13.000000,1.000000 
	C14.388889,1.000000 15.777779,1.000000 17.583334,1.000000 
z"/>
<path fill="#FFFFFF" opacity="1.000000" stroke="none" 
	d="
M12.520824,1.000000 
	C11.779156,6.889967 8.237848,10.046559 1.390157,11.000410 
	C1.000000,7.737728 1.000000,4.475457 1.000000,1.000000 
	C4.678945,1.000000 8.360297,1.000000 12.520824,1.000000 
z"/>
<path fill="#FFFFFF" opacity="1.000000" stroke="none" 
	d="
M1.000001,268.468384 
	C1.622750,268.448212 2.679798,268.801270 2.801979,269.359131 
	C4.239659,275.923340 5.537265,282.518250 6.998928,289.732666 
	C4.908992,289.045288 3.324672,288.524200 1.370177,288.001556 
	C1.000000,281.645599 1.000000,275.291199 1.000001,268.468384 
z"/>
<path fill="#F1F1F1" opacity="1.000000" stroke="none" 
	d="
M871.000000,198.531723 
	C864.913086,194.675827 864.538452,184.938370 870.635986,180.038696 
	C871.000000,186.021149 871.000000,192.042297 871.000000,198.531723 
z"/>
<path fill="#AC7385" opacity="1.000000" stroke="none" 
	d="
M519.433228,412.027161 
	C515.975281,412.088715 512.931763,412.047607 509.435364,412.063477 
	C481.226440,412.120453 453.470398,412.120453 425.276642,412.120453 
	C425.276642,381.215424 425.276642,350.980103 425.276642,320.373108 
	C403.313049,320.373108 381.788422,320.373108 359.772217,320.373108 
	C359.772217,350.749603 359.772217,380.972656 359.772217,411.580505 
	C327.759888,411.580505 296.233368,411.580505 263.811279,411.580505 
	C263.811279,407.793335 263.811279,403.886597 263.831177,399.185547 
	C263.917969,397.926636 263.984894,397.462036 264.412079,396.953033 
	C269.743774,392.732666 269.458069,387.257690 268.034241,381.041199 
	C271.034546,382.325104 273.371246,383.418091 275.775391,384.334106 
	C280.517883,386.141022 286.103241,384.094482 289.041260,380.131866 
	C290.341736,378.377838 292.823486,377.531677 294.278442,375.849152 
	C295.303741,374.663513 296.118469,372.674561 295.907227,371.205261 
	C295.668091,369.542297 294.270630,367.992859 293.214294,366.509888 
	C289.428650,361.195282 285.574280,355.929657 282.013031,351.014221 
	C275.392395,355.434662 269.725861,359.218048 264.059357,363.001465 
	C264.000732,332.602905 263.942108,302.204376 264.001495,270.963806 
	C267.155762,266.022827 266.679382,261.970673 263.957275,257.948456 
	C261.664764,245.431961 266.453217,237.251144 276.796326,229.292816 
	C314.381134,200.373795 351.031708,170.240677 388.041229,140.573700 
	C389.452606,139.442322 390.932678,138.396652 392.675018,137.090424 
	C421.855652,160.570297 450.889130,183.931763 479.634155,207.622681 
	C477.684418,207.968704 476.021515,207.943268 474.362213,208.008575 
	C463.011230,208.455261 456.239716,219.155609 460.752655,229.470764 
	C461.545349,231.282486 462.252350,233.131668 462.599731,234.951172 
	C461.074402,234.644531 459.953949,234.119141 458.821228,234.091110 
	C444.344971,233.732864 429.867371,233.417007 415.388336,233.217621 
	C414.580688,233.206482 413.757721,234.307312 412.941895,234.890579 
	C413.740082,235.546844 414.475677,236.662140 415.347076,236.780899 
	C419.387085,237.331421 421.934479,239.298019 421.952911,243.516251 
	C422.027954,260.680847 422.025818,277.846039 421.971954,295.010742 
	C421.959930,298.846008 419.841736,301.075714 416.097046,302.011078 
	C414.940399,302.299988 413.974091,303.350922 412.920624,304.052979 
	C414.139160,304.579102 415.352570,305.547699 416.577057,305.561890 
	C427.074768,305.683624 437.579010,305.814697 448.071686,305.555176 
	C453.188446,305.428619 458.439423,305.061646 463.353973,303.761505 
	C470.630280,301.836578 475.552948,296.901459 476.812683,289.229187 
	C478.056061,281.656769 474.799561,275.869476 468.488770,271.880280 
	C465.636993,270.077606 462.407562,268.872437 459.309875,267.377075 
	C473.303986,257.707489 475.248260,253.138000 471.002960,241.100830 
	C483.763519,240.820679 490.211426,236.605667 491.341827,226.834564 
	C491.784729,223.006409 489.865448,218.904968 489.021973,214.927994 
	C489.785583,215.372864 490.549164,215.817719 491.771484,216.657211 
	C493.506439,218.005264 494.782715,218.958710 496.058990,219.912155 
	C502.863953,225.480225 509.509613,231.261093 516.542114,236.525208 
	C519.979065,239.097946 521.564636,241.823013 521.065186,246.092804 
	C520.720154,249.042252 520.999268,252.064682 520.619263,255.582825 
	C512.813904,256.371033 509.483429,262.255829 505.085876,268.025391 
	C505.085876,264.520599 505.338348,262.020935 504.974854,259.614227 
	C504.803894,258.482086 503.282288,256.542725 502.655640,256.648315 
	C496.949127,257.609833 491.295471,258.901794 485.661957,260.246063 
	C485.239014,260.347015 485.089630,261.594360 484.793060,262.360474 
	C492.458862,263.734100 492.460022,263.734100 492.462341,271.783905 
	C492.464203,278.105377 492.322144,284.430939 492.504456,290.747131 
	C492.667175,296.384918 492.870270,301.841003 485.718781,303.527161 
	C485.596527,303.556030 485.602386,304.128143 485.449158,305.033142 
	C494.370056,305.033142 503.181213,305.033142 512.974670,305.033142 
	C511.765350,303.648804 511.307953,302.641479 510.794647,302.612091 
	C505.349426,302.300507 505.106567,298.479340 505.105957,294.447235 
	C505.105225,289.456604 505.083893,284.465851 505.109131,279.475342 
	C505.156494,270.117004 512.544189,265.603363 521.010437,269.742401 
	C521.006592,315.330231 521.015930,360.918091 520.950195,406.505829 
	C520.947571,408.312592 520.231384,410.118347 519.433228,412.027161 
M292.939941,306.482910 
	C296.929504,304.607239 300.919037,302.731537 304.625793,300.988800 
	C305.306763,302.427124 306.479797,305.892029 306.973419,305.797821 
	C313.306030,304.588989 319.541565,302.871490 325.801697,301.282959 
	C325.715302,300.979767 325.628937,300.676605 325.534241,300.375793 
	C318.059753,299.778229 318.055908,299.778229 318.052765,291.977631 
	C318.048706,281.811462 318.114685,271.644470 317.978271,261.480133 
	C317.959381,260.073334 317.018036,257.497498 316.396545,257.464203 
	C310.594513,257.153503 304.769073,257.280121 298.868744,257.280121 
	C299.048706,258.672272 299.018616,259.030609 299.153107,259.309631 
	C299.281860,259.576752 299.565186,259.933807 299.808624,259.957031 
	C305.097626,260.461212 305.414490,264.179810 305.358154,268.286896 
	C305.257568,275.618835 305.321808,282.952972 305.224915,290.285004 
	C305.165283,294.795898 300.749023,298.703857 295.516907,299.045837 
	C290.731018,299.358643 288.060974,297.053772 287.743866,291.440186 
	C287.368469,284.793854 287.511749,278.117310 287.464844,271.453644 
	C287.432373,266.844940 287.458588,262.235840 287.458588,257.077515 
	C280.428375,257.558746 274.186798,256.160156 267.617615,258.725372 
	C276.411926,260.550262 274.787445,267.044495 274.855225,272.673828 
	C274.919434,278.006134 274.851379,283.339874 274.873016,288.672882 
	C274.925568,301.630798 279.007965,305.858215 292.939941,306.482910 
M348.083435,256.375854 
	C345.673401,257.005615 343.175995,257.411407 340.871216,258.310852 
	C335.765167,260.303467 332.030487,263.742615 331.215118,269.431549 
	C330.356110,275.425079 333.395752,279.670868 338.053040,282.902618 
	C340.508789,284.606720 343.202118,285.964478 345.738586,287.557495 
	C347.708435,288.794617 350.237701,289.755341 351.368225,291.559570 
	C352.791351,293.830811 354.123901,297.099213 353.548004,299.462830 
	C352.678467,303.031799 348.772430,302.944946 345.950256,301.910767 
	C343.253571,300.922638 340.609161,299.180695 338.582336,297.135376 
	C336.215973,294.747467 334.543854,291.671570 332.526184,288.831757 
	C329.311829,292.507294 329.988037,301.221802 333.754333,303.046600 
	C342.903534,307.479462 352.337860,308.429138 361.464905,303.070831 
	C369.351959,298.440582 370.288818,289.664032 363.614624,283.363861 
	C360.990509,280.886810 357.665344,279.152283 354.658844,277.080505 
	C351.924622,275.196350 349.026367,273.507050 346.499847,271.376740 
	C343.858765,269.149841 342.701599,266.057892 344.718964,262.914093 
	C346.927582,259.472229 350.519775,259.434662 353.554169,261.337524 
	C356.135101,262.955963 358.106049,265.567810 360.281738,267.803497 
	C361.450806,269.004700 362.482849,270.339203 363.789246,271.861176 
	C367.290161,264.385895 365.018860,258.585388 358.339935,257.083984 
	C355.300293,256.400665 352.080170,256.520050 348.083435,256.375854 
M384.311249,252.826370 
	C383.272675,253.650131 382.309540,254.601028 381.179810,255.271133 
	C378.848877,256.653717 374.875458,257.431946 374.338654,259.266632 
	C372.757843,264.669281 377.946472,262.055573 380.140991,263.115784 
	C380.277191,263.181580 380.382935,263.310455 380.946960,263.778656 
	C380.946960,267.200073 380.863159,271.004089 380.965363,274.803101 
	C381.148560,281.613464 381.040771,288.467102 381.815704,295.215271 
	C382.471222,300.923645 385.859467,305.054260 391.863312,306.211975 
	C397.957245,307.387054 403.082428,305.208923 407.069031,300.734039 
	C408.203278,299.460815 408.163361,297.141541 408.661926,295.301971 
	C405.824799,296.032013 404.471527,297.285461 402.915833,298.191223 
	C398.322083,300.865784 394.234589,299.083435 394.043213,293.802795 
	C393.677063,283.701263 393.936798,273.577118 393.936798,262.878296 
	C396.800415,262.878296 399.416199,262.885193 402.031921,262.876587 
	C405.594391,262.864929 407.159698,261.217529 406.404388,257.037292 
	C402.245758,257.037292 398.163116,257.037292 394.281677,257.037292 
	C392.507263,251.456772 395.330048,245.755569 391.820282,240.011780 
	C389.155396,244.664886 386.975616,248.470932 384.311249,252.826370 
z"/>
<path fill="#AB7385" opacity="1.000000" stroke="none" 
	d="
M394.152252,79.665695 
	C411.757324,93.856354 429.394653,108.007217 446.959412,122.247635 
	C469.569427,140.578384 492.121246,158.980911 514.853882,178.095642 
	C515.006531,180.332825 514.965149,181.827988 515.006348,183.320862 
	C515.396423,197.472946 528.442993,205.370514 541.179443,199.048950 
	C541.599915,199.094727 541.768250,199.112152 541.936584,199.129578 
	C550.406494,203.871414 552.190002,211.320251 551.132935,220.358719 
	C550.523193,225.573029 551.019043,230.916641 550.654053,236.452087 
	C545.969910,231.620117 541.835022,232.018448 536.091675,238.070007 
	C528.221497,231.877884 520.351257,225.685745 512.595886,219.067352 
	C514.958191,216.439957 517.581604,214.496216 519.325012,211.949951 
	C520.548157,210.163391 521.637512,207.093414 520.908203,205.410736 
	C519.405701,201.944046 516.645752,199.022324 514.414124,195.891541 
	C503.872437,203.455948 503.872437,203.455948 506.087555,206.750992 
	C508.144348,205.525421 510.212128,204.293320 512.177551,203.122177 
	C517.125549,207.375320 517.115051,209.100479 512.451904,213.023361 
	C511.217407,214.061920 510.068878,215.202774 508.599274,216.149353 
	C507.575134,215.623962 506.832611,215.245880 506.052765,214.493103 
	C502.041260,211.059723 498.067078,208.001053 493.929260,204.653702 
	C491.838348,202.922211 489.911072,201.479416 487.983826,200.036621 
	C464.417633,180.746704 440.857727,161.449112 417.281860,142.171036 
	C409.166840,135.535385 401.012054,128.948425 392.501099,122.035156 
	C339.880829,164.719559 287.418030,207.276245 234.388199,250.292877 
	C234.166031,248.586029 233.916214,247.550095 233.913849,246.513596 
	C233.886383,234.518082 233.752792,222.519150 234.031403,210.530060 
	C234.080368,208.423203 235.355453,205.691437 236.977875,204.369354 
	C287.984009,162.805054 339.103424,121.379753 390.714020,80.108772 
	C392.199066,80.078087 393.175659,79.871887 394.152252,79.665695 
z"/>
<path fill="#0B0B0B" opacity="1.000000" stroke="none" 
	d="
M649.938538,268.962677 
	C648.036865,271.066589 646.374390,272.902405 644.246338,275.252380 
	C653.126831,284.658173 655.966125,298.713989 669.657593,304.067169 
	C669.389893,304.554779 669.122131,305.042389 668.854431,305.529999 
	C662.961121,305.529999 657.061279,305.672699 651.180359,305.402313 
	C650.083740,305.351898 648.826294,303.805542 648.049316,302.671265 
	C644.949097,298.145477 642.202026,293.365753 638.923706,288.979370 
	C637.425293,286.974518 634.997192,285.664459 632.362061,284.618286 
	C633.822388,291.526154 626.737671,301.084137 639.202454,303.515869 
	C636.462524,305.884857 617.861938,306.459625 611.955872,304.569458 
	C612.254761,303.996979 612.470886,303.046234 612.819885,302.994720 
	C618.822144,302.108276 619.186279,297.942413 619.142029,293.054993 
	C618.992554,276.561005 619.085693,260.064789 619.086060,243.569443 
	C619.086243,235.445755 619.086243,235.445755 609.841431,234.428543 
	C612.226990,232.903992 613.394287,231.725342 614.777100,231.357986 
	C618.461182,230.379333 622.274292,229.891846 625.968323,228.944595 
	C630.289856,227.836441 632.041138,229.001160 631.957947,233.759338 
	C631.724915,247.084854 631.877075,260.417084 631.877197,273.746674 
	C631.877197,275.369537 631.877197,276.992401 631.877197,279.743591 
	C640.214050,275.234161 644.009644,267.889893 649.507507,262.068817 
	C646.364014,260.818939 644.085266,259.912842 641.806458,259.006775 
	C641.979309,258.497589 642.152100,257.988373 642.324890,257.479187 
	C649.525757,257.479187 656.726624,257.479187 664.433472,257.479187 
	C659.467957,261.385742 654.822815,265.040161 649.938538,268.962677 
z"/>
<path fill="#0D0D0D" opacity="1.000000" stroke="none" 
	d="
M184.000565,233.130936 
	C197.155029,233.131012 209.811752,233.256409 222.462921,233.047241 
	C225.828156,232.991608 227.414383,234.242096 227.872910,237.318970 
	C228.338440,240.442612 228.905167,243.573273 229.026825,246.716385 
	C229.084549,248.207611 228.209595,249.734924 227.757156,251.245880 
	C227.273743,251.252655 226.790314,251.259415 226.306885,251.266174 
	C225.140213,249.171982 224.050522,247.030273 222.792480,244.992493 
	C218.997696,238.845627 213.523788,236.627731 206.542313,238.252075 
	C203.568130,238.944077 201.910049,240.592804 201.915375,243.792877 
	C201.943939,260.942963 201.940323,278.093140 201.936325,295.243286 
	C201.935379,299.316620 204.237717,301.120850 207.976151,301.914886 
	C209.084579,302.150299 209.976669,303.404388 210.967880,304.191681 
	C209.867493,304.646301 208.772186,305.480408 207.665939,305.495148 
	C199.341995,305.606140 191.014755,305.623474 182.691803,305.480042 
	C181.500183,305.459503 180.326141,304.418488 179.143967,303.849731 
	C180.123352,303.223328 181.041122,302.205048 182.093002,302.039673 
	C186.232162,301.388855 188.290512,299.046936 188.300354,294.957153 
	C188.340805,278.140594 188.458099,261.322388 188.266708,244.507996 
	C188.193176,238.046921 179.530624,235.111115 172.815506,239.640076 
	C169.833237,241.651413 168.027451,245.378235 165.591919,248.245041 
	C164.757584,249.227127 163.631546,249.961395 162.638779,250.808868 
	C162.090118,249.527573 161.535461,248.248779 161.001328,246.961456 
	C160.943192,246.821335 161.005051,246.632187 161.008362,246.465729 
	C161.247925,234.354080 162.486267,233.130936 174.509338,233.130936 
	C177.506470,233.130936 180.503601,233.130936 184.000565,233.130936 
z"/>
<path fill="#080808" opacity="1.000000" stroke="none" 
	d="
M575.917542,280.593414 
	C577.155029,288.277771 580.036255,294.406952 587.294861,297.413635 
	C594.127380,300.243805 599.032104,298.110260 604.755249,289.926514 
	C608.331543,291.098358 607.407349,293.303894 606.160278,295.696075 
	C602.357849,302.990295 593.572571,307.306854 584.192993,306.429169 
	C574.740906,305.544678 567.343689,299.770050 564.586670,291.123657 
	C559.153015,274.083252 569.180725,257.850861 586.109070,256.284180 
	C594.497803,255.507858 602.663147,259.516235 606.124756,266.654114 
	C607.081421,268.626617 607.393616,271.593353 606.574463,273.486420 
	C606.092834,274.599518 602.530457,275.306061 600.842957,274.739136 
	C598.676086,274.011292 596.708069,272.054657 595.212219,270.181854 
	C594.152893,268.855560 594.235413,266.682037 593.431641,265.075134 
	C590.546936,259.308685 584.048218,258.611664 580.020813,263.623169 
	C576.124878,268.471100 575.553650,274.215820 575.917542,280.593414 
z"/>
<path fill="#0A0A0A" opacity="1.000000" stroke="none" 
	d="
M263.599365,257.873108 
	C266.679382,261.970673 267.155762,266.022827 264.037659,270.486938 
	C262.286835,270.259308 260.588043,269.738586 258.954071,269.061401 
	C251.102844,265.807556 243.948715,270.480225 243.895111,278.946686 
	C243.868759,283.106750 243.889236,287.267059 243.889862,291.427277 
	C243.891174,300.140259 243.891541,300.140259 250.850510,303.714081 
	C248.554062,305.977203 228.852356,306.489990 224.011139,304.373474 
	C224.177582,303.931152 224.296936,303.120667 224.520767,303.090759 
	C231.536591,302.151581 231.234894,297.045563 231.131943,291.869415 
	C230.999634,285.215698 231.100174,278.557373 231.099854,271.901031 
	C231.099457,263.617645 231.099228,263.617645 223.176437,262.515564 
	C223.354462,261.876862 223.415070,260.789154 223.712723,260.719879 
	C229.774002,259.309082 235.849823,257.945038 241.971497,256.842346 
	C242.416000,256.762268 243.650848,258.696625 243.789673,259.787109 
	C244.077972,262.051758 243.876724,264.378693 243.876724,267.542236 
	C249.329773,261.217529 253.188995,252.838364 263.599365,257.873108 
z"/>
<path fill="#060404" opacity="1.000000" stroke="none" 
	d="
M521.374756,269.785004 
	C512.544189,265.603363 505.156494,270.117004 505.109131,279.475342 
	C505.083893,284.465851 505.105225,289.456604 505.105957,294.447235 
	C505.106567,298.479340 505.349426,302.300507 510.794647,302.612091 
	C511.307953,302.641479 511.765350,303.648804 512.974670,305.033142 
	C503.181213,305.033142 494.370056,305.033142 485.449158,305.033142 
	C485.602386,304.128143 485.596527,303.556030 485.718781,303.527161 
	C492.870270,301.841003 492.667175,296.384918 492.504456,290.747131 
	C492.322144,284.430939 492.464203,278.105377 492.462341,271.783905 
	C492.460022,263.734100 492.458862,263.734100 484.793060,262.360474 
	C485.089630,261.594360 485.239014,260.347015 485.661957,260.246063 
	C491.295471,258.901794 496.949127,257.609833 502.655640,256.648315 
	C503.282288,256.542725 504.803894,258.482086 504.974854,259.614227 
	C505.338348,262.020935 505.085876,264.520599 505.085876,268.025391 
	C509.483429,262.255829 512.813904,256.371033 520.620605,256.048828 
	C527.310059,259.146729 529.150879,263.730286 526.352844,268.767365 
	C525.082275,271.054535 523.693665,271.283478 521.374756,269.785004 
z"/>
<path fill="#A76E80" opacity="1.000000" stroke="none" 
	d="
M263.985992,363.456879 
	C269.725861,359.218048 275.392395,355.434662 282.013031,351.014221 
	C285.574280,355.929657 289.428650,361.195282 293.214294,366.509888 
	C294.270630,367.992859 295.668091,369.542297 295.907227,371.205261 
	C296.118469,372.674561 295.303741,374.663513 294.278442,375.849152 
	C292.823486,377.531677 290.341736,378.377838 289.041260,380.131866 
	C286.103241,384.094482 280.517883,386.141022 275.775391,384.334106 
	C273.371246,383.418091 271.034546,382.325104 268.034241,381.041199 
	C269.458069,387.257690 269.743774,392.732666 264.349426,396.513916 
	C263.806580,394.065033 263.686646,392.010895 263.647614,389.569977 
	C263.674591,388.136047 263.620667,387.088837 263.681091,385.593689 
	C263.761658,381.744965 263.727936,378.344238 263.694214,374.943512 
	C263.766998,371.266449 263.839813,367.589386 263.985992,363.456879 
z"/>
<path fill="#0D0D0D" opacity="1.000000" stroke="none" 
	d="
M536.197632,301.165619 
	C536.985107,298.644623 537.859802,296.424561 537.907043,294.187012 
	C538.079346,286.030304 537.980774,277.867767 537.973572,269.707428 
	C537.967102,262.375519 537.535583,261.976349 529.102905,262.748535 
	C530.631897,261.030273 531.362854,259.413544 532.439209,259.135986 
	C537.257263,257.893524 542.153503,256.914886 547.061462,256.073700 
	C550.572693,255.471878 550.698669,258.050598 550.700073,260.522583 
	C550.705505,270.348297 550.644470,280.174500 550.726196,289.999542 
	C550.773438,295.681152 548.676392,302.540985 558.218933,303.354858 
	C555.095276,305.927856 536.163818,306.426697 529.738220,304.096161 
	C532.392883,302.960754 534.149048,302.209625 536.197632,301.165619 
z"/>
<path fill="#F0F0F0" opacity="1.000000" stroke="none" 
	d="
M184.126251,171.683411 
	C184.458572,176.098007 185.264557,180.131180 184.740479,183.983383 
	C184.490356,185.821854 181.695999,188.651733 180.085938,188.630386 
	C178.055496,188.603439 174.866150,186.494446 174.282761,184.626099 
	C172.875504,180.119263 172.582016,175.242661 172.038574,170.492386 
	C170.649063,158.346024 169.381378,146.185760 168.037613,134.034088 
	C167.480133,128.992859 169.255066,125.625336 172.870346,125.027626 
	C177.029831,124.339943 179.175751,126.521660 180.073868,132.267319 
	C180.226471,133.243622 180.745743,134.172607 180.834991,135.147308 
	C181.936050,147.171524 182.988647,159.200165 184.126251,171.683411 
z"/>
<path fill="#F1F1F1" opacity="1.000000" stroke="none" 
	d="
M216.004272,413.006104 
	C215.577087,409.153564 214.776016,405.296875 214.818878,401.449554 
	C214.870590,396.809021 218.131119,393.940857 221.985733,392.108948 
	C224.829269,390.757568 228.194580,390.528320 229.777954,387.054779 
	C229.944183,386.690125 233.482376,386.951935 234.154938,387.873108 
	C239.417953,395.081726 244.747635,402.296021 249.268112,409.972931 
	C252.182526,414.922363 248.173065,422.667236 241.827332,426.033752 
	C239.933243,427.038605 237.909637,428.157684 235.854843,428.377289 
	C234.445114,428.527954 232.878998,427.215088 231.382782,426.556458 
	C232.099442,425.292267 232.511536,423.555664 233.593506,422.858215 
	C236.182037,421.189545 239.328506,420.344116 241.801071,418.548553 
	C244.889404,416.305725 244.711441,413.341888 242.411453,410.481598 
	C240.151947,412.984528 238.366425,415.758881 235.875412,417.554565 
	C230.821823,421.197571 225.631104,420.550934 220.915024,416.429413 
	C219.560791,415.245850 218.102463,414.181427 216.345932,413.031189 
	C216.000000,413.000000 216.004272,413.006104 216.004272,413.006104 
M220.998703,404.400879 
	C221.005157,404.897308 220.913345,405.418915 221.033249,405.886230 
	C222.269485,410.704102 226.916458,413.804260 231.864807,412.956543 
	C236.507477,412.161224 237.285477,408.780701 237.003647,404.788025 
	C236.678635,400.183441 232.639511,396.004761 228.485123,396.013153 
	C224.518738,396.021179 221.582809,398.991211 220.998703,404.400879 
z"/>
<path fill="#F1F1F1" opacity="1.000000" stroke="none" 
	d="
M595.004395,399.006104 
	C594.581238,394.822601 593.625488,390.606689 593.877502,386.464264 
	C594.156189,381.884796 597.585388,379.149200 601.761536,377.705505 
	C604.310913,376.824188 607.416809,376.916809 607.630493,373.135071 
	C609.486755,373.350922 612.264343,372.864838 613.050110,373.896271 
	C618.267151,380.744385 623.264954,387.784821 627.906982,395.036102 
	C630.572266,399.199493 629.294434,403.895264 626.118530,406.980774 
	C623.041382,409.970306 618.854309,411.945282 614.893921,413.812500 
	C613.836243,414.311188 611.823425,412.784180 610.249146,412.187134 
	C611.282715,410.911530 612.093018,409.291992 613.402771,408.441864 
	C615.321838,407.196136 617.770569,406.765106 619.686218,405.515625 
	C623.413757,403.084290 623.662415,399.825867 620.684937,396.662354 
	C619.272766,398.460754 618.028259,400.428650 616.415955,402.025024 
	C611.578613,406.814545 605.017151,406.887634 599.918457,402.432159 
	C598.562988,401.247711 597.103455,400.182404 595.345886,399.031189 
	C595.000000,399.000000 595.004395,399.006104 595.004395,399.006104 
M615.591064,394.632294 
	C615.712219,392.993500 616.512024,390.943756 615.818481,389.798309 
	C614.192627,387.113403 612.258362,384.102631 609.654114,382.706757 
	C607.978027,381.808441 604.480896,382.923462 602.525574,384.225647 
	C598.735229,386.749847 599.039124,393.232849 602.629395,396.950226 
	C605.803406,400.236572 610.955933,399.553589 615.591064,394.632294 
z"/>
<path fill="#F1F1F1" opacity="1.000000" stroke="none" 
	d="
M255.004578,112.004776 
	C253.417068,106.934433 251.309891,101.753143 255.485474,96.987747 
	C257.272064,94.948799 259.425415,92.994804 261.808929,91.782295 
	C264.152374,90.590157 267.417725,90.931801 267.623474,87.145531 
	C269.477020,87.352325 272.246307,86.854805 273.035187,87.880470 
	C278.072662,94.430046 282.934174,101.151062 287.338440,108.140289 
	C290.952423,113.875374 287.662628,122.619690 281.157776,125.790359 
	C279.234070,126.728020 277.185272,127.761116 275.122009,127.945091 
	C273.568298,128.083633 271.899994,126.936684 270.282684,126.361938 
	C271.242981,125.056854 271.953735,123.374779 273.222137,122.535080 
	C275.122803,121.276817 277.567657,120.853981 279.508270,119.639801 
	C283.252655,117.297043 283.646454,114.077507 280.736511,110.541061 
	C279.237000,112.669968 278.150482,115.218300 276.243073,116.732414 
	C270.463409,121.320312 264.296692,120.656960 258.852356,115.365532 
	C257.781677,114.324921 256.683289,113.312836 255.298843,112.143799 
	C255.000000,112.000000 255.004578,112.004776 255.004578,112.004776 
M275.278564,101.633415 
	C271.829376,96.505959 268.656067,94.991615 264.797028,96.631493 
	C260.547607,98.437263 258.818573,102.530968 260.271545,107.346230 
	C261.312714,110.796799 266.186035,114.218979 269.377380,113.740631 
	C273.803680,113.077148 276.066223,110.034836 275.981079,104.783218 
	C275.967865,103.969467 275.749817,103.159042 275.278564,101.633415 
z"/>
<path fill="#F1F1F1" opacity="1.000000" stroke="none" 
	d="
M642.644897,96.366623 
	C641.348633,94.428513 640.245972,92.793884 638.866333,90.748596 
	C640.527649,89.494446 642.051514,88.344048 643.636963,87.147171 
	C651.148682,91.734329 658.573486,96.268410 667.012329,101.421730 
	C665.752808,95.068680 664.703979,89.704727 663.620789,84.347702 
	C663.130066,81.920723 662.090698,79.482681 662.213867,77.096832 
	C662.294800,75.528854 663.755981,73.706062 665.116577,72.691376 
	C665.657959,72.287689 668.071960,73.407654 668.820068,74.429482 
	C673.613586,80.977074 678.078796,87.764931 682.869019,94.315056 
	C685.020386,97.256912 683.061157,98.340462 680.874146,100.409988 
	C676.662537,94.544327 672.712158,89.042473 668.761780,83.540619 
	C668.566833,83.651253 668.371887,83.761887 668.176941,83.872520 
	C669.255127,89.168190 670.584290,94.430428 671.296326,99.774879 
	C671.610535,102.133385 670.672302,104.658760 670.302673,107.108383 
	C668.080505,106.441139 665.655823,106.136665 663.677490,105.032555 
	C659.306763,102.593353 655.160645,99.751640 650.128235,97.926071 
	C653.002319,102.037926 656.039673,106.050079 658.650330,110.322876 
	C659.425903,111.592285 659.002563,113.594223 659.128540,115.260513 
	C657.508606,114.665482 655.246155,114.551720 654.378418,113.393250 
	C650.321289,107.976555 646.648621,102.271873 642.644897,96.366623 
z"/>
<path fill="#F1F1F1" opacity="1.000000" stroke="none" 
	d="
M334.234497,69.791397 
	C336.503326,72.999550 335.798767,74.801277 332.414032,76.041840 
	C330.883636,76.602760 329.428619,77.834572 328.361420,79.114021 
	C323.542328,84.891487 319.580536,86.126228 312.626282,83.726257 
	C307.752319,82.044212 302.891632,74.412155 303.000427,68.612190 
	C303.113800,62.568882 306.385376,58.783398 312.869232,56.455757 
	C314.532806,55.858543 316.048553,54.291534 317.155182,52.812988 
	C319.738373,49.361603 321.562103,51.705166 322.970856,53.614689 
	C326.798920,58.803532 330.348969,64.197479 334.234497,69.791397 
M314.882416,77.845627 
	C320.272705,79.434097 323.312988,78.138443 325.266693,73.420219 
	C326.980133,69.282249 324.617157,64.677589 319.305573,61.868282 
	C315.139404,59.664783 312.664429,62.497887 310.535309,65.218658 
	C307.649414,68.906502 308.907043,72.627205 314.882416,77.845627 
z"/>
<path fill="#F1F1F1" opacity="1.000000" stroke="none" 
	d="
M645.004395,364.006104 
	C644.336792,360.798096 643.278503,357.612549 643.092346,354.376892 
	C642.807617,349.426941 645.382019,345.853821 649.786438,343.642456 
	C652.787231,342.135864 657.242798,342.679901 657.858948,337.853333 
	C659.286865,338.119720 661.375183,337.876678 662.036682,338.734222 
	C666.693115,344.770691 671.178284,350.954010 675.338257,357.337891 
	C675.794495,358.038025 674.105774,360.552490 672.943848,361.783630 
	C671.540771,363.270111 669.278931,363.994019 668.013977,365.554688 
	C662.519714,372.333160 654.517822,372.815338 648.070374,366.519226 
	C647.257507,365.725494 646.472839,364.902893 645.337524,364.046844 
	C645.000000,364.000000 645.004395,364.006104 645.004395,364.006104 
M650.906128,360.336121 
	C655.613281,365.114471 658.453796,365.898743 661.985535,363.395233 
	C666.152832,360.441223 667.217163,356.970490 664.661682,352.701172 
	C662.665466,349.366028 659.703613,346.003906 655.515930,347.329010 
	C653.051086,348.109009 650.806580,351.060791 649.533569,353.577362 
	C648.771973,355.082855 650.077637,357.634094 650.906128,360.336121 
z"/>
<path fill="#F1F1F1" opacity="1.000000" stroke="none" 
	d="
M254.997711,111.997704 
	C255.581055,113.872032 256.084595,115.779091 256.767242,117.619728 
	C259.105988,123.925751 257.578186,128.633209 251.300095,134.196640 
	C247.500961,137.563309 241.760330,137.939987 236.399979,135.174377 
	C231.857361,132.830658 228.129288,126.013031 228.434555,121.167114 
	C229.144073,109.903908 242.366669,102.657860 251.342285,110.146202 
	C252.215088,110.874367 253.303909,111.343575 254.648529,111.968887 
	C255.004578,112.004776 255.000000,112.000000 254.997711,111.997704 
M242.090240,130.538254 
	C246.246140,131.772583 249.226517,129.529663 250.526810,126.267273 
	C251.948792,122.699593 251.455109,118.713615 248.233673,115.752937 
	C245.567581,113.302612 242.201675,112.052231 239.294083,114.261017 
	C237.248764,115.814751 235.568817,118.807243 235.184189,121.375702 
	C234.527557,125.760666 236.967010,128.915955 242.090240,130.538254 
z"/>
<path fill="#F1F1F1" opacity="1.000000" stroke="none" 
	d="
M215.997574,412.997742 
	C218.721725,418.491425 220.541153,423.844452 216.707199,429.819550 
	C213.594818,434.670135 207.469604,437.990417 201.977890,436.843567 
	C195.520340,435.495026 190.494461,429.852692 189.953384,423.898895 
	C189.351852,417.279663 191.283112,412.423218 197.496658,409.128784 
	C204.688797,405.315491 210.178513,407.780060 215.698700,412.855835 
	C216.004272,413.006104 216.000000,413.000000 215.997574,412.997742 
M212.569672,424.799927 
	C212.206375,422.591553 212.327911,420.143524 211.379211,418.224548 
	C209.379639,414.179962 204.295044,412.349487 201.041199,413.994263 
	C196.302261,416.389740 194.204727,420.698029 196.759735,424.961700 
	C198.270523,427.482849 201.567871,430.437866 204.075195,430.450104 
	C206.785736,430.463318 209.511871,427.276611 212.569672,424.799927 
z"/>
<path fill="#F1F1F1" opacity="1.000000" stroke="none" 
	d="
M307.966431,87.888390 
	C306.943176,90.707573 306.407684,93.510338 304.827850,95.471985 
	C301.038696,100.176849 296.462769,103.317932 289.744324,101.451660 
	C282.652588,99.481705 279.657074,94.195541 278.229584,87.823051 
	C277.094360,82.755417 282.015289,75.667755 287.581268,73.320305 
	C292.557831,71.221436 300.903198,73.180710 303.680664,77.627342 
	C305.559906,80.635941 306.576782,84.183197 307.966431,87.888390 
M292.023560,95.864037 
	C296.777740,96.645775 299.822693,94.401878 300.895386,90.023087 
	C302.106476,85.079353 299.844788,80.650864 295.713348,79.470963 
	C292.097748,78.438377 288.366638,78.305244 285.998138,82.112663 
	C283.669739,85.855629 284.867645,90.956406 288.716797,94.114014 
	C289.471741,94.733322 290.424774,95.111160 292.023560,95.864037 
z"/>
<path fill="#F1F1F1" opacity="1.000000" stroke="none" 
	d="
M644.997559,363.997742 
	C645.985901,367.297485 647.729858,370.581360 647.809814,373.905273 
	C647.973755,380.720978 640.464966,387.662994 633.456909,387.988800 
	C626.115845,388.330109 619.645996,382.161682 618.341675,373.577881 
	C617.435852,367.616180 622.717712,360.761047 629.232727,358.919586 
	C635.452637,357.161560 640.103149,359.687469 644.696228,363.854858 
	C645.004395,364.006104 645.000000,364.000000 644.997559,363.997742 
M640.981384,376.015930 
	C640.985840,374.857330 641.030334,373.697266 640.987732,372.540405 
	C640.819641,367.973816 637.738403,365.485474 633.922607,364.720306 
	C631.780212,364.290741 627.881165,365.356934 627.118286,366.904846 
	C625.753052,369.674866 625.005188,373.756226 626.050049,376.511810 
	C628.813354,383.799530 636.070679,383.736633 640.981384,376.015930 
z"/>
<path fill="#F1F1F1" opacity="1.000000" stroke="none" 
	d="
M594.997559,398.997772 
	C599.576782,410.034424 597.631104,417.138916 588.803406,421.603699 
	C583.295959,424.389160 576.068420,422.560944 571.887390,417.324646 
	C567.631165,411.994202 567.456909,403.564362 571.508484,398.999542 
	C578.262756,391.389740 585.815002,391.292480 594.697815,398.855469 
	C595.004395,399.006104 595.000000,399.000000 594.997559,398.997772 
M585.777405,416.571991 
	C591.219055,413.369110 592.661255,409.255585 590.100952,404.239868 
	C587.949341,400.024841 583.428406,398.256836 579.301819,400.062531 
	C574.943115,401.969696 574.560791,405.769684 575.155762,409.695709 
	C575.808533,414.003235 579.874817,416.755127 585.777405,416.571991 
z"/>
<path fill="#A56D7F" opacity="1.000000" stroke="none" 
	d="
M462.998932,234.963562 
	C462.252350,233.131668 461.545349,231.282486 460.752655,229.470764 
	C456.239716,219.155609 463.011230,208.455261 474.362213,208.008575 
	C476.021515,207.943268 477.684418,207.968704 479.815704,207.913177 
	C483.084930,210.037079 485.884094,212.199951 488.852600,214.645401 
	C489.865448,218.904968 491.784729,223.006409 491.341827,226.834564 
	C490.211426,236.605667 483.763519,240.820679 470.775146,240.889038 
	C467.714874,238.798370 465.356903,236.880966 462.998932,234.963562 
M466.568939,216.094238 
	C462.075714,220.642990 464.263763,225.356674 466.568024,229.771973 
	C469.109680,234.642242 474.381927,236.962509 478.584717,235.647522 
	C483.673279,234.055420 487.141083,229.930908 486.941559,225.708176 
	C486.467560,215.676270 475.669922,210.142105 466.568939,216.094238 
z"/>
<path fill="#F1F1F1" opacity="1.000000" stroke="none" 
	d="
M622.348206,128.819672 
	C619.718018,124.318047 616.150635,120.309074 615.252869,115.771866 
	C613.397400,106.395317 619.790161,101.941658 626.458679,99.422508 
	C632.316040,97.209824 639.684082,100.465515 643.676880,106.427879 
	C648.131042,113.079185 648.343750,120.754158 644.199829,125.296860 
	C637.294556,132.866623 631.252319,133.923935 622.348206,128.819672 
M632.036804,104.020950 
	C627.388733,103.506783 623.304504,104.576866 621.071472,109.006454 
	C618.752197,113.606934 619.891968,117.874855 622.918030,121.945328 
	C626.478394,126.734505 632.108459,128.376587 637.277954,125.754890 
	C641.715088,123.504623 643.702454,117.639656 640.784607,112.391335 
	C638.986450,109.157104 635.543884,106.837082 632.036804,104.020950 
z"/>
<path fill="#F1F1F1" opacity="1.000000" stroke="none" 
	d="
M575.204956,167.762482 
	C576.607300,168.851852 577.732056,169.718719 579.207581,170.855927 
	C577.652954,172.057037 576.513428,172.937439 575.256104,173.908890 
	C574.625671,173.579895 574.003601,173.357208 573.501404,172.976364 
	C570.497192,170.698303 567.805298,168.854721 563.851624,171.917664 
	C560.158447,174.778793 556.401428,176.798218 558.520935,182.635269 
	C559.011353,183.985779 556.864258,186.293991 555.930908,188.161499 
	C555.519043,187.935516 555.107117,187.709534 554.695190,187.483551 
	C552.217041,178.102295 549.571716,168.759293 547.408752,159.305923 
	C547.001221,157.524796 547.943970,154.510696 549.313843,153.524719 
	C550.518188,152.657944 553.576904,153.224442 555.152222,154.214752 
	C561.878174,158.442978 568.357849,163.062927 575.204956,167.762482 
M555.092529,169.822174 
	C557.790344,171.788162 558.969421,171.264999 563.500061,165.961456 
	C560.233337,163.724136 557.001038,161.510437 553.768799,159.296738 
	C553.469543,159.569519 553.170288,159.842300 552.871033,160.115067 
	C553.580139,163.104523 554.289185,166.093979 555.092529,169.822174 
z"/>
<path fill="#F0F0F0" opacity="1.000000" stroke="none" 
	d="
M215.123245,157.054810 
	C210.018051,154.523773 205.297485,152.083588 200.505356,149.793137 
	C196.831604,148.037231 195.035568,145.318863 196.488388,141.395279 
	C197.780823,137.904816 201.640213,137.020889 205.878845,138.962128 
	C211.438141,141.508224 217.074432,143.931030 222.430069,146.859558 
	C225.464935,148.519058 229.344009,150.362656 227.356659,155.203217 
	C225.383194,160.009918 221.709015,159.520782 217.799911,158.080170 
	C217.024109,157.794281 216.251282,157.500336 215.123245,157.054810 
z"/>
<path fill="#F0F0F0" opacity="1.000000" stroke="none" 
	d="
M548.420410,439.668915 
	C545.021057,437.856720 541.580200,436.629578 539.052063,434.377747 
	C537.430115,432.933044 535.839355,429.269928 536.592712,427.873138 
	C537.624268,425.960663 541.519043,423.676239 543.099060,424.301147 
	C550.722290,427.316284 558.071045,431.084564 565.322937,434.950043 
	C568.142700,436.453003 568.742798,439.179352 566.917664,442.220734 
	C565.112427,445.229034 562.419067,445.653015 559.600281,444.635529 
	C555.892395,443.297089 552.368652,441.448761 548.420410,439.668915 
z"/>
<path fill="#EEEAEB" opacity="1.000000" stroke="none" 
	d="
M263.329315,374.947449 
	C263.727936,378.344238 263.761658,381.744965 263.372864,385.498596 
	C262.654480,385.471497 262.251678,385.134430 262.079254,384.704865 
	C260.160889,379.926147 256.372620,378.489868 251.655426,379.083588 
	C248.276627,379.508850 246.392273,381.667938 246.020401,385.068634 
	C245.510269,389.733765 247.370255,393.185791 251.562790,395.230438 
	C255.872925,397.332397 258.807465,394.949738 261.486328,391.918091 
	C262.114777,391.206848 262.869873,390.607544 263.566711,389.956726 
	C263.686646,392.010895 263.806580,394.065033 263.989136,396.558319 
	C263.984894,397.462036 263.917969,397.926636 263.755310,398.730591 
	C253.174561,403.952179 245.934494,402.331665 241.580719,394.128174 
	C238.896637,389.070831 239.433441,381.531250 242.745117,377.774017 
	C247.124146,372.805817 253.437271,371.359711 259.707947,373.858673 
	C260.769928,374.281891 261.877747,374.590027 263.329315,374.947449 
z"/>
<path fill="#F0F0F0" opacity="1.000000" stroke="none" 
	d="
M195.374634,164.353622 
	C198.855301,162.074265 201.968506,159.887436 205.220917,157.932175 
	C208.260635,156.104782 211.093918,156.733749 213.024307,159.667709 
	C214.905991,162.527649 214.622543,165.546890 211.804688,167.617432 
	C204.512939,172.975311 197.064484,178.119888 189.628220,183.385300 
	C184.866791,174.750565 186.120071,170.768738 195.374634,164.353622 
z"/>
<path fill="#F1F1F1" opacity="1.000000" stroke="none" 
	d="
M595.124634,138.654205 
	C600.371460,146.567215 605.668945,148.409485 611.184753,143.664688 
	C613.185669,141.943451 613.669861,138.409271 614.722473,135.655060 
	C615.296387,134.153214 615.611450,132.552414 616.256042,130.229492 
	C621.814941,136.918961 618.843689,145.795944 611.148621,149.395203 
	C600.445312,154.401535 588.126343,145.591537 587.998962,132.839539 
	C587.900024,122.935616 597.745605,115.498459 606.697266,118.868446 
	C607.942993,119.337433 608.779480,120.893646 609.805420,121.946579 
	C608.306946,122.505234 606.562866,123.857956 605.352905,123.483757 
	C600.364441,121.940979 596.085815,123.621231 594.302490,127.708351 
	C593.032410,130.619125 594.590210,134.763763 595.124634,138.654205 
z"/>
<path fill="#A87182" opacity="1.000000" stroke="none" 
	d="
M540.927185,199.020599 
	C528.442993,205.370514 515.396423,197.472946 515.006348,183.320862 
	C514.965149,181.827988 515.006531,180.332825 515.016479,178.384705 
	C515.023438,177.930664 515.509949,177.966217 515.939941,178.263290 
	C517.711426,179.329391 519.052979,180.098434 520.385254,181.183868 
	C525.887695,186.012833 531.399231,190.525406 537.078979,195.310608 
	C538.473816,196.729019 539.700500,197.874817 540.927185,199.020599 
z"/>
<path fill="#F0F0F0" opacity="1.000000" stroke="none" 
	d="
M541.179443,199.048950 
	C539.700500,197.874817 538.473816,196.729019 537.439819,195.261566 
	C541.808289,193.018799 543.424316,189.620636 542.552856,185.295883 
	C541.400330,179.575806 535.494507,173.697021 530.798157,173.119186 
	C527.121094,172.666763 522.500122,176.108337 520.394470,180.867477 
	C519.052979,180.098434 517.711426,179.329391 516.183105,178.282089 
	C519.732849,173.583801 523.291687,169.228607 529.945496,168.898987 
	C537.951782,168.502350 542.648987,172.810440 545.985352,179.142334 
	C549.262573,185.362122 548.087280,191.239624 543.541382,196.508209 
	C543.014099,197.119278 542.552917,197.787354 541.998840,198.779282 
	C541.768250,199.112152 541.599915,199.094727 541.179443,199.048950 
z"/>
<path fill="#F1F1F1" opacity="1.000000" stroke="none" 
	d="
M830.177734,245.810898 
	C823.911926,237.596237 817.993774,229.455292 811.718445,220.822952 
	C813.210022,219.779388 814.453308,218.909515 816.028076,217.807739 
	C821.390808,225.337219 826.531433,232.554901 831.736633,239.863266 
	C835.788269,237.158279 839.531494,234.492813 843.466919,232.150375 
	C844.435425,231.573914 846.030518,232.050308 847.337585,232.042725 
	C846.910278,233.141922 846.805786,234.688721 846.003235,235.267471 
	C840.930054,238.925919 835.702148,242.369858 830.177734,245.810898 
z"/>
<path fill="#F1F1F1" opacity="1.000000" stroke="none" 
	d="
M185.644867,437.366760 
	C181.446793,431.394135 177.220795,425.863831 173.585785,419.969116 
	C172.595032,418.362457 173.382721,415.659119 173.354248,413.459076 
	C175.085220,414.380005 177.389328,414.872345 178.451889,416.293152 
	C184.287231,424.096008 189.903793,432.068695 195.355759,440.144897 
	C196.110641,441.263153 195.536072,443.278900 195.576965,444.879150 
	C193.897476,444.600281 191.737381,444.873291 190.644119,443.921265 
	C188.701614,442.229614 187.405746,439.795471 185.644867,437.366760 
z"/>
<path fill="#F1F1F1" opacity="1.000000" stroke="none" 
	d="
M226.231766,139.807922 
	C221.149155,132.612320 216.176956,125.773010 211.572189,118.694672 
	C210.845032,117.576889 211.778000,115.379105 211.943390,113.680672 
	C213.468552,114.180496 215.626343,114.204002 216.418289,115.255859 
	C222.491150,123.321854 228.412354,131.510834 234.063110,139.876144 
	C234.892700,141.104233 234.045410,143.465073 233.973999,145.301804 
	C232.355469,144.760239 230.547745,144.502930 229.176331,143.590118 
	C228.010788,142.814346 227.348404,141.282623 226.231766,139.807922 
z"/>
<path fill="#F1F1F1" opacity="1.000000" stroke="none" 
	d="
M550.298950,402.008789 
	C552.333130,398.032806 554.727722,398.493500 556.809998,401.395660 
	C562.580750,409.438629 568.309326,417.519897 573.721619,425.803619 
	C574.590576,427.133606 573.747681,429.582031 573.696167,431.513428 
	C572.051941,430.762695 569.780701,430.462921 568.864380,429.188721 
	C562.515442,420.360321 556.448425,411.329163 550.298950,402.008789 
z"/>
<path fill="#080808" opacity="1.000000" stroke="none" 
	d="
M536.093445,238.488190 
	C541.835022,232.018448 545.969910,231.620117 550.558777,236.921082 
	C550.826721,240.914505 550.826721,244.688980 550.826721,248.149551 
	C544.510681,246.709702 534.515198,251.340698 536.093445,238.488190 
z"/>
<path fill="#F1F1F1" opacity="1.000000" stroke="none" 
	d="
M675.661011,338.409058 
	C677.708496,341.449799 679.579590,344.171631 681.411804,346.919403 
	C682.233765,348.152130 683.495728,349.386780 683.623657,350.710846 
	C683.776794,352.295990 682.931152,353.977600 682.518066,355.617401 
	C681.115417,355.008453 679.187927,354.788422 678.399658,353.724365 
	C674.661072,348.678101 671.421204,343.258850 667.623901,338.261017 
	C665.361084,335.282898 665.579895,333.266052 669.273621,330.840759 
	C671.315430,333.233521 673.392029,335.667145 675.661011,338.409058 
z"/>
<path fill="#F1F1F1" opacity="1.000000" stroke="none" 
	d="
M329.661499,46.096619 
	C334.548096,52.167572 339.214783,58.077454 343.416473,64.301247 
	C344.145294,65.380775 342.907745,67.787819 342.578430,69.581696 
	C341.064789,68.889565 339.009521,68.604568 338.130615,67.435318 
	C334.176453,62.174755 330.440948,56.737705 326.866333,51.209286 
	C325.195801,48.625713 325.624756,46.428905 329.661499,46.096619 
z"/>
<path fill="#F1F1F1" opacity="1.000000" stroke="none" 
	d="
M578.269043,163.747528 
	C574.277649,158.059006 570.551208,152.630234 566.792908,147.223557 
	C565.001587,144.646591 563.958496,142.216919 568.211426,140.084106 
	C573.886353,148.003143 579.636658,155.951172 585.241455,164.000534 
	C585.667786,164.612747 585.332703,166.630981 584.884155,166.807343 
	C583.683655,167.279404 582.032776,167.547562 580.931702,167.059708 
	C579.884277,166.595642 579.305664,165.073349 578.269043,163.747528 
z"/>
<path fill="#A56E7F" opacity="1.000000" stroke="none" 
	d="
M508.880890,216.296661 
	C510.068878,215.202774 511.217407,214.061920 512.451904,213.023361 
	C517.115051,209.100479 517.125549,207.375320 512.177551,203.122177 
	C510.212128,204.293320 508.144348,205.525421 506.087555,206.750992 
	C503.872437,203.455948 503.872437,203.455948 514.414124,195.891541 
	C516.645752,199.022324 519.405701,201.944046 520.908203,205.410736 
	C521.637512,207.093414 520.548157,210.163391 519.325012,211.949951 
	C517.581604,214.496216 514.958191,216.439957 512.424866,218.788879 
	C511.963440,218.912003 511.787842,218.887314 511.225372,218.557510 
	C510.185974,217.600479 509.533447,216.948578 508.880890,216.296661 
z"/>
<path fill="#F0F0F0" opacity="1.000000" stroke="none" 
	d="
M508.599274,216.149353 
	C509.533447,216.948578 510.185974,217.600479 510.965332,218.501556 
	C506.404846,222.716446 501.441498,220.721436 496.284760,219.669189 
	C494.782715,218.958710 493.506439,218.005264 492.067078,216.812744 
	C490.291840,211.433746 486.621368,206.809036 487.985229,200.480225 
	C489.911072,201.479416 491.838348,202.922211 493.666931,204.849762 
	C494.706787,207.717163 495.495392,210.368317 497.067963,212.417984 
	C499.288330,215.311981 502.054443,217.891174 506.090088,214.867798 
	C506.832611,215.245880 507.575134,215.623962 508.599274,216.149353 
z"/>
<path fill="#F1F1F1" opacity="1.000000" stroke="none" 
	d="
M155.236206,441.178955 
	C152.621552,443.835175 149.596893,445.133118 147.273407,442.315552 
	C145.771118,440.493866 144.968384,437.079163 145.598816,434.878754 
	C146.006409,433.456085 149.554886,432.214447 151.723053,432.168304 
	C155.925659,432.078827 157.556732,436.288025 155.236206,441.178955 
z"/>
<path fill="#F1F1F1" opacity="1.000000" stroke="none" 
	d="
M194.982513,136.223953 
	C195.376556,140.789154 193.681717,143.542923 189.354187,143.529480 
	C185.472153,143.517441 183.150452,140.354111 184.171631,136.277039 
	C184.581833,134.639206 186.492722,132.624207 188.095032,132.202057 
	C191.010193,131.434021 194.174408,131.784012 194.982513,136.223953 
z"/>
<path fill="#F1F1F1" opacity="1.000000" stroke="none" 
	d="
M524.093506,421.429962 
	C526.055176,416.985138 529.871338,417.037598 532.527100,418.744690 
	C534.174988,419.803925 535.130249,423.848816 534.471436,425.950012 
	C533.994019,427.472870 530.353333,428.820740 528.131531,428.807953 
	C523.667603,428.782318 523.903809,425.077728 524.093506,421.429962 
z"/>
<path fill="#F1F1F1" opacity="1.000000" stroke="none" 
	d="
M325.958008,38.961819 
	C325.418732,40.805500 324.941101,42.509521 323.893982,43.721443 
	C323.577911,44.087257 320.807465,43.268833 320.684784,42.677044 
	C320.399658,41.301804 320.558929,39.123417 321.447906,38.419460 
	C322.305054,37.740704 324.303925,38.503738 325.958008,38.961819 
z"/>
<path fill="#F1F1F1" opacity="1.000000" stroke="none" 
	d="
M663.086487,323.171448 
	C666.234619,324.271271 668.123596,326.002350 665.266235,328.654388 
	C664.396118,329.461945 662.181824,328.821228 660.583191,328.843811 
	C661.295105,326.973907 662.007019,325.104065 663.086487,323.171448 
z"/>
<path fill="#F1F1F1" opacity="1.000000" stroke="none" 
	d="
M589.064087,157.965393 
	C590.579102,156.758102 592.030884,155.730804 593.644470,155.268188 
	C594.060242,155.148987 595.709778,157.042953 595.527954,157.597733 
	C595.127869,158.818695 593.860962,160.689072 593.056885,160.636185 
	C591.680969,160.545670 590.388550,159.183655 589.064087,157.965393 
z"/>
<path fill="#AD7486" opacity="1.000000" stroke="none" 
	d="
M393.942322,79.390381 
	C393.175659,79.871887 392.199066,80.078087 391.031311,79.974045 
	C391.804260,79.480881 392.768341,79.297981 393.942322,79.390381 
z"/>
<path fill="#FFFFFF" opacity="1.000000" stroke="none" 
	d="
M864.760132,208.758911 
	C865.208801,217.878036 861.473572,222.514603 854.536926,221.990524 
	C849.477844,221.608276 843.369263,214.901291 843.005310,209.329315 
	C842.656433,203.988098 845.697388,200.029266 851.423157,198.783585 
	C856.556763,197.666733 859.783752,200.816299 862.605896,204.405472 
	C863.506958,205.551376 863.970398,207.041336 864.760132,208.758911 
z"/>
<path fill="#050304" opacity="1.000000" stroke="none" 
	d="
M462.599731,234.951172 
	C465.356903,236.880966 467.714874,238.798370 470.300629,240.927582 
	C475.248260,253.138000 473.303986,257.707489 459.309875,267.377075 
	C462.407562,268.872437 465.636993,270.077606 468.488770,271.880280 
	C474.799561,275.869476 478.056061,281.656769 476.812683,289.229187 
	C475.552948,296.901459 470.630280,301.836578 463.353973,303.761505 
	C458.439423,305.061646 453.188446,305.428619 448.071686,305.555176 
	C437.579010,305.814697 427.074768,305.683624 416.577057,305.561890 
	C415.352570,305.547699 414.139160,304.579102 412.920624,304.052979 
	C413.974091,303.350922 414.940399,302.299988 416.097046,302.011078 
	C419.841736,301.075714 421.959930,298.846008 421.971954,295.010742 
	C422.025818,277.846039 422.027954,260.680847 421.952911,243.516251 
	C421.934479,239.298019 419.387085,237.331421 415.347076,236.780899 
	C414.475677,236.662140 413.740082,235.546844 412.941895,234.890579 
	C413.757721,234.307312 414.580688,233.206482 415.388336,233.217621 
	C429.867371,233.417007 444.344971,233.732864 458.821228,234.091110 
	C459.953949,234.119141 461.074402,234.644531 462.599731,234.951172 
M458.323883,296.799011 
	C462.903900,290.095734 463.419495,281.860992 459.249908,276.322388 
	C453.005402,268.027557 444.123383,269.915710 435.194000,270.068665 
	C435.194000,278.186829 435.191315,285.805450 435.197327,293.424103 
	C435.198090,294.421234 434.898102,295.621460 435.340149,296.373108 
	C436.255249,297.929108 437.431946,300.303253 438.754303,300.483521 
	C445.338501,301.381317 452.056183,301.972229 458.323883,296.799011 
M457.839355,250.585358 
	C456.239990,239.871033 448.731354,235.074692 438.143494,238.215408 
	C436.986176,238.558716 435.405548,240.145477 435.375641,241.194138 
	C435.145020,249.276520 435.248657,257.368439 435.248657,265.371368 
	C451.583740,267.234558 457.688965,261.372955 457.839355,250.585358 
z"/>
<path fill="#050304" opacity="1.000000" stroke="none" 
	d="
M292.543945,306.540222 
	C279.007965,305.858215 274.925568,301.630798 274.873016,288.672882 
	C274.851379,283.339874 274.919434,278.006134 274.855225,272.673828 
	C274.787445,267.044495 276.411926,260.550262 267.617615,258.725372 
	C274.186798,256.160156 280.428375,257.558746 287.458588,257.077515 
	C287.458588,262.235840 287.432373,266.844940 287.464844,271.453644 
	C287.511749,278.117310 287.368469,284.793854 287.743866,291.440186 
	C288.060974,297.053772 290.731018,299.358643 295.516907,299.045837 
	C300.749023,298.703857 305.165283,294.795898 305.224915,290.285004 
	C305.321808,282.952972 305.257568,275.618835 305.358154,268.286896 
	C305.414490,264.179810 305.097626,260.461212 299.808624,259.957031 
	C299.565186,259.933807 299.281860,259.576752 299.153107,259.309631 
	C299.018616,259.030609 299.048706,258.672272 298.868744,257.280121 
	C304.769073,257.280121 310.594513,257.153503 316.396545,257.464203 
	C317.018036,257.497498 317.959381,260.073334 317.978271,261.480133 
	C318.114685,271.644470 318.048706,281.811462 318.052765,291.977631 
	C318.055908,299.778229 318.059753,299.778229 325.538391,300.374634 
	C325.628937,300.676605 325.715302,300.979767 325.801697,301.282959 
	C319.541565,302.871490 313.306030,304.588989 306.973419,305.797821 
	C306.479797,305.892029 305.306763,302.427124 304.625793,300.988800 
	C300.919037,302.731537 296.929504,304.607239 292.543945,306.540222 
z"/>
<path fill="#060404" opacity="1.000000" stroke="none" 
	d="
M348.512695,256.325592 
	C352.080170,256.520050 355.300293,256.400665 358.339935,257.083984 
	C365.018860,258.585388 367.290161,264.385895 363.789246,271.861176 
	C362.482849,270.339203 361.450806,269.004700 360.281738,267.803497 
	C358.106049,265.567810 356.135101,262.955963 353.554169,261.337524 
	C350.519775,259.434662 346.927582,259.472229 344.718964,262.914093 
	C342.701599,266.057892 343.858765,269.149841 346.499847,271.376740 
	C349.026367,273.507050 351.924622,275.196350 354.658844,277.080505 
	C357.665344,279.152283 360.990509,280.886810 363.614624,283.363861 
	C370.288818,289.664032 369.351959,298.440582 361.464905,303.070831 
	C352.337860,308.429138 342.903534,307.479462 333.754333,303.046600 
	C329.988037,301.221802 329.311829,292.507294 332.526184,288.831757 
	C334.543854,291.671570 336.215973,294.747467 338.582336,297.135376 
	C340.609161,299.180695 343.253571,300.922638 345.950256,301.910767 
	C348.772430,302.944946 352.678467,303.031799 353.548004,299.462830 
	C354.123901,297.099213 352.791351,293.830811 351.368225,291.559570 
	C350.237701,289.755341 347.708435,288.794617 345.738586,287.557495 
	C343.202118,285.964478 340.508789,284.606720 338.053040,282.902618 
	C333.395752,279.670868 330.356110,275.425079 331.215118,269.431549 
	C332.030487,263.742615 335.765167,260.303467 340.871216,258.310852 
	C343.175995,257.411407 345.673401,257.005615 348.512695,256.325592 
z"/>
<path fill="#070506" opacity="1.000000" stroke="none" 
	d="
M384.553528,252.551682 
	C386.975616,248.470932 389.155396,244.664886 391.820282,240.011780 
	C395.330048,245.755569 392.507263,251.456772 394.281677,257.037292 
	C398.163116,257.037292 402.245758,257.037292 406.404388,257.037292 
	C407.159698,261.217529 405.594391,262.864929 402.031921,262.876587 
	C399.416199,262.885193 396.800415,262.878296 393.936798,262.878296 
	C393.936798,273.577118 393.677063,283.701263 394.043213,293.802795 
	C394.234589,299.083435 398.322083,300.865784 402.915833,298.191223 
	C404.471527,297.285461 405.824799,296.032013 408.661926,295.301971 
	C408.163361,297.141541 408.203278,299.460815 407.069031,300.734039 
	C403.082428,305.208923 397.957245,307.387054 391.863312,306.211975 
	C385.859467,305.054260 382.471222,300.923645 381.815704,295.215271 
	C381.040771,288.467102 381.148560,281.613464 380.965363,274.803101 
	C380.863159,271.004089 380.946960,267.200073 380.946960,263.778656 
	C380.382935,263.310455 380.277191,263.181580 380.140991,263.115784 
	C377.946472,262.055573 372.757843,264.669281 374.338654,259.266632 
	C374.875458,257.431946 378.848877,256.653717 381.179810,255.271133 
	C382.309540,254.601028 383.272675,253.650131 384.553528,252.551682 
z"/>
<path fill="#FEFDFE" opacity="1.000000" stroke="none" 
	d="
M506.052765,214.493103 
	C502.054443,217.891174 499.288330,215.311981 497.067963,212.417984 
	C495.495392,210.368317 494.706787,207.717163 493.830566,205.138443 
	C498.067078,208.001053 502.041260,211.059723 506.052765,214.493103 
z"/>
<path fill="#FFFFFF" opacity="1.000000" stroke="none" 
	d="
M263.647614,389.570007 
	C262.869873,390.607544 262.114777,391.206848 261.486328,391.918091 
	C258.807465,394.949738 255.872925,397.332397 251.562790,395.230438 
	C247.370255,393.185791 245.510269,389.733765 246.020401,385.068634 
	C246.392273,381.667938 248.276627,379.508850 251.655426,379.083588 
	C256.372620,378.489868 260.160889,379.926147 262.079254,384.704865 
	C262.251678,385.134430 262.654480,385.471497 263.258545,385.946594 
	C263.620667,387.088837 263.674591,388.136047 263.647614,389.570007 
z"/>
<path fill="#FFFFFF" opacity="1.000000" stroke="none" 
	d="
M220.998657,403.993744 
	C221.582809,398.991211 224.518738,396.021179 228.485123,396.013153 
	C232.639511,396.004761 236.678635,400.183441 237.003647,404.788025 
	C237.285477,408.780701 236.507477,412.161224 231.864807,412.956543 
	C226.916458,413.804260 222.269485,410.704102 221.033249,405.886230 
	C220.913345,405.418915 221.005157,404.897308 220.998657,403.993744 
z"/>
<path fill="#FFFFFF" opacity="1.000000" stroke="none" 
	d="
M615.362244,394.962555 
	C610.955933,399.553589 605.803406,400.236572 602.629395,396.950226 
	C599.039124,393.232849 598.735229,386.749847 602.525574,384.225647 
	C604.480896,382.923462 607.978027,381.808441 609.654114,382.706757 
	C612.258362,384.102631 614.192627,387.113403 615.818481,389.798309 
	C616.512024,390.943756 615.712219,392.993500 615.362244,394.962555 
z"/>
<path fill="#FFFFFF" opacity="1.000000" stroke="none" 
	d="
M275.452515,101.990250 
	C275.749817,103.159042 275.967865,103.969467 275.981079,104.783218 
	C276.066223,110.034836 273.803680,113.077148 269.377380,113.740631 
	C266.186035,114.218979 261.312714,110.796799 260.271545,107.346230 
	C258.818573,102.530968 260.547607,98.437263 264.797028,96.631493 
	C268.656067,94.991615 271.829376,96.505959 275.452515,101.990250 
z"/>
<path fill="#FFFFFF" opacity="1.000000" stroke="none" 
	d="
M314.544739,77.679970 
	C308.907043,72.627205 307.649414,68.906502 310.535309,65.218658 
	C312.664429,62.497887 315.139404,59.664783 319.305573,61.868282 
	C324.617157,64.677589 326.980133,69.282249 325.266693,73.420219 
	C323.312988,78.138443 320.272705,79.434097 314.544739,77.679970 
z"/>
<path fill="#FFFFFF" opacity="1.000000" stroke="none" 
	d="
M650.680054,360.025696 
	C650.077637,357.634094 648.771973,355.082855 649.533569,353.577362 
	C650.806580,351.060791 653.051086,348.109009 655.515930,347.329010 
	C659.703613,346.003906 662.665466,349.366028 664.661682,352.701172 
	C667.217163,356.970490 666.152832,360.441223 661.985535,363.395233 
	C658.453796,365.898743 655.613281,365.114471 650.680054,360.025696 
z"/>
<path fill="#FFFFFF" opacity="1.000000" stroke="none" 
	d="
M241.736298,130.386688 
	C236.967010,128.915955 234.527557,125.760666 235.184189,121.375702 
	C235.568817,118.807243 237.248764,115.814751 239.294083,114.261017 
	C242.201675,112.052231 245.567581,113.302612 248.233673,115.752937 
	C251.455109,118.713615 251.948792,122.699593 250.526810,126.267273 
	C249.226517,129.529663 246.246140,131.772583 241.736298,130.386688 
z"/>
<path fill="#FFFFFF" opacity="1.000000" stroke="none" 
	d="
M212.400436,425.142761 
	C209.511871,427.276611 206.785736,430.463318 204.075195,430.450104 
	C201.567871,430.437866 198.270523,427.482849 196.759735,424.961700 
	C194.204727,420.698029 196.302261,416.389740 201.041199,413.994263 
	C204.295044,412.349487 209.379639,414.179962 211.379211,418.224548 
	C212.327911,420.143524 212.206375,422.591553 212.400436,425.142761 
z"/>
<path fill="#FFFFFF" opacity="1.000000" stroke="none" 
	d="
M291.654999,95.732201 
	C290.424774,95.111160 289.471741,94.733322 288.716797,94.114014 
	C284.867645,90.956406 283.669739,85.855629 285.998138,82.112663 
	C288.366638,78.305244 292.097748,78.438377 295.713348,79.470963 
	C299.844788,80.650864 302.106476,85.079353 300.895386,90.023087 
	C299.822693,94.401878 296.777740,96.645775 291.654999,95.732201 
z"/>
<path fill="#FFFFFF" opacity="1.000000" stroke="none" 
	d="
M640.935791,376.419678 
	C636.070679,383.736633 628.813354,383.799530 626.050049,376.511810 
	C625.005188,373.756226 625.753052,369.674866 627.118286,366.904846 
	C627.881165,365.356934 631.780212,364.290741 633.922607,364.720306 
	C637.738403,365.485474 640.819641,367.973816 640.987732,372.540405 
	C641.030334,373.697266 640.985840,374.857330 640.935791,376.419678 
z"/>
<path fill="#FFFFFF" opacity="1.000000" stroke="none" 
	d="
M585.410400,416.709778 
	C579.874817,416.755127 575.808533,414.003235 575.155762,409.695709 
	C574.560791,405.769684 574.943115,401.969696 579.301819,400.062531 
	C583.428406,398.256836 587.949341,400.024841 590.100952,404.239868 
	C592.661255,409.255585 591.219055,413.369110 585.410400,416.709778 
z"/>
<path fill="#AC7385" opacity="1.000000" stroke="none" 
	d="
M466.843719,215.821228 
	C475.669922,210.142105 486.467560,215.676270 486.941559,225.708176 
	C487.141083,229.930908 483.673279,234.055420 478.584717,235.647522 
	C474.381927,236.962509 469.109680,234.642242 466.568024,229.771973 
	C464.263763,225.356674 462.075714,220.642990 466.843719,215.821228 
z"/>
<path fill="#FFFFFF" opacity="1.000000" stroke="none" 
	d="
M632.438232,104.063766 
	C635.543884,106.837082 638.986450,109.157104 640.784607,112.391335 
	C643.702454,117.639656 641.715088,123.504623 637.277954,125.754890 
	C632.108459,128.376587 626.478394,126.734505 622.918030,121.945328 
	C619.891968,117.874855 618.752197,113.606934 621.071472,109.006454 
	C623.304504,104.576866 627.388733,103.506783 632.438232,104.063766 
z"/>
<path fill="#FFFFFF" opacity="1.000000" stroke="none" 
	d="
M555.045410,169.452789 
	C554.289185,166.093979 553.580139,163.104523 552.871033,160.115067 
	C553.170288,159.842300 553.469543,159.569519 553.768799,159.296738 
	C557.001038,161.510437 560.233337,163.724136 563.500061,165.961456 
	C558.969421,171.264999 557.790344,171.788162 555.045410,169.452789 
z"/>
<path fill="#FEFDFE" opacity="1.000000" stroke="none" 
	d="
M520.385254,181.183868 
	C522.500122,176.108337 527.121094,172.666763 530.798157,173.119186 
	C535.494507,173.697021 541.400330,179.575806 542.552856,185.295883 
	C543.424316,189.620636 541.808289,193.018799 537.271606,194.988922 
	C531.399231,190.525406 525.887695,186.012833 520.385254,181.183868 
z"/>
<path fill="#A87182" opacity="1.000000" stroke="none" 
	d="
M458.065094,297.078125 
	C452.056183,301.972229 445.338501,301.381317 438.754303,300.483521 
	C437.431946,300.303253 436.255249,297.929108 435.340149,296.373108 
	C434.898102,295.621460 435.198090,294.421234 435.197327,293.424103 
	C435.191315,285.805450 435.194000,278.186829 435.194000,270.068665 
	C444.123383,269.915710 453.005402,268.027557 459.249908,276.322388 
	C463.419495,281.860992 462.903900,290.095734 458.065094,297.078125 
z"/>
<path fill="#A56E7F" opacity="1.000000" stroke="none" 
	d="
M457.841064,250.998962 
	C457.688965,261.372955 451.583740,267.234558 435.248657,265.371368 
	C435.248657,257.368439 435.145020,249.276520 435.375641,241.194138 
	C435.405548,240.145477 436.986176,238.558716 438.143494,238.215408 
	C448.731354,235.074692 456.239990,239.871033 457.841064,250.998962 
z"/>
</svg>