<?xml version="1.0" standalone="no"?>
<!DOCTYPE svg PUBLIC "-//W3C//DTD SVG 20010904//EN"
 "http://www.w3.org/TR/2001/REC-SVG-20010904/DTD/svg10.dtd">
<svg version="1.0" xmlns="http://www.w3.org/2000/svg"
 width="603.000000pt" height="210.000000pt" viewBox="0 0 603.000000 210.000000"
 preserveAspectRatio="xMidYMid meet">

<g transform="translate(0.000000,210.000000) scale(0.100000,-0.100000)"
fill="#000000" stroke="none">
<path d="M470 1422 c-72 -35 -71 -22 -68 -624 l3 -536 25 -27 c51 -55 46 -55
612 -55 492 0 525 2 565 19 76 35 73 13 73 611 0 586 2 571 -63 610 -31 19
-54 20 -572 20 -494 0 -543 -2 -575 -18z m950 -613 c0 -21 -24 -1 -170 138
-85 80 -167 157 -182 171 l-27 25 -181 -173 c-103 -98 -184 -169 -189 -164 -5
5 75 88 182 191 l191 182 188 -181 c103 -99 188 -185 188 -189z m-120 251 c0
-40 -4 -70 -10 -70 -5 0 -10 25 -10 55 l0 55 -55 0 c-42 0 -55 3 -55 15 0 12
14 15 65 15 l65 0 0 -70z m-520 -425 l0 -165 85 0 85 0 0 105 0 105 95 0 95 0
0 -105 0 -105 85 0 85 0 0 165 c0 140 2 165 15 165 13 0 15 -27 15 -180 l0
-180 -115 0 -115 0 0 110 0 110 -65 0 -65 0 0 -110 0 -110 -115 0 -115 0 0
180 c0 153 2 180 15 180 13 0 15 -25 15 -165z"/>
<path d="M1948 1003 c-2 -10 -2 -28 0 -40 4 -21 10 -23 68 -23 l64 0 0 -166 0
-165 38 3 37 3 3 162 2 162 63 3 62 3 0 35 0 35 -167 3 c-153 2 -167 1 -170
-15z"/>
<path d="M2344 1007 c-2 -7 -3 -98 -2 -202 l3 -190 34 -3 c43 -4 51 8 51 81
l0 57 48 0 49 0 44 -70 c43 -69 44 -70 86 -70 24 0 43 4 43 8 0 5 -20 40 -44
78 l-45 68 27 18 c51 34 66 96 37 164 -23 55 -75 74 -213 74 -82 0 -114 -3
-118 -13z m246 -87 c50 -50 9 -90 -92 -90 l-68 0 0 55 0 55 70 0 c57 0 74 -4
90 -20z"/>
<path d="M2767 1014 c-4 -4 -7 -66 -7 -138 0 -150 14 -195 72 -239 95 -73 247
-23 277 91 7 23 10 95 9 164 l-3 123 -35 0 -35 0 -5 -135 c-3 -80 -10 -144
-17 -157 -19 -32 -74 -47 -118 -33 -19 6 -41 21 -48 33 -7 13 -14 77 -17 157
l-5 135 -30 3 c-17 2 -34 0 -38 -4z"/>
<path d="M3263 1000 c-57 -25 -81 -73 -65 -127 14 -46 32 -59 146 -98 90 -30
121 -54 99 -76 -18 -18 -75 -26 -121 -16 -36 7 -45 14 -54 38 -9 27 -14 30
-47 27 -45 -4 -52 -29 -19 -78 33 -49 80 -70 156 -70 105 0 159 35 169 109 10
71 -38 114 -157 141 -57 13 -100 34 -100 50 0 41 113 57 150 20 11 -11 20 -24
20 -30 0 -5 19 -10 41 -10 41 0 41 0 35 32 -18 91 -148 136 -253 88z"/>
<path d="M3564 1006 c-3 -8 -4 -25 -2 -38 3 -21 9 -23 66 -26 l62 -3 0 -164 0
-165 40 0 40 0 0 165 0 164 63 3 62 3 3 38 3 37 -166 0 c-134 0 -167 -3 -171
-14z"/>
<path d="M3967 1013 c-4 -3 -7 -96 -7 -205 l0 -198 125 0 c135 0 169 9 199 52
23 32 20 100 -5 131 -16 21 -18 31 -10 46 16 30 13 104 -5 130 -27 38 -74 51
-187 51 -57 0 -107 -3 -110 -7z m221 -85 c18 -18 14 -56 -7 -68 -11 -5 -47
-10 -80 -10 l-61 0 0 45 0 45 68 0 c40 0 73 -5 80 -12z m17 -168 c8 -7 15 -23
15 -35 0 -30 -42 -45 -121 -45 l-59 0 0 51 0 52 75 -5 c41 -3 81 -11 90 -18z"/>
<path d="M4374 1007 c-2 -7 -3 -98 -2 -202 l3 -190 40 0 40 0 3 68 3 67 48 0
48 0 44 -70 c43 -69 44 -70 86 -70 24 0 43 4 43 8 0 5 -20 40 -44 78 l-45 68
27 18 c51 34 66 96 37 164 -23 55 -75 74 -213 74 -82 0 -114 -3 -118 -13z
m246 -87 c50 -50 9 -90 -92 -90 l-68 0 0 55 0 55 70 0 c57 0 74 -4 90 -20z"/>
<path d="M4795 998 c-3 -13 -4 -104 -3 -203 l3 -180 40 0 40 0 3 180 c3 221 2
225 -43 225 -28 0 -36 -5 -40 -22z"/>
<path d="M5077 1005 c-80 -28 -128 -101 -128 -193 -1 -132 73 -212 196 -212
84 0 159 45 184 111 12 33 7 39 -32 39 -22 0 -38 -9 -57 -32 -22 -26 -34 -32
-83 -36 -54 -4 -58 -3 -92 31 -31 31 -35 41 -35 86 0 63 20 105 60 126 56 29
121 14 158 -37 13 -17 71 -26 85 -12 8 9 -26 75 -50 96 -25 23 -98 48 -137 48
-17 -1 -48 -7 -69 -15z"/>
<path d="M5407 1014 c-4 -4 -7 -97 -7 -206 l0 -198 40 0 40 0 0 73 c0 64 3 76
23 95 13 12 27 22 33 22 5 0 38 -43 73 -95 l65 -95 43 0 c25 0 43 5 43 11 0 6
-37 63 -82 127 l-81 116 66 61 c79 73 86 95 26 95 -37 0 -49 -7 -122 -75 l-82
-75 -5 72 c-5 73 -5 73 -35 76 -17 2 -34 0 -38 -4z"/>
</g>
</svg>
