<?xml version="1.0" standalone="no"?>
<!DOCTYPE svg PUBLIC "-//W3C//DTD SVG 20010904//EN"
 "http://www.w3.org/TR/2001/REC-SVG-20010904/DTD/svg10.dtd">
<svg version="1.0" xmlns="http://www.w3.org/2000/svg"
 width="689.000000pt" height="362.000000pt" viewBox="0 0 689.000000 362.000000"
 preserveAspectRatio="xMidYMid meet">

<g transform="translate(0.000000,362.000000) scale(0.100000,-0.100000)"
fill="#000000" stroke="none">
<path d="M3084 2984 c-18 -15 -18 -15 3 -5 14 7 24 8 28 1 6 -10 -1 -14 -18
-11 -5 1 -6 -3 -2 -9 5 -8 11 -7 21 1 11 9 11 15 3 25 -14 17 -11 17 -35 -2z"/>
<path d="M3043 2946 c1 -6 7 -15 12 -19 6 -5 -4 -7 -21 -5 -18 2 -31 -1 -31
-7 0 -18 51 -11 70 10 15 16 18 17 13 3 -3 -12 -1 -15 10 -11 7 3 14 1 14 -4
0 -5 7 -10 15 -10 8 0 15 5 15 10 0 5 7 4 15 -3 8 -7 15 -9 15 -6 0 4 9 2 19
-4 13 -6 18 -18 16 -31 -3 -12 -1 -29 4 -37 7 -13 11 -11 21 9 12 22 12 23 -3
10 -10 -8 -17 -9 -17 -3 0 6 5 14 10 17 12 7 13 36 2 33 -5 -2 -21 12 -36 30
-15 17 -33 32 -38 32 -6 0 -1 -9 11 -19 12 -11 18 -22 13 -25 -5 -3 -17 3 -27
14 -13 14 -22 17 -31 9 -8 -7 -14 -7 -19 1 -5 8 -11 7 -23 -2 -13 -11 -15 -11
-10 3 4 9 1 16 -7 16 -8 0 -13 -5 -12 -11z m94 -22 c-3 -3 -12 -4 -19 -1 -8 3
-5 6 6 6 11 1 17 -2 13 -5z"/>
<path d="M3248 2868 c8 -8 8 -15 1 -24 -14 -17 9 -30 24 -15 9 9 7 11 -8 5
-16 -5 -18 -4 -8 6 13 14 7 40 -10 40 -8 0 -7 -4 1 -12z"/>
<path d="M2900 2838 c-24 -22 -27 -26 -9 -15 20 12 29 13 38 4 8 -8 14 -8 23
1 10 10 9 15 -2 26 -13 13 -20 10 -50 -16z m47 -4 c-9 -9 -28 6 -21 18 4 6 10
6 17 -1 6 -6 8 -13 4 -17z"/>
<path d="M3295 2830 c3 -5 8 -10 11 -10 2 0 4 5 4 10 0 6 -5 10 -11 10 -5 0
-7 -4 -4 -10z"/>
<path d="M2827 2778 c-24 -18 -30 -47 -6 -32 5 3 7 10 4 15 -9 14 5 11 21 -6
9 -8 20 -15 26 -15 6 0 0 9 -13 20 -13 10 -19 19 -13 20 5 0 15 -5 22 -12 7
-7 12 -9 12 -4 0 4 -6 13 -13 20 -11 11 -18 10 -40 -6z"/>
<path d="M3283 2778 c0 -13 1 -17 4 -10 3 6 8 10 12 8 4 -3 13 0 21 6 12 8 12
9 -2 4 -10 -3 -18 -1 -18 4 0 21 -16 9 -17 -12z"/>
<path d="M3331 2773 c-12 -13 -11 -14 9 -8 15 5 20 3 16 -3 -3 -6 -1 -14 5
-18 8 -4 9 -3 5 4 -4 7 -2 12 4 12 17 0 7 23 -11 25 -8 2 -20 -4 -28 -12z"/>
<path d="M3413 2735 c0 -8 7 -15 15 -15 12 0 12 3 2 15 -7 8 -13 15 -15 15 -1
0 -2 -7 -2 -15z"/>
<path d="M2763 2727 c-3 -6 -1 -7 5 -3 7 4 12 2 12 -3 0 -6 4 -11 8 -11 5 0 9
6 9 13 0 16 -25 18 -34 4z"/>
<path d="M3041 2735 c1 -19 18 -51 18 -35 0 8 -4 22 -9 30 -5 8 -9 11 -9 5z"/>
<path d="M3070 2729 c0 -5 5 -7 10 -4 6 3 10 8 10 11 0 2 -4 4 -10 4 -5 0 -10
-5 -10 -11z"/>
<path d="M2750 2699 c0 -6 -7 -9 -15 -6 -8 4 -17 3 -19 -2 -7 -11 27 -10 42 2
11 9 16 0 14 -24 -1 -3 5 -6 12 -6 7 0 13 6 13 13 0 7 -4 11 -8 9 -4 -3 -9 2
-13 10 -6 17 -26 20 -26 4z"/>
<path d="M3082 2698 c-7 -7 -12 -19 -12 -27 1 -13 2 -13 11 2 12 21 29 22 29
3 0 -8 4 -17 9 -20 5 -4 6 5 2 21 -8 31 -22 38 -39 21z"/>
<path d="M3445 2688 c1 -13 6 -22 11 -20 8 2 9 7 6 32 -4 21 -19 9 -17 -12z"/>
<path d="M3340 2675 c0 -14 4 -25 9 -25 4 0 6 11 3 25 -2 14 -6 25 -8 25 -2 0
-4 -11 -4 -25z"/>
<path d="M3040 2666 c0 -9 -8 -13 -22 -10 l-23 5 23 -10 c12 -6 22 -13 22 -16
0 -9 -38 1 -54 14 -24 20 -19 5 6 -19 18 -16 19 -20 5 -20 -9 0 -21 8 -26 18
-8 13 -10 9 -6 -20 3 -25 0 -38 -11 -42 -8 -3 -14 -1 -14 3 0 5 -11 8 -24 7
-14 0 -22 -6 -19 -14 4 -10 9 -10 19 -1 12 10 13 8 8 -7 -4 -10 -14 -25 -22
-31 -9 -7 -14 -15 -11 -17 2 -3 28 18 58 45 29 27 55 49 57 49 3 0 10 5 17 10
7 6 21 17 32 25 14 11 15 13 3 9 -13 -4 -15 -1 -11 15 3 12 3 21 -1 21 -3 0
-6 -6 -6 -14z"/>
<path d="M2692 2656 c2 -8 -1 -14 -7 -13 -5 1 -9 6 -7 12 2 5 -6 1 -17 -9 -12
-11 -19 -21 -16 -24 3 -3 -3 -14 -12 -25 -17 -19 -17 -19 2 -16 13 3 20 12 20
27 0 12 4 21 10 20 5 -2 9 -13 9 -26 -1 -16 4 -22 15 -20 9 2 16 13 16 28 0
14 5 28 10 32 6 5 5 8 -3 8 -7 0 -10 5 -7 10 3 6 1 10 -5 10 -6 0 -10 -6 -8
-14z m5 -46 c-1 -12 -5 -16 -10 -11 -5 5 -6 14 -3 20 11 16 15 13 13 -9z"/>
<path d="M3140 2650 c0 -5 7 -10 16 -10 8 0 12 5 9 10 -3 6 -10 10 -16 10 -5
0 -9 -4 -9 -10z"/>
<path d="M3173 2640 c-8 -12 -9 -21 -3 -25 6 -3 10 -1 10 5 0 6 4 9 8 6 4 -2
8 4 8 15 0 24 -8 24 -23 -1z"/>
<path d="M3546 2625 c4 -10 1 -14 -7 -12 -8 2 -11 2 -6 0 4 -3 4 -10 1 -16 -5
-8 -2 -8 7 1 20 18 33 15 18 -5 -11 -15 -11 -16 1 -5 18 15 34 16 24 0 -4 -7
-3 -8 4 -4 16 10 16 9 -18 34 -21 16 -28 18 -24 7z"/>
<path d="M3320 2570 c-6 -11 -8 -26 -4 -33 6 -9 4 -9 -7 -1 -8 6 -27 14 -44
18 l-30 8 30 -24 c16 -13 33 -24 37 -24 5 -1 11 -3 16 -4 4 -1 11 -2 15 -1 12
2 37 -26 30 -33 -3 -3 -13 0 -22 6 -13 9 -12 8 1 -7 9 -10 27 -19 40 -20 13
-1 23 -7 23 -12 0 -6 3 -14 7 -18 11 -12 3 22 -10 37 -8 11 -9 17 0 26 8 8 6
10 -8 8 -24 -4 -44 11 -38 29 3 7 1 16 -5 20 -6 3 -9 0 -5 -8 3 -8 -1 -17 -9
-20 -11 -4 -14 1 -13 19 0 13 9 27 19 30 9 3 15 10 12 15 -10 15 -24 10 -35
-11z m67 -95 c0 -8 -4 -15 -9 -15 -10 0 -11 14 -1 23 9 10 10 9 10 -8z"/>
<path d="M2597 2559 c-5 -18 -11 -20 -32 -15 -16 4 -24 3 -21 -3 4 -5 -2 -17
-11 -27 -19 -19 -14 -18 40 8 25 12 45 43 34 54 -2 3 -7 -5 -10 -17z"/>
<path d="M3267 2568 c6 -11 43 -10 43 1 0 5 -11 8 -24 7 -13 0 -22 -4 -19 -8z"/>
<path d="M3623 2563 c-7 -2 -13 -11 -13 -18 0 -16 35 -29 52 -19 8 5 9 2 5 -9
-4 -11 -2 -14 7 -11 7 3 20 -2 29 -10 9 -9 20 -16 26 -16 7 0 7 -8 -1 -25 -6
-14 -15 -25 -20 -25 -12 0 -10 14 5 29 9 11 9 12 0 7 -7 -4 -17 -15 -22 -24
-8 -16 -4 -18 40 -18 27 0 43 3 36 8 -9 6 -8 8 4 8 8 0 21 -6 29 -12 12 -11
12 -10 1 5 -7 9 -19 17 -27 17 -7 0 -17 6 -21 14 -4 7 -30 30 -57 51 -26 20
-45 32 -41 26 3 -6 -1 -11 -9 -11 -9 0 -13 7 -11 20 2 11 3 20 2 19 -1 0 -8
-3 -14 -6z m131 -112 c3 -5 -1 -11 -9 -14 -9 -4 -12 -1 -8 9 6 16 10 17 17 5z"/>
<path d="M2880 2551 c0 -6 4 -13 10 -16 6 -3 7 1 4 9 -7 18 -14 21 -14 7z"/>
<path d="M2625 2520 c-3 -5 -1 -10 4 -10 6 0 11 5 11 10 0 6 -2 10 -4 10 -3 0
-8 -4 -11 -10z"/>
<path d="M3065 2504 c-16 -13 -25 -24 -19 -24 6 0 18 7 25 16 12 15 14 14 20
-7 7 -23 7 -23 8 -2 1 17 5 21 19 16 18 -6 17 -5 -8 14 -12 9 -22 6 -45 -13z"/>
<path d="M3130 2490 c-12 -7 -10 -9 7 -7 12 0 19 5 17 9 -6 10 -6 10 -24 -2z"/>
<path d="M3416 2485 c-3 -8 0 -17 6 -21 6 -4 8 -3 4 4 -3 5 -1 12 6 14 8 3 9
6 1 11 -6 4 -13 0 -17 -8z"/>
<path d="M2811 2474 c7 -8 6 -14 -3 -17 -7 -3 -3 -4 9 -4 15 1 19 5 13 13 -6
6 -8 13 -5 16 3 2 -2 5 -10 5 -10 0 -12 -4 -4 -13z"/>
<path d="M3685 2480 c-3 -5 -1 -10 4 -10 6 0 11 5 11 10 0 6 -2 10 -4 10 -3 0
-8 -4 -11 -10z"/>
<path d="M2436 2461 c-3 -5 2 -8 11 -7 9 0 18 -5 21 -13 3 -9 0 -11 -8 -6 -9
5 -11 4 -6 -4 4 -6 12 -9 17 -6 14 10 11 32 -7 39 -20 8 -22 8 -28 -3z"/>
<path d="M3153 2458 c1 -7 -6 -12 -15 -12 -10 1 -15 -2 -12 -7 3 -5 0 -9 -7
-9 -7 0 -10 -3 -7 -6 4 -3 15 -1 26 5 13 7 23 7 32 -2 10 -9 11 -9 6 1 -4 6
-3 12 3 12 15 0 33 -38 25 -53 -4 -6 2 -3 14 7 26 22 28 28 7 20 -8 -4 -16 -1
-16 5 -1 6 -2 17 -3 24 -1 6 -9 11 -19 9 -9 -2 -17 2 -17 8 0 5 -4 10 -10 10
-5 0 -9 -6 -7 -12z"/>
<path d="M3016 2453 c-4 -5 -12 -8 -17 -8 -5 0 -8 -4 -7 -10 1 -5 8 -9 15 -7
7 2 13 -4 13 -13 0 -8 7 -15 16 -15 12 0 14 4 7 13 -6 6 -9 20 -8 30 3 18 -6
23 -19 10z"/>
<path d="M3077 2453 c-4 -3 -7 -11 -7 -17 0 -6 5 -5 12 2 6 6 9 14 7 17 -3 3
-9 2 -12 -2z"/>
<path d="M3431 2433 c-1 -13 4 -23 10 -23 5 0 7 -5 3 -12 -5 -8 0 -9 14 -6 22
6 35 -4 38 -30 2 -8 4 -15 6 -15 2 -1 18 -15 36 -32 26 -24 32 -26 26 -10 -7
18 -6 18 9 6 9 -7 15 -17 12 -21 -3 -5 -2 -11 3 -14 4 -2 9 8 10 24 1 16 -2
31 -8 35 -6 4 -7 -1 -4 -12 5 -16 4 -16 -10 1 -9 11 -16 14 -16 8 0 -7 -5 -12
-11 -12 -5 0 -7 5 -3 12 4 6 3 8 -3 5 -14 -9 -31 14 -28 36 2 9 -1 15 -5 12
-5 -3 -13 2 -18 10 -5 9 -17 17 -27 19 -10 1 -22 11 -26 22 -7 17 -8 17 -8 -3z"/>
<path d="M2417 2429 c7 -7 15 -10 18 -7 3 3 -2 9 -12 12 -14 6 -15 5 -6 -5z"/>
<path d="M2379 2413 c-8 -9 -9 -14 -2 -10 6 4 13 1 16 -5 3 -7 4 -3 4 10 -1
26 -1 26 -18 5z"/>
<path d="M2646 2405 c-4 -10 -2 -14 5 -9 8 4 9 -1 4 -17 -7 -21 -6 -22 9 -10
13 11 14 17 4 30 -7 9 -13 17 -14 19 -1 2 -4 -4 -8 -13z"/>
<path d="M2680 2407 c0 -5 9 -7 20 -4 11 3 25 -2 32 -11 11 -14 10 -15 -7 -8
-11 4 -16 4 -12 0 9 -10 -11 -34 -26 -30 -7 1 -9 1 -4 -1 4 -3 4 -10 0 -16 -3
-6 10 3 30 19 45 35 45 58 -1 59 -17 0 -32 -3 -32 -8z"/>
<path d="M3237 2390 c-9 -11 -13 -20 -7 -20 5 0 14 9 20 20 6 11 9 20 8 20 -2
0 -11 -9 -21 -20z"/>
<path d="M3680 2401 c0 -6 5 -13 10 -16 6 -3 10 1 10 9 0 9 -4 16 -10 16 -5 0
-10 -4 -10 -9z"/>
<path d="M2323 2371 c-28 -23 -30 -27 -12 -28 11 -1 17 2 14 8 -4 5 0 9 9 9 8
0 16 -5 18 -12 3 -9 6 -9 12 0 4 7 2 12 -4 12 -6 0 -8 5 -5 10 5 8 11 7 21 -1
8 -6 14 -7 14 -3 0 5 -8 14 -18 20 -14 9 -24 6 -49 -15z"/>
<path d="M3843 2385 c0 -8 4 -12 9 -9 5 3 6 10 3 15 -9 13 -12 11 -12 -6z"/>
<path d="M2939 2378 c7 -9 9 -23 5 -30 -6 -10 -4 -11 7 0 11 10 10 15 -6 30
-17 15 -18 15 -6 0z"/>
<path d="M3267 2383 c19 -13 -1 -36 -25 -29 -11 4 -23 3 -25 -1 -5 -8 23 -10
60 -5 16 3 9 35 -8 40 -10 2 -11 1 -2 -5z"/>
<path d="M2889 2363 c-7 -10 -9 -15 -5 -11 5 4 15 3 22 -3 14 -12 29 4 19 21
-9 15 -21 12 -36 -7z m31 -3 c0 -5 -2 -10 -4 -10 -3 0 -8 5 -11 10 -3 6 -1 10
4 10 6 0 11 -4 11 -10z"/>
<path d="M2980 2370 c0 -5 5 -10 10 -10 6 0 10 5 10 10 0 6 -4 10 -10 10 -5 0
-10 -4 -10 -10z"/>
<path d="M3303 2355 c0 -8 4 -12 9 -9 5 3 6 10 3 15 -9 13 -12 11 -12 -6z"/>
<path d="M3850 2360 c-16 -11 -15 -11 18 -15 12 -1 21 2 19 8 -5 15 -20 18
-37 7z"/>
<path d="M2450 2330 c0 -5 7 -10 15 -10 8 0 15 5 15 10 0 6 -7 10 -15 10 -8 0
-15 -4 -15 -10z"/>
<path d="M2583 2328 c-5 -7 -9 -20 -8 -28 0 -8 -4 -19 -10 -23 -6 -5 -4 -7 5
-4 8 2 14 14 14 25 -1 13 5 22 12 22 8 0 14 5 14 10 0 14 -16 12 -27 -2z"/>
<path d="M2613 2321 c-12 -19 -8 -31 11 -31 6 0 4 5 -4 11 -12 8 -12 10 5 8
34 -2 38 0 25 16 -16 20 -23 19 -37 -4z"/>
<path d="M2845 2331 c-3 -6 -3 -10 2 -9 4 2 9 -1 11 -7 1 -5 -2 -10 -7 -10 -5
0 -12 -3 -16 -7 -4 -4 -14 -4 -23 -1 -9 4 -13 2 -9 -4 4 -6 2 -13 -5 -15 -6
-2 -13 -15 -15 -28 -2 -13 -9 -28 -16 -32 -9 -6 -9 -8 0 -8 7 0 20 16 29 35 9
19 21 35 26 35 5 0 6 -4 3 -10 -11 -18 4 -10 30 16 23 23 25 28 12 41 -10 11
-17 12 -22 4z"/>
<path d="M3330 2331 c0 -5 9 -13 20 -16 12 -4 17 -11 14 -18 -4 -7 -4 -9 1 -5
4 4 17 2 28 -3 16 -9 17 -13 6 -20 -11 -7 -10 -9 4 -9 27 0 20 14 -22 48 -42
34 -51 38 -51 23z"/>
<path d="M2290 2322 c0 -5 7 -9 15 -9 8 0 15 4 15 9 0 4 -7 8 -15 8 -8 0 -15
-4 -15 -8z"/>
<path d="M3280 2320 c0 -5 5 -10 11 -10 5 0 7 5 4 10 -3 6 -8 10 -11 10 -2 0
-4 -4 -4 -10z"/>
<path d="M3924 2306 c0 -12 6 -23 13 -23 10 0 10 3 0 16 -10 12 -9 14 6 8 22
-8 22 0 -1 12 -15 8 -18 6 -18 -13z"/>
<path d="M2240 2300 c-10 -6 -11 -10 -2 -10 6 0 12 -5 12 -11 0 -5 -4 -7 -10
-4 -5 3 -17 2 -26 -3 -11 -6 -6 -9 21 -10 29 -1 38 3 42 18 6 21 24 18 19 -3
-1 -7 -1 -9 1 -4 3 4 8 5 13 2 5 -3 7 3 6 12 -3 20 -53 28 -76 13z"/>
<path d="M2861 2277 c-8 -10 -7 -14 2 -14 8 0 14 6 14 14 0 7 -1 13 -2 13 -2
0 -8 -6 -14 -13z"/>
<path d="M3967 2277 c-3 -7 3 -13 14 -13 13 0 15 3 7 13 -6 7 -12 13 -13 13
-2 0 -5 -6 -8 -13z"/>
<path d="M2589 2263 c-13 -16 -12 -17 4 -4 16 13 21 21 13 21 -2 0 -10 -8 -17
-17z"/>
<path d="M3365 2269 c-4 -6 -5 -12 -2 -15 2 -3 7 2 10 11 7 17 1 20 -8 4z"/>
<path d="M3288 2263 c7 -3 16 -2 19 1 4 3 -2 6 -13 5 -11 0 -14 -3 -6 -6z"/>
<path d="M2485 2243 c-2 -8 2 -16 10 -19 8 -4 12 -10 9 -15 -3 -5 -9 -7 -13
-5 -4 3 -8 -1 -8 -9 0 -13 3 -13 17 0 9 8 21 12 25 8 5 -5 3 1 -5 11 -14 18
-13 19 7 14 13 -4 25 -2 28 2 3 5 -12 7 -32 5 -37 -3 -37 -3 -13 10 24 13 24
14 3 12 -12 -1 -25 -7 -28 -14z"/>
<path d="M2548 2253 c7 -3 16 -2 19 1 4 3 -2 6 -13 5 -11 0 -14 -3 -6 -6z"/>
<path d="M3630 2258 c0 -11 62 -69 68 -64 3 4 -5 14 -17 23 -16 11 -19 18 -11
23 9 5 9 9 1 14 -6 4 -11 2 -11 -5 0 -8 -4 -8 -15 1 -8 7 -15 10 -15 8z"/>
<path d="M3440 2240 c0 -5 5 -10 11 -10 5 0 7 5 4 10 -3 6 -8 10 -11 10 -2 0
-4 -4 -4 -10z"/>
<path d="M4004 2236 c2 -13 37 -53 43 -48 13 10 18 -3 15 -34 -3 -26 -1 -35 7
-30 6 4 12 2 12 -3 1 -6 2 -15 3 -19 2 -15 65 -82 76 -82 6 0 8 5 4 12 -5 7
-3 8 7 2 18 -11 129 -12 123 -2 -3 5 -9 6 -14 3 -5 -3 -12 4 -15 16 -4 12 -12
18 -21 15 -7 -3 -16 0 -20 6 -5 7 -2 8 7 3 8 -5 11 -4 6 0 -4 5 -17 10 -29 12
-23 4 -40 22 -32 35 2 4 -4 12 -15 17 -24 14 -41 14 -21 1 12 -7 10 -9 -7 -7
-12 0 -21 4 -21 7 1 3 -2 17 -6 33 -6 20 -15 27 -32 27 -13 0 -24 5 -24 10 0
6 -3 9 -7 9 -20 -3 -34 2 -28 10 3 5 1 12 -4 15 -5 4 -8 0 -7 -8z m163 -121
c0 -10 -6 -14 -14 -10 -8 3 -18 5 -21 6 -4 0 2 4 13 9 11 5 20 9 21 9 0 1 1
-6 1 -14z m38 -46 c11 -16 1 -19 -13 -3 -7 8 -8 14 -3 14 5 0 13 -5 16 -11z"/>
<path d="M2156 2231 c-4 -5 3 -7 14 -4 23 6 26 13 6 13 -8 0 -17 -4 -20 -9z"/>
<path d="M2700 2210 c-14 -11 -21 -20 -17 -20 5 0 20 9 34 20 14 11 22 20 17
20 -5 0 -20 -9 -34 -20z"/>
<path d="M3470 2222 c0 -7 -7 -12 -15 -12 -18 0 -20 -16 -3 -26 7 -4 8 -3 4 4
-9 16 7 15 22 0 9 -9 10 -6 7 12 -5 25 -15 40 -15 22z"/>
<path d="M3751 2214 c0 -11 3 -14 6 -6 3 7 2 16 -1 19 -3 4 -6 -2 -5 -13z"/>
<path d="M2119 2204 c-6 -8 -9 -17 -5 -21 3 -3 6 -1 6 5 0 6 10 12 23 14 18 3
19 4 5 10 -10 4 -22 1 -29 -8z"/>
<path d="M2756 2192 c-2 -4 4 -8 14 -8 10 0 16 4 14 8 -3 4 -9 8 -14 8 -5 0
-11 -4 -14 -8z"/>
<path d="M2406 2172 c-3 -5 1 -12 9 -16 8 -3 15 -11 15 -17 0 -8 -4 -8 -15 1
-10 9 -15 9 -15 1 0 -6 5 -11 11 -11 5 0 7 -6 3 -12 -4 -7 5 -2 19 11 15 13
24 27 22 32 -3 4 1 9 7 12 7 3 3 4 -9 4 -13 -1 -23 -6 -23 -12 0 -5 -4 -4 -9
4 -5 8 -11 9 -15 3z"/>
<path d="M2646 2171 c-4 -5 3 -7 14 -4 23 6 26 13 6 13 -8 0 -17 -4 -20 -9z"/>
<path d="M3524 2169 c-5 -8 -3 -9 6 -4 10 6 12 4 7 -8 -3 -9 -2 -19 4 -23 6
-4 5 -12 -3 -22 -11 -15 -11 -15 3 -4 10 7 27 15 39 17 19 4 20 2 8 -12 -7 -9
-8 -14 -2 -10 14 8 27 -20 17 -36 -3 -7 -3 -9 2 -5 4 4 14 3 22 -3 9 -9 13 -8
13 0 0 6 -4 11 -10 11 -5 0 -10 7 -10 16 0 14 1 14 16 0 8 -9 17 -25 19 -37 3
-16 0 -19 -13 -14 -12 4 -14 3 -6 -5 13 -13 46 -2 38 14 -3 6 0 4 8 -4 7 -8
18 -16 23 -17 6 -1 19 -4 30 -8 11 -3 5 2 -13 12 -18 11 -30 22 -26 26 4 4 1
7 -8 7 -8 0 -25 11 -38 25 -12 13 -26 22 -30 20 -4 -3 -10 5 -13 16 -5 17 -11
20 -31 15 -24 -6 -47 9 -25 16 7 2 6 8 -4 16 -12 10 -17 10 -23 1z"/>
<path d="M3764 2165 c-12 -9 -12 -13 1 -33 9 -12 22 -22 28 -22 7 0 6 4 -3 10
-8 5 -11 10 -6 10 6 0 1 7 -10 16 -19 15 -19 15 0 9 11 -3 23 0 27 7 4 7 11 9
15 5 4 -3 2 -12 -4 -19 -7 -9 -6 -17 3 -25 8 -7 16 -9 20 -4 3 5 -1 12 -7 14
-10 4 -10 6 0 6 9 1 10 6 2 20 -11 21 -43 24 -66 6z"/>
<path d="M2069 2155 c-1 -3 -3 -9 -4 -15 -1 -5 -3 -13 -4 -16 0 -4 -7 -1 -15
5 -11 9 -19 5 -40 -19 -14 -18 -26 -28 -26 -23 0 4 -4 3 -8 -2 -4 -6 -22 -21
-39 -34 -18 -12 -33 -28 -33 -34 0 -8 3 -7 9 2 5 8 14 10 21 6 8 -5 11 -4 6 3
-3 6 -2 13 3 16 5 4 11 1 14 -6 2 -7 3 -5 1 5 -1 11 6 19 22 23 13 3 24 12 24
19 0 20 27 39 32 23 4 -11 8 -11 20 0 13 10 17 10 21 0 2 -7 4 2 3 20 -1 29
-4 40 -7 27z"/>
<path d="M2601 2136 c-16 -19 -7 -35 17 -33 12 0 18 8 17 21 -2 25 -18 31 -34
12z m21 -3 c-6 -2 -10 -9 -6 -14 3 -5 0 -9 -5 -9 -12 0 -14 13 -4 23 3 4 11 7
17 6 6 0 5 -3 -2 -6z"/>
<path d="M3927 2136 c-8 -9 -20 -16 -25 -16 -5 0 -17 -12 -27 -26 -9 -14 -19
-23 -23 -19 -4 3 -1 10 6 14 8 5 1 8 -18 8 -16 0 -29 -1 -27 -1 1 -1 22 -19
46 -41 24 -22 41 -34 37 -27 -4 7 -2 12 6 12 9 0 9 3 -2 10 -13 8 -12 10 3 10
14 0 16 -5 11 -25 -3 -14 -2 -25 4 -25 18 0 20 48 3 56 -12 5 -7 9 19 19 23 8
41 9 53 3 32 -16 65 29 36 48 -26 16 -86 15 -102 0z"/>
<path d="M2660 2130 c-12 -8 -11 -10 8 -10 12 0 22 5 22 10 0 13 -11 13 -30 0z"/>
<path d="M2324 2088 c-9 -15 4 -22 19 -10 8 7 16 11 18 9 2 -1 3 0 1 2 -6 10
-32 9 -38 -1z"/>
<path d="M2523 2068 c-13 -6 -23 -15 -23 -20 0 -12 14 -10 30 5 8 6 7 3 -3 -9
-16 -20 -16 -21 3 -19 11 1 23 5 27 10 5 4 2 5 -5 1 -16 -9 -13 25 3 36 15 12
-6 9 -32 -4z"/>
<path d="M4035 2069 c-24 -23 -84 -57 -91 -51 -4 4 -4 1 0 -5 4 -8 2 -13 -6
-13 -8 0 -6 -4 4 -11 12 -7 24 -6 38 1 16 9 18 8 14 -5 -4 -8 -11 -15 -18 -15
-6 0 -4 -5 4 -10 8 -5 20 -10 25 -10 6 0 4 4 -4 9 -11 7 -9 12 10 21 13 7 27
18 31 24 5 8 11 7 19 -1 10 -10 10 -18 1 -38 -7 -15 -16 -24 -21 -20 -19 11
-23 -17 -6 -35 21 -23 42 -15 23 8 -12 15 -11 16 6 2 17 -13 21 -12 42 15 32
40 30 73 -6 113 -30 33 -47 38 -65 21z m-60 -68 c-3 -6 -11 -11 -17 -11 -6 0
-6 6 2 15 14 17 26 13 15 -4z"/>
<path d="M1975 2050 c-3 -6 1 -7 9 -4 18 7 21 14 7 14 -6 0 -13 -4 -16 -10z"/>
<path d="M3607 2043 c-10 -9 -9 -33 1 -33 4 0 8 9 8 20 0 23 0 22 -9 13z"/>
<path d="M2470 2020 c0 -5 7 -7 15 -4 8 4 15 8 15 10 0 2 -7 4 -15 4 -8 0 -15
-4 -15 -10z"/>
<path d="M1876 2011 c-4 -6 -1 -14 8 -17 8 -3 13 -14 11 -24 -3 -13 1 -17 12
-13 12 5 12 7 1 14 -10 7 -10 9 0 9 6 0 12 5 12 11 0 5 -4 8 -9 4 -6 -3 -14 2
-19 11 -6 11 -11 13 -16 5z"/>
<path d="M2215 2009 c6 -9 3 -11 -9 -6 -10 4 -15 3 -11 -4 4 -5 16 -7 27 -3
14 4 18 2 14 -5 -12 -19 20 -12 38 8 15 17 15 19 2 17 -8 -1 -18 -5 -22 -9 -4
-3 -16 -2 -27 4 -15 9 -18 8 -12 -2z"/>
<path d="M4326 2000 c14 -17 19 -220 6 -220 -4 0 -13 5 -19 11 -8 8 -18 6 -35
-5 -14 -9 -27 -14 -30 -11 -2 3 -5 -17 -7 -45 -2 -57 12 -70 72 -67 38 2 44
12 39 72 -1 11 -2 72 -1 136 0 100 -3 118 -18 130 -16 12 -17 12 -7 -1z"/>
<path d="M2168 1993 c0 -5 -2 -12 -3 -18 -2 -5 -3 -16 -4 -22 0 -7 -6 -12 -12
-10 -6 1 -14 -4 -16 -10 -3 -7 1 -13 7 -13 10 0 10 -3 0 -15 -7 -8 -17 -12
-23 -8 -6 3 -7 1 -3 -6 5 -8 19 -2 45 18 56 45 65 57 45 65 -9 3 -21 3 -27 -1
-6 -4 -8 0 -4 10 3 10 4 17 2 17 -3 0 -6 -3 -7 -7z m14 -55 c-18 -19 -24 -20
-34 -9 -7 8 -8 11 -2 8 6 -4 19 2 29 13 10 11 21 18 24 15 2 -3 -5 -15 -17
-27z"/>
<path d="M2445 1991 c-7 -12 12 -24 25 -16 11 7 4 25 -10 25 -5 0 -11 -4 -15
-9z"/>
<path d="M3630 1990 c0 -13 11 -13 30 0 12 8 11 10 -7 10 -13 0 -23 -4 -23
-10z"/>
<path d="M3756 1991 c-3 -4 -16 -6 -29 -4 -13 3 -30 -2 -38 -9 -8 -8 -22 -17
-32 -21 -9 -3 -16 -10 -16 -14 1 -4 -4 -24 -11 -43 -8 -19 -12 -37 -11 -39 1
-2 -3 -8 -11 -12 -10 -7 -9 -9 5 -9 9 0 17 -8 17 -17 0 -9 7 -24 16 -34 15
-16 13 -17 -23 -9 -29 7 -270 14 -360 10 -7 0 -13 -9 -13 -20 0 -15 9 -22 30
-27 17 -3 35 -14 40 -24 6 -10 10 -113 10 -232 0 -195 -2 -215 -18 -230 -18
-17 -63 -23 -75 -11 -3 4 -1 16 5 27 10 20 11 20 24 -4 7 -13 13 -18 14 -11 0
7 4 11 9 7 5 -3 13 0 17 6 8 14 8 178 0 187 -3 3 -6 -33 -6 -79 0 -58 -3 -79
-10 -69 -6 9 -10 10 -10 3 0 -6 5 -15 10 -18 6 -3 10 -11 10 -17 0 -7 -7 -5
-17 4 -26 21 -61 20 -93 -4 -18 -13 -35 -18 -49 -13 -20 6 -21 13 -21 141 l0
134 48 1 c26 1 57 2 70 2 21 1 33 17 12 17 -5 0 -10 4 -10 9 0 5 8 7 18 4 16
-4 19 -17 21 -96 4 -156 11 -110 9 64 -1 90 -3 145 -5 122 -2 -24 -9 -43 -16
-43 -7 0 -6 -4 3 -10 13 -8 13 -10 -2 -10 -9 0 -28 4 -43 10 -17 7 -24 7 -20
0 4 -6 -12 -10 -39 -10 l-46 0 -1 58 c-1 31 -1 60 0 64 0 4 -11 3 -25 -3 -21
-7 -29 -6 -41 8 -13 17 -13 17 -5 -2 5 -11 7 -27 5 -35 -4 -13 -3 -13 7 0 10
13 11 12 6 -4 -9 -26 -49 -75 -63 -75 -27 -2 -25 24 5 50 24 21 27 29 15 33
-21 9 -30 7 -15 -3 10 -6 7 -12 -12 -25 -14 -9 -26 -23 -26 -31 0 -9 -9 -13
-26 -12 -17 1 -29 -4 -31 -13 -4 -12 -3 -13 5 -1 8 11 12 10 21 -7 6 -11 11
-30 11 -41 0 -16 6 -21 26 -21 l25 0 -1 -117 c-2 -72 2 -130 9 -148 16 -40 50
-75 73 -75 12 0 16 -4 12 -11 -9 -15 26 -5 88 25 26 12 44 18 41 13 -4 -6 -1
-7 6 -3 7 5 18 1 25 -9 11 -15 33 -16 204 -13 165 3 190 1 175 -11 -17 -13
-17 -13 0 -7 10 3 26 6 35 6 14 0 15 2 2 10 -17 10 -13 17 15 22 69 12 118
155 71 207 -11 12 -15 21 -9 21 16 0 10 65 -7 66 -8 1 -21 2 -28 3 -7 0 -10 5
-7 11 4 6 -1 7 -12 3 -12 -4 -9 4 12 26 26 28 30 40 30 91 0 48 -4 63 -25 87
l-25 28 26 -22 c14 -13 30 -23 37 -23 7 0 9 -7 5 -17 -7 -17 -6 -17 11 0 10 9
22 15 27 12 5 -4 9 -2 9 4 0 5 10 11 22 13 33 4 70 65 66 107 -2 22 2 36 11
39 8 3 11 0 7 -7 -4 -6 -4 -10 1 -9 4 2 9 -1 10 -5 1 -4 8 -18 17 -31 9 -15
11 -27 5 -33 -13 -13 22 -13 39 0 8 6 12 6 12 -2 0 -6 3 -10 8 -10 18 3 32 -2
32 -12 0 -5 -4 -7 -10 -4 -5 3 -11 3 -11 -2 -6 -35 -5 -52 2 -47 4 2 5 12 2
22 -6 15 -5 15 10 3 9 -7 15 -17 12 -21 -8 -14 13 -22 31 -12 15 8 15 10 0 15
-8 3 -13 13 -10 20 3 9 -7 23 -23 36 -15 11 -33 25 -40 30 -7 7 -13 5 -17 -4
-3 -8 -10 -15 -16 -15 -6 0 -9 4 -5 9 3 5 0 13 -6 16 -5 4 -8 13 -5 21 7 19
-53 67 -77 60 -14 -3 -17 -2 -9 6 7 7 -1 20 -26 42 -19 17 -39 32 -44 32 -4 1
-13 2 -19 3 -5 0 -7 6 -4 11 3 6 4 10 1 10 -3 0 -7 -4 -10 -9z m49 -88 c20
-21 35 -46 35 -60 0 -38 -39 -71 -90 -78 -30 -3 -40 -2 -30 4 12 9 11 14 -8
34 -12 13 -22 31 -22 41 0 9 -4 15 -9 12 -9 -6 -7 37 4 53 3 6 15 11 26 11 11
0 18 4 15 8 -2 4 6 9 19 10 16 1 36 -10 60 -35z m245 -153 c0 -5 -2 -10 -4
-10 -3 0 -8 5 -11 10 -3 6 -1 10 4 10 6 0 11 -4 11 -10z m-462 -46 c26 -30 30
-74 6 -74 -20 0 -53 39 -54 64 0 11 -5 16 -14 13 -7 -3 -21 4 -31 15 -17 21
-17 21 26 14 29 -4 52 -15 67 -32z m-119 -66 c3 -109 11 -132 11 -32 l0 69 22
-35 c12 -19 21 -38 20 -42 -1 -4 5 -5 13 -2 11 5 13 2 9 -10 -3 -9 -9 -16 -13
-16 -4 0 -8 -6 -8 -14 0 -8 6 -12 14 -9 7 3 10 10 6 16 -4 6 0 8 10 4 9 -3 23
1 32 9 8 9 15 11 15 5 0 -21 -64 -51 -107 -51 l-43 0 0 100 c0 55 4 100 8 100
5 0 9 -42 11 -92z m-501 -35 c-6 -7 -12 -13 -13 -13 -2 0 -5 6 -8 13 -3 7 3
13 14 13 13 0 15 -3 7 -13z m271 -10 c0 -5 -4 -17 -9 -28 -8 -18 -9 -17 -9 8
-1 15 4 27 9 27 6 0 10 -3 9 -7z m38 -9 c-3 -3 -12 -4 -19 -1 -8 3 -5 6 6 6
11 1 17 -2 13 -5z m407 -60 c9 -3 13 -10 10 -15 -3 -6 8 -7 27 -4 28 5 31 4
19 -10 -9 -11 -9 -15 -1 -15 7 0 9 -5 5 -11 -5 -8 -9 -8 -14 1 -4 6 -11 12
-16 12 -8 1 -53 18 -63 24 -3 3 8 24 14 24 2 0 10 -3 19 -6z m-199 -43 c-3 -5
-1 -12 4 -15 5 -3 11 0 14 8 9 22 75 3 110 -33 25 -24 30 -38 30 -76 0 -30 -6
-55 -20 -73 -21 -29 -53 -42 -53 -22 0 7 7 10 15 7 8 -4 17 -2 20 3 4 6 -4 11
-17 11 -13 1 -30 2 -38 3 -8 1 -20 4 -27 9 -15 9 -27 -9 -19 -29 5 -14 8 -13
28 0 31 22 41 20 26 -4 -11 -17 -22 -20 -58 -18 l-45 3 -3 112 c-2 100 -1 112
15 116 10 3 19 5 21 6 2 0 1 -3 -3 -8z"/>
<path d="M3775 1881 c-3 -6 1 -14 9 -17 9 -3 16 -13 16 -21 0 -13 3 -13 16 -2
13 11 13 14 3 17 -8 2 -19 11 -26 19 -7 9 -13 11 -18 4z"/>
<path d="M3714 1865 c21 -16 32 -13 21 4 -3 6 -14 11 -23 11 -15 -1 -15 -2 2
-15z"/>
<path d="M3761 1844 c0 -11 3 -14 6 -6 3 7 2 16 -1 19 -3 4 -6 -2 -5 -13z"/>
<path d="M3473 1380 c0 -25 2 -35 4 -22 2 12 2 32 0 45 -2 12 -4 2 -4 -23z"/>
<path d="M3612 1385 c-17 -36 -14 -55 3 -25 8 14 14 19 15 11 0 -8 2 -12 5 -9
3 3 2 15 -3 27 -8 23 -8 23 -20 -4z"/>
<path d="M3600 1320 c0 -5 5 -10 10 -10 6 0 10 5 10 10 0 6 -4 10 -10 10 -5 0
-10 -4 -10 -10z"/>
<path d="M3465 1289 c-4 -6 -2 -16 5 -22 10 -9 11 -9 6 0 -3 6 -1 13 6 15 9 3
9 6 1 11 -7 4 -15 2 -18 -4z"/>
<path d="M1860 1981 c10 -7 11 -11 3 -11 -10 0 -13 -38 -13 -157 0 -86 3 -153
7 -150 3 4 5 66 5 138 -1 73 2 137 6 143 13 17 9 39 -8 43 -13 4 -13 3 0 -6z"/>
<path d="M2415 1970 c4 -7 1 -10 -8 -8 -8 2 -31 -12 -51 -30 -20 -18 -37 -31
-38 -30 -2 1 -12 -5 -23 -14 -11 -9 -31 -26 -45 -37 -20 -17 -21 -20 -5 -14
11 3 24 13 28 20 5 7 12 11 18 8 5 -4 9 -1 9 4 0 6 5 11 11 11 5 0 8 -4 5 -8
-2 -4 4 -8 14 -8 10 0 16 4 13 9 -3 5 3 6 14 3 26 -8 43 12 39 47 -3 21 0 27
10 23 8 -3 14 0 14 7 0 8 3 8 9 -2 6 -9 11 -10 15 -3 4 6 -3 16 -15 22 -16 9
-20 9 -14 0z m-41 -52 c-18 -20 -18 -21 -1 -15 13 5 17 3 15 -5 -3 -7 -19 -13
-37 -14 l-32 -2 28 28 c33 33 55 40 27 8z"/>
<path d="M4151 1954 c0 -11 3 -14 6 -6 3 7 2 16 -1 19 -3 4 -6 -2 -5 -13z"/>
<path d="M3600 1951 c0 -6 4 -13 10 -16 6 -3 7 1 4 9 -7 18 -14 21 -14 7z"/>
<path d="M1904 1935 c-3 -8 -4 -20 -2 -27 3 -7 7 -1 10 15 6 29 1 36 -8 12z"/>
<path d="M1882 1920 c0 -14 2 -19 5 -12 2 6 2 18 0 25 -3 6 -5 1 -5 -13z"/>
<path d="M2085 1893 c0 -15 -6 -34 -15 -43 -16 -18 -35 -16 -24 2 4 7 2 8 -5
4 -6 -4 -8 -12 -5 -18 4 -6 1 -8 -7 -6 -8 3 -13 11 -11 17 1 7 -2 10 -8 6 -8
-5 -8 -11 -1 -19 7 -9 7 -16 -1 -24 -7 -7 -8 -12 -4 -12 5 0 2 -8 -5 -17 -11
-15 -10 -15 8 1 13 10 20 23 17 27 -3 5 0 10 5 10 6 1 15 2 19 3 30 4 65 77
44 90 -5 3 -8 -7 -7 -21z"/>
<path d="M1876 1865 c-3 -9 -6 -22 -5 -28 0 -7 5 -1 10 12 5 13 8 26 5 28 -2
2 -6 -3 -10 -12z"/>
<path d="M4103 1867 c0 -8 6 -14 13 -14 7 0 10 6 7 14 -3 7 -8 13 -12 13 -4 0
-8 -6 -8 -13z"/>
<path d="M4148 1868 c-5 -12 1 -19 23 -28 16 -7 29 -17 29 -22 0 -7 -4 -7 -12
-1 -7 6 -22 13 -33 16 -18 7 -19 6 -3 -6 10 -8 14 -18 10 -22 -4 -5 -1 -5 6
-1 7 4 15 0 19 -10 6 -15 7 -14 15 6 5 15 4 28 -4 38 -11 13 -10 15 4 9 10 -3
20 -2 23 3 3 5 -10 7 -29 5 -26 -2 -36 1 -38 14 -3 15 -4 15 -10 -1z"/>
<path d="M3380 1850 l-65 -7 60 -1 c33 -1 67 3 75 8 8 5 11 9 5 8 -5 -1 -39
-4 -75 -8z"/>
<path d="M3533 1853 c9 -2 25 -2 35 0 9 3 1 5 -18 5 -19 0 -27 -2 -17 -5z"/>
<path d="M1885 1780 c-4 -39 -5 -73 -2 -76 2 -3 8 27 11 67 4 39 5 73 3 76 -3
2 -8 -28 -12 -67z"/>
<path d="M2300 1840 c0 -5 5 -10 10 -10 6 0 10 5 10 10 0 6 -4 10 -10 10 -5 0
-10 -4 -10 -10z"/>
<path d="M3210 1835 c-11 -13 -8 -13 16 -5 16 5 38 11 49 13 11 3 4 5 -16 6
-21 1 -42 -5 -49 -14z"/>
<path d="M4298 1843 c7 -3 16 -2 19 1 4 3 -2 6 -13 5 -11 0 -14 -3 -6 -6z"/>
<path d="M2215 1809 c3 -17 1 -19 -10 -9 -7 6 -16 7 -19 2 -3 -5 6 -14 19 -20
21 -10 25 -9 26 6 0 10 3 12 6 5 2 -7 9 -13 14 -13 16 0 9 14 -16 33 -23 17
-24 17 -20 -4z"/>
<path d="M3318 1823 c23 -2 61 -2 85 0 23 2 4 4 -43 4 -47 0 -66 -2 -42 -4z"/>
<path d="M3488 1823 c7 -3 16 -2 19 1 4 3 -2 6 -13 5 -11 0 -14 -3 -6 -6z"/>
<path d="M4226 1821 c3 -7 1 -17 -6 -21 -7 -5 -2 -7 13 -7 15 0 29 7 32 16 5
13 4 13 -6 4 -10 -10 -15 -9 -26 5 -8 9 -11 11 -7 3z"/>
<path d="M4295 1820 c-3 -5 -1 -10 4 -10 6 0 11 5 11 10 0 6 -2 10 -4 10 -3 0
-8 -4 -11 -10z"/>
<path d="M3248 1813 c7 -3 16 -2 19 1 4 3 -2 6 -13 5 -11 0 -14 -3 -6 -6z"/>
<path d="M3480 1810 l-45 -7 40 -1 c22 -1 47 3 55 8 8 5 11 9 5 8 -5 0 -30 -4
-55 -8z"/>
<path d="M4907 1805 c-66 -14 -98 -35 -54 -35 16 0 30 -8 37 -19 13 -26 13
-451 0 -486 -6 -15 -19 -29 -30 -32 -49 -13 -11 -23 85 -23 100 0 134 10 80
24 -23 6 -25 10 -25 72 0 57 2 65 18 62 9 -2 40 -38 67 -80 l50 -77 78 -1 c80
0 98 11 48 28 -22 8 -48 38 -97 111 l-66 100 47 55 c31 35 57 56 73 58 14 2
27 9 30 16 3 9 -18 12 -83 12 -65 0 -86 -3 -83 -12 3 -7 14 -14 26 -16 12 -2
22 -7 22 -11 0 -9 -87 -113 -104 -123 -6 -4 -14 -8 -18 -8 -5 0 -8 83 -8 184
0 101 -3 191 -6 200 -7 18 -9 18 -87 1z"/>
<path d="M3203 1785 c0 -8 4 -12 8 -9 4 2 9 -6 11 -18 3 -19 5 -17 9 10 4 25
2 32 -11 32 -9 0 -17 -7 -17 -15z"/>
<path d="M1283 1763 c-12 -29 -9 -116 3 -120 6 -2 17 10 24 27 18 44 56 70
101 70 73 0 69 14 69 -245 0 -243 -1 -248 -44 -256 -11 -2 -21 -10 -24 -16 -3
-10 26 -13 123 -13 97 0 126 3 123 13 -3 6 -13 14 -24 15 -41 7 -44 26 -44
257 0 159 3 224 12 233 7 7 33 12 58 12 51 0 78 -18 105 -71 31 -60 48 -17 30
77 l-6 34 -250 0 c-228 0 -250 -1 -256 -17z"/>
<path d="M1939 1774 c-1 -2 -2 -7 -3 -11 -1 -5 -5 -14 -10 -21 -4 -7 -5 -16
-2 -19 3 -4 6 -1 6 5 0 7 5 11 11 10 6 -2 17 6 25 17 12 19 12 21 -6 22 -11 1
-21 0 -21 -3z m21 -13 c0 -6 -4 -12 -8 -15 -5 -3 -9 1 -9 9 0 8 4 15 9 15 4 0
8 -4 8 -9z"/>
<path d="M3050 1770 c8 -5 15 -16 16 -25 3 -23 11 -29 19 -16 3 6 2 11 -4 11
-6 0 -8 7 -5 15 4 8 10 13 14 10 5 -3 11 -1 14 4 3 5 -10 9 -30 9 -24 0 -32
-3 -24 -8z"/>
<path d="M1902 1735 c0 -16 2 -22 5 -12 2 9 2 23 0 30 -3 6 -5 -1 -5 -18z"/>
<path d="M3142 1748 c6 -18 28 -21 28 -4 0 9 -7 16 -16 16 -9 0 -14 -5 -12
-12z"/>
<path d="M3206 1727 c1 -9 -5 -21 -14 -26 -10 -5 -13 -13 -8 -18 5 -4 11 -2
13 5 3 6 11 12 19 12 8 0 14 5 14 10 0 6 -4 10 -9 10 -5 0 -11 6 -14 13 -2 6
-3 4 -1 -6z"/>
<path d="M2102 1728 c-7 -7 -11 -39 -10 -77 1 -59 2 -60 5 -16 6 98 27 132 32
53 3 -51 11 -65 11 -19 0 29 3 32 23 26 12 -3 17 -3 11 2 -6 4 -13 14 -16 22
-5 18 -41 24 -56 9z"/>
<path d="M3240 1734 c0 -3 7 -12 15 -20 8 -9 15 -11 15 -5 0 5 10 8 22 6 12
-3 18 -1 12 4 -11 11 -64 23 -64 15z"/>
<path d="M4099 1728 c0 -2 -3 -18 -6 -37 -3 -22 -1 -31 6 -26 6 3 10 20 9 36
-2 25 -6 36 -9 27z"/>
<path d="M2250 1689 c0 -5 5 -7 10 -4 6 3 10 8 10 11 0 2 -4 4 -10 4 -5 0 -10
-5 -10 -11z"/>
<path d="M2880 1685 c0 -9 6 -12 15 -9 8 4 15 10 15 15 0 5 -7 9 -15 9 -8 0
-15 -7 -15 -15z"/>
<path d="M3303 1660 c0 -25 2 -35 4 -22 2 12 2 32 0 45 -2 12 -4 2 -4 -23z"/>
<path d="M3835 1680 c3 -5 14 -10 23 -10 15 0 15 2 2 10 -20 13 -33 13 -25 0z"/>
<path d="M2111 1664 c0 -11 3 -14 6 -6 3 7 2 16 -1 19 -3 4 -6 -2 -5 -13z"/>
<path d="M2220 1664 c0 -8 5 -12 10 -9 6 4 8 11 5 16 -9 14 -15 11 -15 -7z"/>
<path d="M2810 1670 c-12 -8 -11 -10 8 -10 12 0 22 5 22 10 0 13 -11 13 -30 0z"/>
<path d="M3960 1670 c-24 -8 -23 -8 8 -9 20 -1 31 3 27 9 -3 6 -7 10 -8 9 -1
-1 -13 -5 -27 -9z"/>
<path d="M3019 1651 c-13 -11 -22 -22 -19 -24 3 -3 16 5 29 19 28 29 22 31
-10 5z"/>
<path d="M4102 1630 c0 -14 2 -19 5 -12 2 6 2 18 0 25 -3 6 -5 1 -5 -13z"/>
<path d="M2380 1630 c0 -5 5 -10 10 -10 6 0 10 5 10 10 0 6 -4 10 -10 10 -5 0
-10 -4 -10 -10z"/>
<path d="M2125 1620 c-3 -5 -1 -10 4 -10 6 0 11 5 11 10 0 6 -2 10 -4 10 -3 0
-8 -4 -11 -10z"/>
<path d="M2156 1622 c-2 -4 10 -9 27 -10 24 -2 28 0 17 8 -18 12 -37 13 -44 2z"/>
<path d="M2250 1615 c0 -12 -15 -15 -71 -15 -67 0 -70 -1 -67 -22 2 -15 10
-23 23 -23 19 0 20 -8 23 -120 2 -66 7 -136 11 -156 5 -23 5 -41 -1 -47 -11
-11 18 -31 42 -29 8 1 36 -2 61 -7 36 -6 54 -4 80 9 19 10 37 22 40 27 4 6 9
-1 13 -15 5 -22 11 -25 46 -24 22 1 40 5 40 8 0 4 18 9 40 13 46 7 60 28 41
59 -11 17 -11 19 4 13 15 -5 16 -4 6 8 -9 11 -9 15 1 18 8 3 6 7 -5 11 -9 3
-16 3 -15 -1 1 -4 -2 -15 -7 -26 -5 -12 -3 -21 6 -27 10 -6 6 -9 -13 -9 -16 0
-28 5 -28 11 0 5 6 7 13 3 9 -6 9 -4 -1 8 -9 12 -12 55 -11 156 0 78 -2 146
-6 151 -3 6 -40 11 -85 11 -78 0 -80 0 -78 -24 1 -14 5 -23 9 -20 4 2 14 1 23
-2 13 -5 16 -26 16 -129 0 -127 -8 -155 -40 -135 -8 6 -19 10 -25 10 -5 -1 -2
-5 9 -11 15 -9 16 -13 5 -20 -16 -10 -51 -2 -61 15 -4 6 -8 73 -8 149 0 81 -5
147 -11 159 -9 16 -8 23 2 29 11 7 10 9 -3 9 -10 0 -18 -7 -18 -15z m-43 -402
c-8 -7 -37 9 -31 19 3 5 12 4 20 -3 8 -6 13 -14 11 -16z"/>
<path d="M2526 1618 c5 -8 2 -9 -10 -5 -10 4 -15 3 -11 -3 9 -15 32 -12 39 5
3 9 0 15 -10 15 -9 0 -12 -5 -8 -12z"/>
<path d="M3753 1614 c0 -7 4 -11 8 -8 4 2 11 0 14 -6 9 -15 -13 -40 -30 -34
-7 3 -16 1 -20 -5 -4 -7 0 -8 11 -4 10 4 15 2 11 -3 -3 -5 3 -10 13 -10 10 0
16 6 13 13 -7 19 8 16 23 -4 7 -10 14 -13 14 -6 0 6 -4 15 -10 18 -5 3 -10 14
-10 23 0 10 -8 22 -18 29 -15 9 -19 8 -19 -3z"/>
<path d="M2293 1613 c-15 -5 -17 -23 -4 -23 5 0 11 7 15 15 3 8 4 15 3 14 -1
0 -8 -3 -14 -6z"/>
<path d="M2599 1609 c-11 -7 -11 -9 4 -9 10 0 28 -5 39 -11 l21 -11 -22 -17
c-15 -11 -24 -34 -31 -76 -5 -32 -7 -61 -5 -64 3 -2 5 0 5 6 0 5 17 -6 38 -26
26 -24 35 -39 28 -44 -7 -5 -4 -7 7 -3 10 3 30 0 45 -8 66 -34 84 -98 29 -104
-36 -4 -73 20 -99 64 -32 54 -53 42 -53 -29 0 -53 2 -57 23 -57 13 0 21 -4 18
-9 -3 -5 0 -9 7 -8 38 1 68 -4 63 -11 -8 -13 102 6 135 24 44 22 62 57 57 108
-5 38 -3 43 11 39 9 -4 13 -3 9 1 -3 4 -12 8 -20 10 -7 1 -32 15 -56 31 -132
91 -148 109 -122 140 16 20 56 19 64 -1 3 -8 9 -13 14 -10 11 6 30 -25 27 -44
-2 -11 7 -17 26 -18 31 -2 32 0 29 58 -1 40 -30 70 -67 70 -16 0 -22 4 -17 13
6 10 4 10 -7 0 -7 -7 -17 -13 -22 -13 -4 0 -5 6 -1 13 6 9 4 9 -7 1 -13 -10
-34 -16 -94 -26 -15 -2 -19 2 -18 17 1 11 0 14 -3 8 -4 -9 -11 -10 -23 -4 -10
6 -23 6 -32 0z"/>
<path d="M2844 1608 c9 -5 23 -7 31 -4 8 3 16 -3 18 -15 4 -16 4 -16 3 2 -1
17 -8 22 -35 24 -27 2 -31 1 -17 -7z"/>
<path d="M3801 1609 c-2 -35 24 -69 52 -69 20 0 27 -5 27 -19 0 -11 -4 -23
-10 -26 -5 -3 -9 -14 -9 -23 1 -15 2 -15 6 1 10 38 19 13 16 -45 -2 -35 -4
-90 -6 -123 -2 -54 -4 -60 -27 -65 -14 -3 -25 -12 -25 -20 0 -22 217 -27 234
-6 11 13 7 16 -21 24 l-33 8 -3 105 c-2 91 0 108 15 121 27 24 69 33 76 15 3
-7 -1 -14 -9 -14 -7 0 -11 4 -8 9 3 4 1 8 -5 8 -14 0 -25 -20 -12 -21 6 -1 16
-3 21 -4 6 -1 13 -3 18 -4 4 -1 1 -5 -6 -10 -11 -7 -11 -9 1 -14 11 -4 14 2
12 25 -2 27 0 29 21 24 43 -11 60 58 23 95 -21 21 -59 23 -102 4 -14 -6 -20
-3 -23 12 -4 16 -14 20 -45 20 -22 0 -35 -3 -28 -8 7 -4 -13 -12 -47 -19 -32
-6 -64 -13 -71 -15 -6 -2 -16 8 -22 23 -5 15 -10 20 -10 11z m216 -19 c15 -18
17 -33 3 -25 -5 3 -7 0 -4 -8 3 -8 1 -18 -5 -22 -7 -4 -11 5 -11 24 0 18 -7
34 -17 41 -16 10 -16 10 2 8 11 -2 25 -10 32 -18z"/>
<path d="M3820 1606 c0 -16 5 -17 32 -12 39 8 62 26 33 26 -11 0 -27 -4 -35
-10 -9 -6 -17 -5 -22 3 -5 8 -8 6 -8 -7z"/>
<path d="M3910 1609 c0 -5 5 -7 10 -4 6 3 10 8 10 11 0 2 -4 4 -10 4 -5 0 -10
-5 -10 -11z"/>
<path d="M4038 1613 c6 -2 9 -10 6 -15 -4 -7 -2 -8 5 -4 13 9 5 26 -12 25 -9
0 -8 -2 1 -6z"/>
<path d="M1828 1582 c-46 -10 -68 -20 -68 -30 0 -8 6 -12 15 -8 40 15 45 0 45
-150 0 -144 0 -144 -25 -156 -46 -21 -26 -28 80 -28 63 0 105 4 105 10 0 6 -9
10 -20 10 -30 0 -40 31 -40 128 0 74 3 94 20 115 27 34 61 41 110 20 38 -17
40 -20 41 -63 l2 -45 7 40 7 40 3 -45 3 -45 4 38 c3 27 -1 45 -12 57 -15 17
-15 21 -1 48 15 30 15 31 -15 56 -17 14 -37 26 -45 26 -27 0 -72 -29 -96 -62
l-23 -33 -5 44 c-3 25 -9 45 -15 46 -5 1 -40 -5 -77 -13z"/>
<path d="M2310 1590 c0 -5 5 -10 11 -10 5 0 7 5 4 10 -3 6 -8 10 -11 10 -2 0
-4 -4 -4 -10z"/>
<path d="M2555 1590 c3 -5 8 -10 11 -10 2 0 4 5 4 10 0 6 -5 10 -11 10 -5 0
-7 -4 -4 -10z"/>
<path d="M4285 1593 c-99 -23 -123 -38 -67 -45 l27 -3 0 -150 c0 -146 -1 -150
-22 -160 -43 -19 -23 -25 82 -25 63 0 105 4 105 10 0 6 -6 10 -14 10 -8 0 -22
7 -30 16 -13 13 -16 44 -16 185 0 169 0 169 -22 168 -13 -1 -32 -3 -43 -6z"/>
<path d="M4591 1588 c-52 -14 -79 -37 -109 -87 -33 -57 -37 -145 -8 -204 42
-85 168 -123 250 -75 49 29 81 71 72 94 -6 15 -10 14 -39 -13 -45 -43 -69 -48
-120 -25 -57 25 -82 74 -82 158 1 134 111 183 146 64 10 -33 17 -41 45 -46 41
-7 54 0 54 31 0 35 -52 90 -98 103 -45 14 -64 14 -111 0z"/>
<path d="M2291 1564 c0 -11 3 -14 6 -6 3 7 2 16 -1 19 -3 4 -6 -2 -5 -13z"/>
<path d="M2907 1567 c-4 -10 -2 -17 5 -17 9 0 9 -3 0 -12 -15 -15 -16 -38 -1
-38 6 0 9 6 6 14 -3 7 -2 17 3 22 4 5 5 18 1 28 -7 17 -8 18 -14 3z"/>
<path d="M2313 1555 c0 -8 4 -12 9 -9 4 3 8 9 8 15 0 5 -4 9 -8 9 -5 0 -9 -7
-9 -15z"/>
<path d="M2547 1556 c-3 -8 2 -16 14 -19 17 -5 18 -3 7 11 -7 9 -13 18 -14 20
-1 2 -4 -4 -7 -12z"/>
<path d="M2585 1537 c-1 -18 -3 -41 -5 -51 -3 -10 1 -20 8 -22 7 -1 9 0 4 2
-5 3 -4 22 2 44 6 25 7 43 1 49 -7 7 -10 -2 -10 -22z"/>
<path d="M2121 1532 c-8 -14 -6 -19 5 -19 7 0 14 9 14 19 0 10 -2 18 -5 18 -2
0 -9 -8 -14 -18z"/>
<path d="M2774 1542 c3 -5 1 -12 -6 -14 -8 -3 -9 -6 -1 -11 6 -4 13 0 17 8 3
8 0 17 -6 21 -6 4 -8 3 -4 -4z"/>
<path d="M2292 1465 c-1 -44 2 -85 6 -92 4 -7 6 20 4 60 -5 108 -9 122 -10 32z"/>
<path d="M2931 1503 c-1 -12 -4 -23 -8 -26 -5 -2 -2 -2 5 -1 6 2 12 -2 12 -8
0 -6 2 -9 5 -7 2 3 0 18 -4 35 -7 23 -9 25 -10 7z"/>
<path d="M2745 1500 c3 -5 8 -10 11 -10 2 0 4 5 4 10 0 6 -5 10 -11 10 -5 0
-7 -4 -4 -10z"/>
<path d="M2776 1485 c-3 -8 -1 -15 4 -15 6 0 10 7 10 15 0 8 -2 15 -4 15 -2 0
-6 -7 -10 -15z"/>
<path d="M2808 1475 c2 -14 6 -25 8 -25 2 0 4 11 4 25 0 14 -4 25 -9 25 -4 0
-6 -11 -3 -25z"/>
<path d="M2981 1474 c0 -11 3 -14 6 -6 3 7 2 16 -1 19 -3 4 -6 -2 -5 -13z"/>
<path d="M2835 1449 c-8 -12 4 -31 15 -24 5 3 13 -2 18 -11 7 -13 9 -10 8 13
-1 29 -28 44 -41 22z"/>
<path d="M3807 1452 c-10 -15 -9 -88 1 -112 7 -16 11 -19 11 -8 1 9 4 25 7 35
5 15 4 16 -6 3 -9 -12 -11 -4 -7 38 4 51 3 59 -6 44z"/>
<path d="M2565 1425 c0 -13 3 -21 6 -19 4 2 9 -8 12 -21 3 -16 -1 -29 -10 -34
-13 -7 -13 -9 1 -14 12 -5 15 -3 10 5 -5 8 -2 9 9 5 10 -3 17 -2 17 4 0 6 4 8
9 5 5 -4 7 4 4 16 -5 23 -5 23 10 3 8 -11 19 -17 23 -12 4 4 -2 16 -14 27
l-22 20 -6 -26 c-5 -19 -9 -22 -15 -13 -4 8 -3 16 2 20 7 4 1 16 -13 31 l-23
26 0 -23z"/>
<path d="M3826 1435 c-3 -9 -6 -24 -5 -33 0 -9 5 -4 10 12 9 32 6 48 -5 21z"/>
<path d="M2961 1381 c-8 -5 -9 -11 -3 -15 5 -3 12 1 16 9 6 17 6 18 -13 6z"/>
<path d="M4086 1383 c-3 -3 -6 -11 -6 -17 0 -6 5 -4 10 4 6 10 9 -140 8 -430
-2 -318 -4 -399 -9 -285 l-6 160 2 -198 c1 -127 -2 -197 -8 -197 -6 0 -8 -2
-5 -5 3 -3 13 -3 22 1 14 6 16 50 16 484 0 264 -4 481 -9 484 -4 3 -11 3 -15
-1z"/>
<path d="M2094 1260 c0 -69 1 -97 3 -62 2 34 2 90 0 125 -2 34 -3 6 -3 -63z"/>
<path d="M2133 1340 c0 -25 2 -35 4 -22 2 12 2 32 0 45 -2 12 -4 2 -4 -23z"/>
<path d="M3150 1370 c0 -5 4 -10 9 -10 6 0 13 5 16 10 3 6 -1 10 -9 10 -9 0
-16 -4 -16 -10z"/>
<path d="M3282 1350 c0 -14 2 -19 5 -12 2 6 2 18 0 25 -3 6 -5 1 -5 -13z"/>
<path d="M2940 1354 c0 -5 7 -18 15 -28 8 -11 15 -16 15 -10 0 5 -7 18 -15 28
-8 11 -15 16 -15 10z"/>
<path d="M2981 1344 c0 -11 3 -14 6 -6 3 7 2 16 -1 19 -3 4 -6 -2 -5 -13z"/>
<path d="M2293 1325 c1 -16 7 -31 12 -31 11 -2 11 0 -4 36 -11 25 -11 25 -8
-5z"/>
<path d="M2658 1338 c5 -5 16 -8 23 -6 8 3 3 7 -10 11 -17 4 -21 3 -13 -5z"/>
<path d="M2695 1320 c-3 -5 -13 -6 -23 -3 -9 4 0 -10 21 -30 20 -20 43 -37 50
-36 9 0 9 2 0 6 -19 7 -16 19 6 19 12 0 17 -5 13 -15 -3 -9 -1 -12 6 -7 7 4
12 13 12 21 0 14 -36 15 -57 2 -13 -8 -28 27 -18 43 3 5 4 10 1 10 -3 0 -7 -4
-11 -10z"/>
<path d="M2722 1317 c-9 -11 -5 -13 18 -13 16 0 27 3 24 7 -2 5 -12 5 -21 2
-11 -4 -14 -3 -9 5 10 16 1 15 -12 -1z"/>
<path d="M3780 1329 c0 -15 28 -60 33 -52 3 5 -3 20 -14 33 -10 14 -19 22 -19
19z"/>
<path d="M2937 1269 c9 -25 23 -46 30 -46 18 0 17 16 -2 23 -8 4 -15 12 -15
18 0 7 -7 21 -14 32 -12 15 -12 9 1 -27z"/>
<path d="M3838 1303 c0 -5 -2 -13 -2 -18 -1 -6 -11 -20 -23 -32 -14 -14 -20
-29 -16 -42 6 -25 31 -47 41 -37 4 4 -1 12 -11 17 -9 6 -17 18 -17 28 0 20 32
54 43 46 4 -3 3 1 -3 7 -17 20 -11 31 8 17 15 -13 16 -12 3 4 -15 19 -20 21
-23 10z"/>
<path d="M2976 1271 c21 -42 37 -49 20 -9 -8 18 -19 34 -25 36 -5 2 -3 -10 5
-27z"/>
<path d="M3140 1290 c-9 -6 -10 -10 -3 -10 6 0 15 5 18 10 8 12 4 12 -15 0z"/>
<path d="M4062 1284 c-7 -8 -11 -22 -9 -32 4 -14 5 -14 7 3 l1 20 9 -20 c6
-16 8 -14 7 13 0 17 0 32 -1 32 -1 -1 -7 -7 -14 -16z"/>
<path d="M3753 1263 c-4 -10 -11 -22 -17 -26 -7 -5 -4 -7 7 -5 24 4 54 -71 34
-85 -8 -6 -6 -7 6 -3 10 3 26 6 34 6 11 0 7 7 -12 21 -22 18 -26 28 -23 55 3
28 2 31 -11 21 -12 -10 -14 -8 -9 11 7 26 0 30 -9 5z"/>
<path d="M4026 1271 c-4 -7 -5 -15 -2 -18 9 -9 19 4 14 18 -4 11 -6 11 -12 0z"/>
<path d="M2910 1261 c0 -5 5 -13 10 -16 6 -3 10 -2 10 4 0 5 -4 13 -10 16 -5
3 -10 2 -10 -4z"/>
<path d="M2871 1220 c-16 -14 -19 -20 -8 -20 8 0 18 7 21 16 3 8 11 12 17 8 8
-4 9 -3 5 4 -9 15 -6 15 -35 -8z"/>
<path d="M2365 1200 c-3 -6 1 -7 9 -4 18 7 21 14 7 14 -6 0 -13 -4 -16 -10z"/>
<path d="M3197 1201 c2 -2 -5 -10 -15 -18 -16 -13 -15 -14 6 -8 12 4 22 2 22
-3 0 -5 7 -9 15 -9 10 0 15 9 14 26 -1 17 -3 20 -6 9 -5 -21 -12 -22 -27 -5
-6 7 -10 10 -9 8z"/>
<path d="M2160 1191 c0 -5 7 -11 15 -15 8 -3 15 -1 15 3 0 5 -7 11 -15 15 -8
3 -15 1 -15 -3z"/>
<path d="M2206 1181 c-3 -5 6 -17 20 -26 15 -9 23 -12 20 -6 -9 13 -9 13 33 1
26 -7 39 -6 55 5 24 17 56 20 56 4 0 -6 -8 -8 -19 -4 -11 3 -22 2 -24 -3 -3
-4 6 -7 21 -6 43 2 45 3 33 17 -6 8 -7 17 -3 22 4 4 -4 4 -18 0 -13 -4 -42 -8
-64 -8 -38 0 -39 0 -15 -14 13 -8 16 -12 7 -9 -9 3 -34 8 -55 12 -35 7 -36 8
-13 15 l25 7 -27 1 c-15 1 -29 -3 -32 -8z"/>
<path d="M2820 1186 c0 -2 11 -6 25 -8 13 -3 22 -1 19 3 -5 9 -44 13 -44 5z"/>
<path d="M3251 1173 c0 -12 6 -29 15 -37 14 -15 3 -16 -123 -16 -76 0 -169 -3
-207 -7 -59 -5 -69 -4 -64 9 5 11 -3 14 -33 14 -25 0 -34 -3 -26 -9 9 -7 9
-10 0 -14 -7 -2 -13 -9 -13 -14 0 -6 7 -6 19 0 10 6 21 7 25 3 4 -3 4 2 1 13
-6 18 -5 19 7 3 12 -14 40 -16 218 -16 209 0 235 5 206 38 -8 8 -16 24 -19 35
-4 19 -5 18 -6 -2z"/>
<path d="M2440 1170 c-8 -5 -10 -10 -5 -10 6 0 17 5 25 10 8 5 11 10 5 10 -5
0 -17 -5 -25 -10z"/>
<path d="M2493 1173 c9 -2 23 -2 30 0 6 3 -1 5 -18 5 -16 0 -22 -2 -12 -5z"/>
<path d="M2657 1173 c-10 -3 -16 -10 -14 -16 4 -14 75 -18 83 -6 3 5 18 9 35
9 16 0 29 5 29 11 0 5 -3 8 -7 6 -5 -3 -30 -8 -57 -11 -27 -4 -53 -9 -58 -12
-4 -3 -8 -3 -8 1 0 3 10 10 23 15 23 9 6 11 -26 3z"/>
<path d="M2803 1165 c0 -7 8 -10 19 -7 10 2 18 6 18 7 0 1 -8 5 -18 7 -11 3
-19 0 -19 -7z"/>
<path d="M3072 1166 c7 -8 17 -12 22 -9 4 3 2 9 -5 14 -22 13 -31 11 -17 -5z"/>
<path d="M3119 1177 c-11 -23 -3 -34 25 -34 17 0 22 2 12 4 -13 4 -15 7 -7 13
9 5 6 9 -8 13 -12 3 -21 4 -22 4z"/>
<path d="M3637 1172 c-14 -6 -12 -10 15 -19 29 -11 31 -11 15 1 -18 14 -18 14
0 19 11 3 12 5 3 5 -8 0 -23 -3 -33 -6z"/>
<path d="M4043 1166 c-47 -17 -48 -23 -5 -23 30 0 38 4 39 19 1 10 1 17 0 17
-1 -1 -16 -7 -34 -13z"/>
<path d="M2163 1156 c0 -6 11 -12 24 -12 26 -2 23 11 -5 18 -10 3 -19 0 -19
-6z"/>
<path d="M3308 1158 c-13 -3 44 -6 126 -7 82 -1 146 2 143 6 -9 8 -239 10
-269 1z"/>
<path d="M2478 1153 c7 -3 16 -2 19 1 4 3 -2 6 -13 5 -11 0 -14 -3 -6 -6z"/>
<path d="M2530 1150 c0 -5 7 -7 15 -4 8 4 15 8 15 10 0 2 -7 4 -15 4 -8 0 -15
-4 -15 -10z"/>
<path d="M3883 1153 c20 -2 54 -2 75 0 20 2 3 4 -38 4 -41 0 -58 -2 -37 -4z"/>
<path d="M2112 1130 c0 -14 2 -19 5 -12 2 6 2 18 0 25 -3 6 -5 1 -5 -13z"/>
<path d="M3188 1133 c6 -2 18 -2 25 0 6 3 1 5 -13 5 -14 0 -19 -2 -12 -5z"/>
<path d="M3315 1130 c3 -5 8 -10 11 -10 2 0 4 5 4 10 0 6 -5 10 -11 10 -5 0
-7 -4 -4 -10z"/>
<path d="M3344 1126 c-10 -7 -28 -16 -39 -19 -15 -3 -13 -5 8 -6 16 0 35 6 44
14 20 21 12 28 -13 11z"/>
<path d="M2093 753 l-2 -383 246 0 c136 0 244 2 242 5 -3 2 -109 5 -236 6
l-231 1 -6 30 c-9 45 -7 88 3 88 6 0 12 -12 14 -27 2 -16 2 -2 0 29 -6 75 2
101 27 88 30 -16 93 -12 135 10 22 11 34 20 27 20 -7 0 -12 5 -12 10 0 6 6 10
14 10 7 0 27 7 42 15 16 8 22 15 13 15 -9 0 -21 10 -28 23 -39 74 -98 154
-118 161 -16 7 -43 -16 -43 -36 0 -4 -10 -8 -22 -8 -22 0 -23 3 -22 87 1 49
-1 61 -2 28 -12 -207 -33 -188 -37 33 -1 97 -3 5 -4 -205z m134 -11 c22 -18
33 -67 20 -90 -12 -18 -84 -16 -91 4 -13 34 -6 73 16 88 28 20 28 20 55 -2z"/>
<path d="M2528 1103 c6 -2 18 -2 25 0 6 3 1 5 -13 5 -14 0 -19 -2 -12 -5z"/>
<path d="M3382 1085 c0 -16 2 -22 5 -12 2 9 2 23 0 30 -3 6 -5 -1 -5 -18z"/>
<path d="M3413 1079 c-15 -42 -17 -179 -3 -179 6 0 10 13 10 29 0 16 2 44 5
62 4 29 3 30 -4 9 -8 -22 -9 -20 -10 17 -1 23 4 43 10 45 6 2 9 14 7 28 -3 21
-4 20 -15 -11z"/>
<path d="M2113 1040 c0 -36 2 -50 4 -32 2 17 2 47 0 65 -2 17 -4 3 -4 -33z"/>
<path d="M2798 1083 c-16 -2 -28 -9 -28 -14 0 -8 21 -12 38 -6 4 1 9 -142 12
-318 l6 -320 1 333 c1 182 1 331 0 331 -1 -1 -14 -4 -29 -6z"/>
<path d="M3373 975 c0 -44 2 -61 4 -37 2 23 2 59 0 80 -2 20 -4 1 -4 -43z"/>
<path d="M2160 965 c0 -8 2 -15 4 -15 2 0 6 7 10 15 3 8 1 15 -4 15 -6 0 -10
-7 -10 -15z"/>
<path d="M2198 973 c7 -3 16 -2 19 1 4 3 -2 6 -13 5 -11 0 -14 -3 -6 -6z"/>
<path d="M2228 963 c-10 -2 -18 -8 -18 -13 0 -5 -10 -18 -22 -30 -12 -11 -17
-20 -12 -20 6 0 15 5 21 11 8 8 15 4 27 -12 9 -13 16 -18 16 -12 0 6 9 13 20
16 22 6 27 36 8 55 -7 7 -14 11 -17 11 -4 -1 -14 -3 -23 -6z"/>
<path d="M2260 885 c-10 -12 -6 -24 21 -67 18 -29 36 -55 39 -58 3 -3 16 -20
29 -37 29 -42 71 -46 71 -8 0 14 -4 25 -10 25 -5 0 -10 6 -10 13 0 7 -16 36
-35 66 -19 29 -35 58 -35 65 0 17 -55 19 -70 1z"/>
<path d="M3433 860 c0 -25 2 -35 4 -22 2 12 2 32 0 45 -2 12 -4 2 -4 -23z"/>
<path d="M2160 870 c0 -5 4 -10 9 -10 6 0 13 5 16 10 3 6 -1 10 -9 10 -9 0
-16 -4 -16 -10z"/>
<path d="M3374 660 c0 -91 2 -128 3 -82 2 45 2 119 0 165 -1 45 -3 8 -3 -83z"/>
<path d="M3404 635 c0 -104 2 -146 3 -92 2 54 2 139 0 190 -1 51 -3 7 -3 -98z"/>
<path d="M2450 725 c0 -8 2 -15 4 -15 2 0 6 7 10 15 3 8 1 15 -4 15 -6 0 -10
-7 -10 -15z"/>
<path d="M3420 579 c-3 -109 -2 -165 5 -163 6 3 9 47 7 112 -5 204 -8 216 -12
51z"/>
<path d="M2380 630 c0 -5 5 -10 10 -10 6 0 10 5 10 10 0 6 -4 10 -10 10 -5 0
-10 -4 -10 -10z"/>
<path d="M2131 557 c0 -16 3 -26 8 -23 5 4 12 0 14 -6 3 -8 6 -6 6 5 1 9 -3
17 -8 17 -5 0 -12 8 -14 18 -3 10 -5 6 -6 -11z"/>
<path d="M2142 468 c-1 -20 -5 -45 -8 -55 -5 -17 -5 -17 6 0 6 9 9 34 7 55
l-4 37 -1 -37z"/>
<path d="M3370 447 c0 -14 5 -29 10 -32 7 -4 8 3 4 22 -9 38 -14 42 -14 10z"/>
<path d="M2800 423 c0 -15 19 -37 26 -31 3 4 -1 14 -10 23 -9 9 -16 13 -16 8z"/>
<path d="M2460 410 l25 -8 -24 -1 c-13 -1 -22 -4 -18 -7 3 -4 18 -3 34 0 21 6
24 9 12 17 -7 5 -23 8 -34 8 -16 -1 -16 -2 5 -9z"/>
<path d="M2543 413 c9 -2 25 -2 35 0 9 3 1 5 -18 5 -19 0 -27 -2 -17 -5z"/>
<path d="M2618 413 c7 -3 16 -2 19 1 4 3 -2 6 -13 5 -11 0 -14 -3 -6 -6z"/>
<path d="M2743 413 c9 -2 25 -2 35 0 9 3 1 5 -18 5 -19 0 -27 -2 -17 -5z"/>
<path d="M3565 410 c3 -5 14 -10 23 -10 15 0 15 2 2 10 -20 13 -33 13 -25 0z"/>
<path d="M3920 410 c0 -8 16 -11 45 -8 27 2 44 -1 42 -7 -2 -6 -72 -12 -168
-16 l-164 -5 204 -1 c156 0 208 3 218 13 19 18 0 26 -23 9 -10 -8 -30 -14 -44
-15 -19 0 -22 2 -10 9 8 6 19 7 25 3 5 -3 4 1 -2 9 -15 19 -123 26 -123 9z"/>
<path d="M2178 403 c12 -2 32 -2 45 0 12 2 2 4 -23 4 -25 0 -35 -2 -22 -4z"/>
<path d="M2325 405 c23 -8 83 -10 79 -3 -3 4 -24 8 -47 7 -23 0 -37 -2 -32 -4z"/>
<path d="M2568 393 c7 -3 16 -2 19 1 4 3 -2 6 -13 5 -11 0 -14 -3 -6 -6z"/>
<path d="M2728 393 c7 -3 16 -2 19 1 4 3 -2 6 -13 5 -11 0 -14 -3 -6 -6z"/>
<path d="M2785 390 c14 -7 -10 -9 -82 -7 -56 1 -105 -2 -109 -6 -4 -4 43 -7
105 -7 86 0 112 3 109 13 -3 6 -13 13 -24 14 -18 3 -18 2 1 -7z"/>
<path d="M3376 385 c-3 -8 -1 -15 4 -15 6 0 10 7 10 15 0 8 -2 15 -4 15 -2 0
-6 -7 -10 -15z"/>
<path d="M3528 393 c7 -3 16 -2 19 1 4 3 -2 6 -13 5 -11 0 -14 -3 -6 -6z"/>
<path d="M3448 373 c28 -2 76 -2 105 0 28 2 5 3 -53 3 -58 0 -81 -1 -52 -3z"/>
</g>
</svg>
